<?xml version="1.0" encoding="utf-8"?>
<!-- Generator: Adobe Illustrator 22.0.1, SVG Export Plug-In . SVG Version: 6.00 Build 0)  -->
<svg version="1.1" id="iris" xmlns="http://www.w3.org/2000/svg" xmlns:xlink="http://www.w3.org/1999/xlink" x="0px" y="0px"
	 viewBox="0 0 200 156" style="enable-background:new 0 0 200 156;" xml:space="preserve">
<style type="text/css">
	.st0{fill:#3E205F;}
	.st1{fill:url(#SVGID_1_);}
</style>
<path class="st0" d="M5.6,40.4V26.1c0-1.7,1.3-3,3-3h14.3c1.7,0,3,1.3,3,3c0,0.8-0.3,1.6-0.9,2.1L10.8,42.5c-1.2,1.2-3.1,1.2-4.2,0
	c0,0,0,0,0,0C5.9,41.9,5.6,41.2,5.6,40.4z"/>
<path class="st0" d="M110.6,75.7h14.2c1.7,0,3.1,1.4,3.2,3.1c0,0,0,0,0,0.1v72.3c0,1.7-1.4,3.1-3.1,3.1c0,0,0,0-0.1,0h-14.1
	c-1.7,0-3.1-1.4-3.2-3.1c0,0,0,0,0-0.1V78.7C107.6,77.1,108.9,75.7,110.6,75.7z M8.7,75.7h14.1c1.7,0,3.2,1.4,3.2,3.1c0,0,0,0,0,0
	v72.3c0,1.7-1.4,3.1-3.1,3.1c0,0,0,0-0.1,0H8.7c-1.7,0-3.1-1.4-3.2-3.1c0,0,0,0,0-0.1V78.9C5.6,77.1,6.9,75.7,8.7,75.7
	C8.7,75.7,8.7,75.7,8.7,75.7z M170.9,155.6c-8.3-0.1-16.4-2.3-23.6-6.4c-2.8-1.5-3.4-3.6-2-6.4c1.1-2.3,2.2-4.6,3.3-6.9
	c2.1-4.3,3.4-4.8,7.8-3c4,1.8,8.4,3,12.8,3.4c2,0.2,4.1-0.2,5.9-1.1c3.4-2.1,3.8-6,0.8-8.6c-2.8-2.5-6.3-3.7-9.7-5.2
	c-4.4-1.9-8.9-3.7-12.8-6.7c-13.7-10.3-12.1-29.9,3.4-37.2c11.5-5.4,22.8-3.5,33.7,2.1c2,1,2.4,2.8,1.8,4.9c-0.2,0.5-0.4,1-0.6,1.4
	c-5.6,9.3-4.6,11.5-15,6.4c-2.6-1.2-5.5-1.4-8.2-0.6c-2,0.5-3.8,1.7-4.2,4s1.1,3.9,2.9,4.8c3.2,1.6,6.5,2.8,9.8,4.2
	c3.7,1.4,7.2,3.2,10.4,5.5c8.3,5.9,13,13.7,11.1,24.2s-8.7,16.6-18.6,19.7C177,155.1,174,155.5,170.9,155.6L170.9,155.6z"/>
<path class="st0" d="M85.2,75.8h-6.1c-6.3,0-12.5,1.8-17.8,5.1v-2c0,0,0,0,0-0.1c0-1.7-1.4-3.1-3.1-3.1H48c-1.7,0-3.2,1.4-3.2,3.1
	v14.5v57.8c0,0,0,0,0,0c0,0,0,0,0,0.1c0,0,0,0,0,0c0,1.7,1.4,3.1,3.2,3.1h14.2c0,0,0,0,0.1,0c1.7,0,3.1-1.4,3.1-3.2v-35.8
	c0-2.1,0-5.8,0-5.9c0-5.3,2.2-10.1,7.1-12.8c2.1-1.1,4.3-1.6,6.7-1.6h6.1c0,0,0,0,0,0c1.8,0,3.3-1.5,3.3-3.4l0-12.6c0,0,0,0,0,0
	C88.6,77.3,87.1,75.8,85.2,75.8z"/>
<linearGradient id="SVGID_1_" gradientUnits="userSpaceOnUse" x1="31.3126" y1="372.215" x2="163.3922" y2="372.215" gradientTransform="matrix(1 0 0 -1 -30.32 405.43)">
	<stop  offset="0.15" style="stop-color:#2CBBAB"/>
	<stop  offset="1" style="stop-color:#289AD0"/>
</linearGradient>
<path class="st1" d="M106.1,64.1L69.5,27.5c-1.4-1.3-3.5-1.3-4.9,0L28,64.1C26.7,65.3,25,66,23.3,66H3.7C2.2,66,1,64.8,1,63.3
	c0-0.7,0.3-1.4,0.8-1.9l58.1-58c3.9-4,10.4-4,14.3-0.1c0,0,0,0,0.1,0.1l58.1,58.1c1,1,1,2.7,0,3.7c-0.5,0.5-1.2,0.8-1.9,0.8h-19.6
	C109.1,66,107.4,65.3,106.1,64.1z"/>
</svg>
