<!-- Generated by IcoMoon.io -->
<svg version="1.1" xmlns="http://www.w3.org/2000/svg" width="45" height="45" viewBox="0 0 45 45">
<title>blinds-1</title>
<path d="M38.853 33.469v-3.969h6.147v-1h-6.147v-3h6.147v-1h-6.147v-3h6.147v-1h-6.147v-3h6.147v-1h-6.147v-3h6.147v-1h-6.147v-3h6.147v-1h-45v1h37.824v3h-37.824v1h37.824v3h-37.824v1h37.824v3h-37.824v1h37.824v3h-37.824v1h37.824v3h-37.824v1h37.824v3.969c-0.599 0.214-1.029 0.793-1.029 1.471 0 0.868 0.692 1.56 1.543 1.56s1.545-0.692 1.545-1.56c0-0.678-0.43-1.256-1.029-1.471z"></path>
</svg>
