<svg xmlns="http://www.w3.org/2000/svg" viewBox="0 0 40.75 41.31"><defs><style>.cls-1{fill:#010101;}</style></defs><title>bridge-2</title><g id="Layer_2" data-name="Layer 2"><g id="Layer_1-2" data-name="Layer 1"><path class="cls-1" d="M40.74,7.06a7.06,7.06,0,0,0-2-4.9A6.82,6.82,0,0,0,33.93,0L7.08.05H7A7,7,0,0,0,0,6.69V34.31a6.85,6.85,0,0,0,6.49,7H33.74a7.24,7.24,0,0,0,4.81-1.91,6.45,6.45,0,0,0,2.2-4.72ZM38,38.85a6.61,6.61,0,0,1-4.36,1.71H6.51A6.09,6.09,0,0,1,.76,34.31V6.69A6.28,6.28,0,0,1,7,.8h.05L33.93.75a6.06,6.06,0,0,1,4.24,1.93A6.31,6.31,0,0,1,40,7.05V34.68A5.71,5.71,0,0,1,38,38.85Z"/><circle class="cls-1" cx="20.39" cy="14.35" r="5.36"/><path class="cls-1" d="M29.93,28.79a13.53,13.53,0,0,1-19.11,0,.38.38,0,0,0-.53.53,14.28,14.28,0,0,0,20.17,0,.38.38,0,0,0-.53-.53Z"/><path class="cls-1" d="M20.38,28a8.28,8.28,0,0,0,5.88-2.43.38.38,0,0,0-.53-.53A7.57,7.57,0,0,1,15,25a.38.38,0,1,0-.53.53A8.28,8.28,0,0,0,20.38,28Z"/></g></g></svg>