<svg xmlns="http://www.w3.org/2000/svg" viewBox="0 0 40 40.56"><defs><style>.cls-1{fill:#010101;}</style></defs><title>bridge-1</title><g id="Layer_2" data-name="Layer 2"><g id="Layer_1-2" data-name="Layer 1"><path class="cls-1" d="M40,6.68A6.78,6.78,0,0,0,33.56,0L6.7.05A6.66,6.66,0,0,0,0,6.31V33.94a6.47,6.47,0,0,0,6.12,6.62H33.3A6.65,6.65,0,0,0,40,34.31ZM20,8.61A5.36,5.36,0,1,1,14.65,14,5.36,5.36,0,0,1,20,8.61ZM13.68,24.2a1,1,0,0,1,1.41,0,7,7,0,0,0,9.81,0,1,1,0,0,1,1.41,1.41,8.94,8.94,0,0,1-12.64,0A1,1,0,0,1,13.68,24.2Zm16.85,5.19a14.9,14.9,0,0,1-21.05,0A1,1,0,0,1,10.89,28a12.9,12.9,0,0,0,18.23,0,1,1,0,0,1,1.41,1.41Z"/></g></g></svg>