<!-- Generated by IcoMoon.io -->
<svg version="1.1" xmlns="http://www.w3.org/2000/svg" width="45" height="45" viewBox="0 0 45 45">
<title>button-2</title>
<path d="M0 3.993v37.013c0 2.202 1.788 3.993 3.993 3.993h37.013c2.202 0 3.993-1.788 3.993-3.993v-37.013c0-2.202-1.788-3.993-3.993-3.993h-37.013c-2.202 0-3.993 1.788-3.993 3.993zM1 4.007c0-1.66 1.334-3.007 3.007-3.007h36.987c1.66 0 3.007 1.334 3.007 3.007v36.987c0 1.66-1.334 3.007-3.007 3.007h-36.987c-1.66 0-3.007-1.334-3.007-3.007v-36.987z"></path>
<path d="M5 8.998v27.004c0 2.214 1.79 3.998 3.998 3.998h27.004c2.214 0 3.998-1.79 3.998-3.998v-27.004c0-2.214-1.79-3.998-3.998-3.998h-27.004c-2.214 0-3.998 1.79-3.998 3.998zM5.92 8.924c0-1.658 1.335-3.001 3.001-3.001h26.997c1.658 0 3.001 1.335 3.001 3.001v26.997c0 1.658-1.335 3.001-3.001 3.001h-26.997c-1.658 0-3.001-1.335-3.001-3.001v-26.997z"></path>
</svg>
