<!-- Generated by IcoMoon.io -->
<svg version="1.1" xmlns="http://www.w3.org/2000/svg" width="45" height="45" viewBox="0 0 45 45">
<title>button-1</title>
<path d="M0 3.993v37.013c0 2.202 1.788 3.993 3.993 3.993h37.013c2.202 0 3.993-1.788 3.993-3.993v-37.013c0-2.202-1.788-3.993-3.993-3.993h-37.013c-2.202 0-3.993 1.788-3.993 3.993zM6 9.997c0-2.207 1.798-3.997 3.997-3.997h25.006c2.207 0 3.997 1.798 3.997 3.997v25.006c0 2.207-1.798 3.997-3.997 3.997h-25.006c-2.207 0-3.997-1.798-3.997-3.997v-25.006z"></path>
</svg>
