<!-- Generated by IcoMoon.io -->
<svg version="1.1" xmlns="http://www.w3.org/2000/svg" width="45" height="45" viewBox="0 0 45 45">
<title>camera-2</title>
<path d="M0 14.128v16.743c0 2.204 1.791 4.004 4.001 4.004h26.876c2.211 0 4.001-1.787 4.001-3.991v-3.808l10.122 4.504v-19.166l-10.122 5.674v-3.959c0-2.218-1.791-4.006-4.001-4.006h-26.876c-2.211 0-4.001 1.793-4.001 4.004zM1 14.133c0-1.662 1.335-3.008 3.003-3.008h27.010c1.658 0 3.003 1.349 3.003 3.004v4.342c0 1.041 0.345 0.825 0.849 0.552 2.776-1.505 9.136-4.955 9.136-4.955v15.995c0 0-8.446-3.719-9.136-4.018-0.149-0.149-0.849-0.471-0.849 0.506v4.412c0 1.653-1.335 2.993-3.003 2.993h-27.010c-1.658 0-3.003-1.343-3.003-3.008v-16.816z"></path>
</svg>
