<!-- Generated by IcoMoon.io -->
<svg version="1.1" xmlns="http://www.w3.org/2000/svg" width="45" height="45" viewBox="0 0 45 45">
<title>care-2</title>
<path d="M22.414 44.523c-9.666 0-19.107-7.487-19.107-19.55 0-11.874 9.070-24.496 19.107-24.496s19.28 13.653 19.28 24.496c0 11.881-9.614 19.55-19.28 19.55zM22.416 43.256c9.173 0 18.297-7.279 18.297-18.554 0-10.291-8.771-23.247-18.297-23.247s-18.133 11.978-18.133 23.247c0 11.449 8.96 18.554 18.133 18.554z"></path>
<path d="M22.518 39.607c-7.564 0-13.696-6.132-13.696-13.696s6.132-13.696 13.696-13.696c7.564 0 13.696 6.132 13.696 13.696s-6.132 13.696-13.696 13.696zM22.518 38.629c7.024 0 12.717-5.694 12.717-12.717s-5.694-12.717-12.717-12.717c-7.024 0-12.717 5.694-12.717 12.717s5.694 12.717 12.717 12.717z"></path>
<path d="M22.444 3.412c-3.212 0-8.728 3.151-7.106 5.025s2.048-0.247 7.106-0.247c5.058 0 5.445 2.036 6.889 0.247s-3.677-5.025-6.889-5.025zM22.424 4.39c2.78 0 6.733 2.688 5.961 3.501s-1.584-0.683-5.961-0.683c-4.377 0-5.564 1.479-6.149 0.683s3.369-3.501 6.149-3.501z"></path>
<path d="M23.007 25.422h8.315v0.978h-8.315v8.315h-0.978v-8.315h-8.315v-0.978h8.315v-8.315h0.978v8.315zM23.985 24.444v-8.315h-2.935v8.315h-8.315v2.935h8.315v8.364h2.935v-8.364h8.315v-2.935h-8.315z"></path>
</svg>
