<!-- Generated by IcoMoon.io -->
<svg version="1.1" xmlns="http://www.w3.org/2000/svg" width="45" height="45" viewBox="0 0 45 45">
<title>carep-1</title>
<path d="M25.041 37.053c-2.372 0-4.294-5.341-4.294-11.929s1.923-11.929 4.294-11.929c2.372 0 4.294 5.341 4.294 11.929s-1.923 11.929-4.294 11.929zM25.041 28.464c1.318 0 2.386-1.602 2.386-3.579s-1.068-3.579-2.386-3.579c-1.318 0-2.386 1.602-2.386 3.579s1.068 3.579 2.386 3.579z"></path>
<path d="M20.778 2.891c-6.213-2.893-13.407 6.694-3.342 11.763-0.299 1.030 0 0-0.299 1.030-11.647-6.469-2.746-17.022 4.095-13.723 2.385 1.15 3.574 2.931 4.103 6.267-0.17 0-0.762 0-1.099 0-0.226-2.197-1.27-4.319-3.458-5.337z"></path>
<path d="M25.804 8.9c0 0.527-0.427 0.954-0.954 0.954s-0.954-0.427-0.954-0.954c0-0.527 0.427-0.954 0.954-0.954s0.954 0.427 0.954 0.954z"></path>
<path d="M16.412 31.777c-0.477-4.725 1.422-16.097 2.666-20.818 0.198-0.753 1.275-4.145 4.033-4.99 0.372 0.877 0.050-0.019 0.301 0.727-2.141 0.739-3.062 3.101-3.394 4.566-2.079 9.175-2.929 16.314-2.48 21.566s3.254 9.941 7.182 9.941c4.387 0 7.194-3.682 7.701-10.312 0.677-8.857-1.971-19.906-2.465-21.196-0.952-2.49-2.418-4.566-4.325-4.566-0.183-0.928 0.008 0-0.183-0.928 2.918 0 4.928 3.337 5.424 5.191 1.94 7.252 2.896 15.078 2.578 21.068-0.453 8.561-4.652 11.635-8.731 11.635-5.508 0-7.689-5.753-8.308-11.886z"></path>
</svg>
