<!-- Generated by IcoMoon.io -->
<svg version="1.1" xmlns="http://www.w3.org/2000/svg" width="45" height="45" viewBox="0 0 45 45">
<title>care-1</title>
<path d="M23.985 24.444h8.315v2.935h-8.315v8.364h-2.935v-8.364h-8.315v-2.935h8.315v-8.315h2.935v8.315zM22.414 44.523c-9.666 0-19.107-7.487-19.107-19.55 0-11.874 9.070-24.496 19.107-24.496s19.28 13.653 19.28 24.496c0 11.881-9.614 19.55-19.28 19.55zM22.518 39.607c7.564 0 13.696-6.132 13.696-13.696s-6.132-13.696-13.696-13.696c-7.564 0-13.696 6.132-13.696 13.696s6.132 13.696 13.696 13.696zM22.518 38.629c7.024 0 12.717-5.694 12.717-12.717s-5.694-12.717-12.717-12.717c-7.024 0-12.717 5.694-12.717 12.717s5.694 12.717 12.717 12.717zM22.444 3.412c-3.212 0-8.728 3.151-7.106 5.025s2.048-0.247 7.106-0.247c5.058 0 5.445 2.036 6.889 0.247s-3.677-5.025-6.889-5.025z"></path>
</svg>
