<?xml version="1.0" encoding="UTF-8" standalone="no"?>
<svg width="46px" height="43px" viewBox="0 0 46 43" version="1.1" xmlns="http://www.w3.org/2000/svg" xmlns:xlink="http://www.w3.org/1999/xlink">
    <!-- Generator: Sketch 39.1 (31720) - http://www.bohemiancoding.com/sketch -->
    <title>care-heart-1</title>
    <desc>Created with Sketch.</desc>
    <defs></defs>
    <g id="Page-1" stroke="none" stroke-width="1" fill="none" fill-rule="evenodd">
        <g id="care-heart-1" fill="#0B0B09">
            <path d="M32,13.5 L32,10.5004358 C32,10.2307968 31.7761424,10 31.5,10 C31.2319336,10 31,10.2240528 31,10.5004358 L31,13.5 L28.0004358,13.5 C27.7307968,13.5 27.5,13.7238576 27.5,14 C27.5,14.2680664 27.7240528,14.5 28.0004358,14.5 L31,14.5 L31,17.4995642 C31,17.7692032 31.2238576,18 31.5,18 C31.7680664,18 32,17.7759472 32,17.4995642 L32,14.5 L34.9995642,14.5 C35.2692032,14.5 35.5,14.2761424 35.5,14 C35.5,13.7319336 35.2759472,13.5 34.9995642,13.5 L32,13.5 Z M21.9139368,42.081958 C22.7203542,42.5627122 23.2187163,42.4500694 23.8052943,42.0819585 C27.498775,38.6358892 45.0415039,26.2043452 45.0415039,13.846029 C45.0415039,1.43170472 29.9882944,-4.06299685 22.5415039,5.19630633 C15.4931486,-4.06299709 0.0415039065,0.771117254 0.0415039062,13.846029 C0.041503906,25.4562984 18.5500242,38.8747892 21.9139368,42.081958 Z" id="Combined-Shape"></path>
        </g>
    </g>
</svg>