<!-- Generated by IcoMoon.io -->
<svg version="1.1" xmlns="http://www.w3.org/2000/svg" width="45" height="45" viewBox="0 0 45 45">
<title>co-1</title>
<path d="M22.507 0c12.415 0 22.493 10.079 22.493 22.504 0 12.418-10.079 22.496-22.493 22.496-12.429 0-22.507-10.079-22.507-22.496 0-12.425 10.078-22.504 22.507-22.504zM22.505 5.66c-9.251 0-16.753 7.506-16.753 16.754s7.502 16.746 16.753 16.746c9.241 0 16.743-7.499 16.743-16.746s-7.502-16.754-16.743-16.754z"></path>
<path d="M22.505 6.66c8.682 0 15.745 7.072 15.745 15.756s-7.063 15.748-15.745 15.748c-8.687 0-15.755-7.064-15.755-15.748s7.068-15.756 15.755-15.756zM18.25 22.505h-0.75c-0.001 0.547-0.448 0.997-1 0.997s-0.999-0.45-1-0.997c0.001-0.555 0.448-1.005 1-1.005s0.999 0.45 1 1.005h1.5c-0.001-1.387-1.12-2.505-2.5-2.505s-2.499 1.117-2.5 2.505c0 1.38 1.119 2.497 2.5 2.497s2.5-1.117 2.5-2.497h-0.75z"></path>
<path d="M18 22.5c0 0.828-0.672 1.5-1.5 1.5s-1.5-0.672-1.5-1.5c0-0.828 0.672-1.5 1.5-1.5s1.5 0.672 1.5 1.5z"></path>
</svg>
