<!-- Generated by IcoMoon.io -->
<svg version="1.1" xmlns="http://www.w3.org/2000/svg" width="45" height="45" viewBox="0 0 45 45">
<title>co-2</title>
<path d="M22.507 0c-12.429 0-22.507 10.079-22.507 22.504 0 12.418 10.078 22.496 22.507 22.496 12.415 0 22.493-10.079 22.493-22.496 0-12.425-10.079-22.504-22.493-22.504v0zM22.507 1c11.851 0 21.493 9.651 21.493 21.504s-9.642 21.496-21.493 21.496c-11.859 0-21.507-9.643-21.507-21.496s9.648-21.504 21.507-21.504v0z"></path>
<path d="M22.505 5.66c-9.251 0-16.753 7.506-16.753 16.754s7.502 16.746 16.753 16.746c9.241 0 16.743-7.499 16.743-16.746s-7.502-16.754-16.743-16.754v0zM22.505 6.66c8.682 0 15.745 7.072 15.745 15.756s-7.063 15.748-15.745 15.748c-8.687 0-15.755-7.064-15.755-15.748s7.068-15.756 15.755-15.756v0z"></path>
<path d="M18 22.505h1c-0.001 1.38-1.12 2.497-2.5 2.497s-2.5-1.117-2.5-2.497c0.001-1.387 1.119-2.505 2.5-2.505s2.5 1.117 2.5 2.505h-1c0-0.002 0-0.003 0-0.005 0-0.828-0.672-1.5-1.5-1.5s-1.5 0.672-1.5 1.5c0 0.828 0.672 1.5 1.5 1.5 0.827 0 1.497-0.669 1.5-1.495z"></path>
</svg>
