<?xml version="1.0" encoding="UTF-8" standalone="no"?>
<svg width="58px" height="58px" viewBox="0 0 58 58" version="1.1" xmlns="http://www.w3.org/2000/svg" xmlns:xlink="http://www.w3.org/1999/xlink">
    <!-- Generator: Sketch 39.1 (31720) - http://www.bohemiancoding.com/sketch -->
    <title>co-3</title>
    <desc>Created with Sketch.</desc>
    <defs></defs>
    <g id="Page-1" stroke="none" stroke-width="1" fill="none" fill-rule="evenodd">
        <g id="co-3" transform="translate(-16.000000, -16.000000)" fill="#010101">
            <g id="Layer_2">
                <g id="Layer_1-2">
                    <path d="M45,16 C28.9837423,16 16,28.9837423 16,45 C16,61.0162577 28.9837423,74 45,74 C61.0162577,74 74,61.0162577 74,45 C74,28.9837423 61.0162577,16 45,16 L45,16 Z M45,72 C30.0883118,72 18,59.9116882 18,45 C18,30.0883118 30.0883118,18 45,18 C59.9116882,18 72,30.0883118 72,45 C72,52.1608452 69.1553653,59.0284009 64.0918831,64.0918831 C59.0284009,69.1553653 52.1608452,72 45,72 L45,72 Z" id="Shape"></path>
                    <path d="M45,23.45 C33.0982636,23.45 23.45,33.0982636 23.45,45 C23.45,56.9017364 33.0982636,66.55 45,66.55 C56.9017364,66.55 66.55,56.9017364 66.55,45 C66.5444821,33.10055 56.89945,23.4555179 45,23.45 L45,23.45 Z M45,64.55 C34.2028331,64.55 25.45,55.7971669 25.45,45 C25.45,34.2028331 34.2028331,25.45 45,25.45 C55.7971669,25.45 64.55,34.2028331 64.55,45 C64.53348,55.7903166 55.7903166,64.53348 45,64.55 L45,64.55 Z" id="Shape"></path>
                    <path d="M38,41.67 C36.6522381,41.6659526 35.4349336,42.47471 34.9163605,43.7187198 C34.3977875,44.9627297 34.6802145,46.3966592 35.6317962,47.3511071 C36.5833779,48.305555 38.0164515,48.5922933 39.2620154,48.077464 C40.5075792,47.5626347 41.3199939,46.347768 41.32,45 C41.3145449,43.1670529 39.8329224,41.6809677 38,41.67 L38,41.67 Z M38,46.34 C37.2654917,46.3455019 36.6655911,45.7545327 36.6600754,45.0200245 C36.6545597,44.2855163 37.2455175,43.6856045 37.9800256,43.680075 C38.7145337,43.6745455 39.3144566,44.265492 39.32,45 C39.3146447,45.7284247 38.7283635,46.3191474 38,46.33 L38,46.34 Z" id="Shape"></path>
                </g>
            </g>
        </g>
    </g>
</svg>