<!-- Generated by IcoMoon.io -->
<svg version="1.1" xmlns="http://www.w3.org/2000/svg" width="45" height="45" viewBox="0 0 45 45">
<title>co-smoke-1</title>
<path d="M11.952 4.714c0 2.604-2.111 4.714-4.714 4.714s-4.714-2.111-4.714-4.714c0-2.604 2.111-4.714 4.714-4.714s4.714 2.111 4.714 4.714z"></path>
<path d="M24.036 4.714c0 2.597-2.105 4.702-4.702 4.702s-4.702-2.105-4.702-4.702c0-2.597 2.105-4.702 4.702-4.702s4.702 2.105 4.702 4.702z"></path>
<path d="M36.143 4.714c0 2.604-2.111 4.714-4.714 4.714s-4.714-2.111-4.714-4.714c0-2.604 2.111-4.714 4.714-4.714s4.714 2.111 4.714 4.714z"></path>
<path d="M11.952 28.44c0 2.604-2.111 4.714-4.714 4.714s-4.714-2.111-4.714-4.714c0-2.604 2.111-4.714 4.714-4.714s4.714 2.111 4.714 4.714z"></path>
<path d="M24.036 28.44c0 2.597-2.105 4.702-4.702 4.702s-4.702-2.105-4.702-4.702c0-2.597 2.105-4.702 4.702-4.702s4.702 2.105 4.702 4.702z"></path>
<path d="M36.143 28.44c0 2.604-2.111 4.714-4.714 4.714s-4.714-2.111-4.714-4.714c0-2.604 2.111-4.714 4.714-4.714s4.714 2.111 4.714 4.714z"></path>
<path d="M18.286 16.583c0 2.597-2.105 4.702-4.702 4.702s-4.702-2.105-4.702-4.702c0-2.597 2.105-4.702 4.702-4.702s4.702 2.105 4.702 4.702z"></path>
<path d="M30.381 16.583c0 2.597-2.105 4.702-4.702 4.702s-4.702-2.105-4.702-4.702c0-2.597 2.105-4.702 4.702-4.702s4.702 2.105 4.702 4.702z"></path>
<path d="M42.476 16.583c0 2.597-2.105 4.702-4.702 4.702s-4.702-2.105-4.702-4.702c0-2.597 2.105-4.702 4.702-4.702s4.702 2.105 4.702 4.702z"></path>
<path d="M18.286 40.298c0 2.597-2.105 4.702-4.702 4.702s-4.702-2.105-4.702-4.702c0-2.597 2.105-4.702 4.702-4.702s4.702 2.105 4.702 4.702z"></path>
<path d="M30.381 40.298c0 2.597-2.105 4.702-4.702 4.702s-4.702-2.105-4.702-4.702c0-2.597 2.105-4.702 4.702-4.702s4.702 2.105 4.702 4.702z"></path>
<path d="M42.476 40.298c0 2.597-2.105 4.702-4.702 4.702s-4.702-2.105-4.702-4.702c0-2.597 2.105-4.702 4.702-4.702s4.702 2.105 4.702 4.702z"></path>
</svg>
