<!-- Generated by IcoMoon.io -->
<svg version="1.1" xmlns="http://www.w3.org/2000/svg" width="45" height="45" viewBox="0 0 45 45">
<title>co-smoke-2</title>
<path d="M7.256 1.137c1.972 0 3.571 1.599 3.571 3.571s-1.599 3.571-3.571 3.571c-1.972 0-3.571-1.599-3.571-3.571s1.599-3.571 3.571-3.571zM7.256-0.054c-2.63 0-4.762 2.132-4.762 4.762s2.132 4.762 4.762 4.762c2.63 0 4.762-2.132 4.762-4.762s-2.132-4.762-4.762-4.762z"></path>
<path d="M19.304 1.137c1.972 0 3.571 1.599 3.571 3.571s-1.599 3.571-3.571 3.571c-1.972 0-3.571-1.599-3.571-3.571s1.599-3.571 3.571-3.571zM19.304-0.054c-2.63 0-4.762 2.132-4.762 4.762s2.132 4.762 4.762 4.762c2.63 0 4.762-2.132 4.762-4.762s-2.132-4.762-4.762-4.762z"></path>
<path d="M31.399 1.137c1.972 0 3.571 1.599 3.571 3.571s-1.599 3.571-3.571 3.571c-1.972 0-3.571-1.599-3.571-3.571s1.599-3.571 3.571-3.571zM31.399-0.054c-2.63 0-4.762 2.132-4.762 4.762s2.132 4.762 4.762 4.762c2.63 0 4.762-2.132 4.762-4.762s-2.132-4.762-4.762-4.762z"></path>
<path d="M7.256 24.863c1.972 0 3.571 1.599 3.571 3.571s-1.599 3.571-3.571 3.571c-1.972 0-3.571-1.599-3.571-3.571s1.599-3.571 3.571-3.571zM7.256 23.673c-2.63 0-4.762 2.132-4.762 4.762s2.132 4.762 4.762 4.762c2.63 0 4.762-2.132 4.762-4.762s-2.132-4.762-4.762-4.762z"></path>
<path d="M19.304 24.863c1.972 0 3.571 1.599 3.571 3.571s-1.599 3.571-3.571 3.571c-1.972 0-3.571-1.599-3.571-3.571s1.599-3.571 3.571-3.571zM19.304 23.673c-2.63 0-4.762 2.132-4.762 4.762s2.132 4.762 4.762 4.762c2.63 0 4.762-2.132 4.762-4.762s-2.132-4.762-4.762-4.762z"></path>
<path d="M31.399 24.863c1.972 0 3.571 1.599 3.571 3.571s-1.599 3.571-3.571 3.571c-1.972 0-3.571-1.599-3.571-3.571s1.599-3.571 3.571-3.571zM31.399 23.673c-2.63 0-4.762 2.132-4.762 4.762s2.132 4.762 4.762 4.762c2.63 0 4.762-2.132 4.762-4.762s-2.132-4.762-4.762-4.762z"></path>
<path d="M13.554 13.042c1.972 0 3.571 1.599 3.571 3.571s-1.599 3.571-3.571 3.571c-1.972 0-3.571-1.599-3.571-3.571s1.599-3.571 3.571-3.571zM13.554 11.851c-2.63 0-4.762 2.132-4.762 4.762s2.132 4.762 4.762 4.762c2.63 0 4.762-2.132 4.762-4.762s-2.132-4.762-4.762-4.762z"></path>
<path d="M25.649 13.042c1.972 0 3.571 1.599 3.571 3.571s-1.599 3.571-3.571 3.571c-1.972 0-3.571-1.599-3.571-3.571s1.599-3.571 3.571-3.571zM25.649 11.851c-2.63 0-4.762 2.132-4.762 4.762s2.132 4.762 4.762 4.762c2.63 0 4.762-2.132 4.762-4.762s-2.132-4.762-4.762-4.762z"></path>
<path d="M37.744 13.042c1.972 0 3.571 1.599 3.571 3.571s-1.599 3.571-3.571 3.571c-1.972 0-3.571-1.599-3.571-3.571s1.599-3.571 3.571-3.571zM37.744 11.851c-2.63 0-4.762 2.132-4.762 4.762s2.132 4.762 4.762 4.762c2.63 0 4.762-2.132 4.762-4.762s-2.132-4.762-4.762-4.762z"></path>
<path d="M13.554 36.72c1.972 0 3.571 1.599 3.571 3.571s-1.599 3.571-3.571 3.571c-1.972 0-3.571-1.599-3.571-3.571s1.599-3.571 3.571-3.571zM13.554 35.53c-2.63 0-4.762 2.132-4.762 4.762s2.132 4.762 4.762 4.762c2.63 0 4.762-2.132 4.762-4.762s-2.132-4.762-4.762-4.762z"></path>
<path d="M25.649 36.72c1.972 0 3.571 1.599 3.571 3.571s-1.599 3.571-3.571 3.571c-1.972 0-3.571-1.599-3.571-3.571s1.599-3.571 3.571-3.571zM25.649 35.53c-2.63 0-4.762 2.132-4.762 4.762s2.132 4.762 4.762 4.762c2.63 0 4.762-2.132 4.762-4.762s-2.132-4.762-4.762-4.762z"></path>
<path d="M37.744 36.72c1.972 0 3.571 1.599 3.571 3.571s-1.599 3.571-3.571 3.571c-1.972 0-3.571-1.599-3.571-3.571s1.599-3.571 3.571-3.571zM37.744 35.53c-2.63 0-4.762 2.132-4.762 4.762s2.132 4.762 4.762 4.762c2.63 0 4.762-2.132 4.762-4.762s-2.132-4.762-4.762-4.762z"></path>
</svg>
