<!-- Generated by IcoMoon.io -->
<svg version="1.1" xmlns="http://www.w3.org/2000/svg" width="45" height="45" viewBox="0 0 45 45">
<title>contact-2</title>
<path d="M20.2 2.5c-1.093 1.41-2.755 2.334-4.636 2.424-1.906-0.092-3.565-1.015-4.645-2.41-0.088-0.104-0.201-0.16-0.327-0.16-0.23 0-0.417 0.187-0.417 0.417 0 0.104 0.038 0.198 0.101 0.271 1.242 1.59 3.129 2.627 5.26 2.716 2.167-0.092 4.058-1.139 5.285-2.725 0.105-0.093 0.163-0.208 0.163-0.337 0-0.23-0.187-0.417-0.417-0.417-0.159 0-0.297 0.089-0.367 0.219z"></path>
<path d="M21.667 27.5h-12.5c-0.23 0-0.417 0.187-0.417 0.417s0.187 0.417 0.417 0.417h12.5c0.23 0 0.417-0.187 0.417-0.417s-0.187-0.417-0.417-0.417z"></path>
<path d="M17.558-0h-3.808c-3.203 0.046-5.787 2.63-5.833 5.829l-0 33.454c0.24 3.096 2.725 5.54 5.817 5.716l3.558 0.001c0.008 0 0.017 0 0.026 0 3.093 0 5.6-2.507 5.6-5.6 0-0.041-0-0.082-0.001-0.123l0-33.861c0.003-0.020 0.005-0.043 0.005-0.067s-0.002-0.047-0.006-0.069c-0.21-2.852-2.495-5.111-5.342-5.28zM17.325 44.167h-3.575c-1.346-0.034-2.555-0.595-3.433-1.483 0.067 0.050 0.151 0.080 0.243 0.080 0.122 0 0.231-0.053 0.306-0.138 1.095-1.432 2.771-2.37 4.67-2.458 1.914 0.099 3.577 1.035 4.653 2.443 0.088 0.105 0.201 0.161 0.328 0.161 0.102 0 0.195-0.036 0.267-0.097-0.858 0.919-2.076 1.492-3.428 1.492-0.011 0-0.022-0-0.033-0zM22.083 27.917v11.367c0 0.006 0 0.013 0 0.020 0 1.277-0.484 2.44-1.279 3.317 0.070-0.078 0.111-0.176 0.111-0.283s-0.041-0.206-0.108-0.28c-1.237-1.589-3.117-2.629-5.243-2.724-2.165 0.095-4.052 1.141-5.278 2.725-0.074 0.087-0.111 0.181-0.111 0.283s0.038 0.196 0.1 0.267c-0.883-0.851-1.453-2.019-1.525-3.321l-0.001-33.455c0.042-2.745 2.255-4.958 4.996-5l3.529-0c2.664 0.037 4.81 2.205 4.81 4.875 0 0.044-0.001 0.088-0.002 0.132z"></path>
<path d="M20 30.833c-0.23 0-0.417 0.187-0.417 0.417v4.167c0 0.23 0.187 0.417 0.417 0.417s0.417-0.187 0.417-0.417v-4.167c0-0.23-0.187-0.417-0.417-0.417z"></path>
<path d="M30 30.833c-0.23 0-0.417 0.187-0.417 0.417v4.167c0 0.23 0.187 0.417 0.417 0.417s0.417-0.187 0.417-0.417v-4.167c0-0.23-0.187-0.417-0.417-0.417z"></path>
<path d="M37.083 19.508c0-1.833-1.417-2.842-4.017-2.842h-2.2c-0.090-0.008-0.194-0.013-0.299-0.013-1.792 0-3.271 1.344-3.482 3.079l-0.002 0.017c-0.005 0.023-0.007 0.048-0.007 0.075s0.003 0.052 0.008 0.078c-0 0.064-0 0.122-0 0.189v21.058c-0 0.008-0 0.016-0 0.025 0 2.098 1.689 3.801 3.781 3.825h2.244c2.155-0.035 3.898-1.752 3.975-3.893l0-21.524s0 0 0 0 0-0.058 0-0.075zM36.25 19.583v21.517c-0.085 1.685-1.45 3.024-3.138 3.067l-2.246 0c-1.633-0.042-2.941-1.371-2.95-3.007v-21.068c0-1.525 1.217-2.592 2.95-2.592h2.242c2.083 0 3.142 0.675 3.142 2.008 0 0 0 0 0 0s0 0.067 0 0.075z"></path>
</svg>
