<!-- Generated by IcoMoon.io -->
<svg version="1.1" xmlns="http://www.w3.org/2000/svg" width="45" height="45" viewBox="0 0 45 45">
<title>contact-1</title>
<path d="M9.087 39.496c0.016 0.866 0.225 1.679 0.586 2.404 1.706-1.124 3.801-1.771 6.048-1.771 2.413 0 4.652 0.747 6.498 2.023 0.418-0.765 0.696-1.659 0.715-2.616l0-10.113h-13.846zM19.471 32.019c0-0.478 0.387-0.865 0.865-0.865s0.865 0.387 0.865 0.865v4.327c0 0.478-0.387 0.865-0.865 0.865s-0.865-0.387-0.865-0.865z"></path>
<path d="M20.83 0.961c-0.925-0.602-2.058-0.961-3.273-0.961-0.002 0-0.005 0-0.007 0h-3.66c-0.017-0-0.036-0-0.056-0-1.142 0-2.193 0.391-3.027 1.047 1.453 0.688 3.147 1.095 4.936 1.095 1.852 0 3.603-0.436 5.154-1.212z"></path>
<path d="M10.601 43.313c0.651 0.792 1.543 1.364 2.564 1.603 0.236 0.052 0.471 0.080 0.712 0.084l3.681 0c0.272-0.004 0.535-0.032 0.79-0.082 1.062-0.21 2.008-0.722 2.751-1.442-1.514-1.014-3.375-1.62-5.378-1.62-1.896 0-3.665 0.542-5.161 1.481z"></path>
<path d="M15.715 3.903c-0.003 0-0.007 0-0.011 0-2.209 0-4.291-0.544-6.119-1.506-0.286 0.702-0.498 1.494-0.499 2.336v22.959h13.846v-22.959c0-0.005 0-0.010 0-0.016 0-0.927-0.292-1.786-0.788-2.49-1.832 1.059-4.036 1.675-6.384 1.675-0.016 0-0.032-0-0.048-0z"></path>
<path d="M32.452 15.906h-2.008c-1.902 0.024-3.437 1.56-3.462 3.459l-0 21.637c0.024 1.902 1.56 3.437 3.459 3.462l2.010 0c1.902-0.024 3.437-1.56 3.462-3.459l0-21.637c-0.024-1.902-1.56-3.437-3.459-3.462zM30.721 36.346c0 0.478-0.387 0.865-0.865 0.865s-0.865-0.387-0.865-0.865v-4.327c0-0.478 0.387-0.865 0.865-0.865s0.865 0.387 0.865 0.865z"></path>
</svg>
