<!-- Generated by IcoMoon.io -->
<svg version="1.1" xmlns="http://www.w3.org/2000/svg" width="45" height="45" viewBox="0 0 45 45">
<title>dimmer-2</title>
<path d="M10.465 20.927v3.146c0 1.726 1.409 3.136 3.147 3.136h17.776c1.749 0 3.147-1.404 3.147-3.136v-3.146c0-1.726-1.409-3.136-3.147-3.136h-17.776c-1.749 0-3.147 1.404-3.147 3.136zM11.512 20.936c0-1.159 0.944-2.099 2.087-2.099h17.802c1.153 0 2.087 0.928 2.087 2.099v3.127c0 1.159-0.944 2.099-2.087 2.099h-17.802c-1.153 0-2.087-0.928-2.087-2.099v-3.127z"></path>
<path d="M22.5 0c0.289 0 0.523 0.234 0.523 0.523v15.698c0 0.289-0.234 0.523-0.523 0.523s-0.523-0.234-0.523-0.523v-15.698c0-0.289 0.234-0.523 0.523-0.523z"></path>
<path d="M22.5 28.256c0.289 0 0.523 0.234 0.523 0.523v15.698c0 0.289-0.234 0.523-0.523 0.523s-0.523-0.234-0.523-0.523v-15.698c0-0.289 0.234-0.523 0.523-0.523z"></path>
</svg>
