<!-- Generated by IcoMoon.io -->
<svg version="1.1" xmlns="http://www.w3.org/2000/svg" width="45" height="45" viewBox="0 0 45 45">
<title>dimmer-1</title>
<path d="M10.465 20.927c0-1.732 1.398-3.136 3.147-3.136h17.776c1.738 0 3.147 1.41 3.147 3.136v3.146c0 1.732-1.398 3.136-3.147 3.136h-17.776c-1.738 0-3.147-1.41-3.147-3.136v-3.146z"></path>
<path d="M22.5 0c0.289 0 0.523 0.234 0.523 0.523v15.698c0 0.289-0.234 0.523-0.523 0.523s-0.523-0.234-0.523-0.523v-15.698c0-0.289 0.234-0.523 0.523-0.523z"></path>
<path d="M22.5 28.256c0.289 0 0.523 0.234 0.523 0.523v15.698c0 0.289-0.234 0.523-0.523 0.523s-0.523-0.234-0.523-0.523v-15.698c0-0.289 0.234-0.523 0.523-0.523z"></path>
</svg>
