<!-- Generated by IcoMoon.io -->
<svg version="1.1" xmlns="http://www.w3.org/2000/svg" width="45" height="45" viewBox="0 0 45 45">
<title>drain-1</title>
<path d="M38.3 8.147v23.773c-0.090 5.17-2.157 10.819-7.14 12.24-1.692 0.483-4.973 0.927-7.24 0.27-2.198-0.637-4.085-2.061-5.3-4-1.591-2.684-2.363-5.774-2.22-8.89v-2.71c0.039-2.686-2.104-4.896-4.79-4.94h-0.27v-6.267l0.31 0.007c6.167 0.099 11.089 5.173 11 11.34v2.71c-0.101 1.5 0.079 3.006 0.53 4.44 0.576 1.59 2.145 2.597 3.94 2.46 4.010 0 4.41-3.5 4.46-6.76v-23.673h6.72zM38.3 7.186v-0.006h3.36l-0.050-6.94h-13.27v6.91h3.24l6.72 0.036zM10.254 23.89h-0.004v0.301l-0.001 0.049h0.001v2.29h-6.91v-11.29h6.91l0.087 2.269-0.083 6.381z"></path>
</svg>
