<?xml version="1.0" encoding="UTF-8" standalone="no"?>
<svg width="41px" height="48px" viewBox="0 0 41 48" version="1.1" xmlns="http://www.w3.org/2000/svg" xmlns:xlink="http://www.w3.org/1999/xlink">
    <!-- Generator: Sketch 39.1 (31720) - http://www.bohemiancoding.com/sketch -->
    <title>drain-3</title>
    <desc>Created with Sketch.</desc>
    <defs></defs>
    <g id="Page-1" stroke="none" stroke-width="1" fill="none" fill-rule="evenodd">
        <g id="drain-3" transform="translate(-21.000000, -23.000000)" fill="#010101">
            <g id="Layer_2">
                <g id="Layer_1-2">
                    <path d="M44.28,60.36 C43.8910712,59.0645659 43.741959,57.7090008 43.84,56.36 L43.84,53.65 C43.923824,46.8271215 38.4919112,41.2122109 31.67,41.07 L30.32,41.07 L30,41.07 L30,39.29 L21.83,39.29 L21.83,51.86 L30,51.86 L30,49.86 L30.27,49.86 L31.54,49.86 C33.5354246,49.8928837 35.1278358,51.5344986 35.1,53.53 L35.1,56.24 C34.9580621,59.6051754 35.8026829,62.9384732 37.53,65.83 C39.5632714,69.0112044 43.1052708,70.9053218 46.88,70.83 L47.11,70.83 C50.8601035,70.9374136 54.4177964,69.1716883 56.6,66.12 C58.5062431,63.3274855 59.5177015,60.0210629 59.5,56.64 L59.5,31.38 L61.24,31.38 L61.24,23.22 L48.62,23.22 L48.62,31.38 L50.26,31.38 L50.26,56.52 C50.19,60.63 49.39,62.03 47.05,62.03 L47,62.03 C45.8079849,62.2082441 44.6604032,61.5036627 44.28,60.36 L44.28,60.36 Z M28,49.86 L23.83,49.86 L23.83,41.29 L28,41.29 L28,49.86 Z M50.62,25.22 L59.19,25.22 L59.19,29.36 L50.62,29.36 L50.62,25.22 Z M47.05,64 C52.14,64 52.22,58.94 52.26,56.49 L52.26,31.38 L57.45,31.38 L57.45,56.6 C57.36,62.53 54.29,68.83 47.05,68.83 L46.85,68.83 C39.48,68.7 37,62.27 37,56.28 L37,53.57 C37.0445269,50.4698804 34.5700469,47.9193314 31.47,47.87 L30.2,47.87 L30.2,43.05 L31.54,43.05 C34.3211303,43.0709365 36.9784787,44.2028212 38.9205225,46.1936978 C40.8625664,48.1845745 41.9281227,50.8692073 41.88,53.65 L41.88,56.36 C41.88,58.82 41.76,63.95 46.97,64.03 L47.05,64 Z" id="Shape"></path>
                </g>
            </g>
        </g>
    </g>
</svg>