<!-- Generated by IcoMoon.io -->
<svg version="1.1" xmlns="http://www.w3.org/2000/svg" width="45" height="45" viewBox="0 0 45 45">
<title>drain-2</title>
<path d="M41.61 0.24l0.050 6.94h-3.36v24.74c-0.090 5.17-2.157 10.819-7.14 12.24-1.692 0.483-4.973 0.927-7.24 0.27-2.198-0.637-4.085-2.061-5.3-4-1.591-2.684-2.363-5.774-2.22-8.89v-2.71c0.039-2.686-2.104-4.896-4.79-4.94h-1.36v2.64h-6.91v-11.29h6.91l0.090 2.36 1.31 0.030c6.167 0.099 11.089 5.173 11 11.34v2.71c-0.101 1.5 0.079 3.006 0.53 4.44 0.576 1.59 2.145 2.597 3.94 2.46 4.010 0 4.41-3.5 4.46-6.76v-24.67h-3.24v-6.91h13.27zM9.5 25.78v-9.82h-5.41v9.82h5.41zM37.52 31.89l0.040-24.65h-5.19v24.57c-0.040 2.45-0.12 7.51-5.21 7.51h-0.12c-5.21-0.080-5.090-5.21-5.090-7.67v-2.71c0.045-2.767-1.012-5.439-2.938-7.425s-4.564-3.125-7.332-3.165h-1.34v4.79l1.25 0.020c3.1 0.049 5.575 2.6 5.53 5.7v2.71c-0.090 5.19 1.995 10.589 7.19 12.19 1.901 0.586 4.010 0.516 6.41-0.25 5.116-1.634 6.72-6.79 6.8-11.62zM29.080 6.4h11.8v-5.41h-11.8v5.41z"></path>
</svg>
