<?xml version="1.0" encoding="UTF-8" standalone="no"?>
<svg width="45px" height="31px" viewBox="0 0 45 31" version="1.1" xmlns="http://www.w3.org/2000/svg" xmlns:xlink="http://www.w3.org/1999/xlink">
    <!-- Generator: Sketch 39.1 (31720) - http://www.bohemiancoding.com/sketch -->
    <title>energy-1</title>
    <desc>Created with Sketch.</desc>
    <defs></defs>
    <g id="Page-1" stroke="none" stroke-width="1" fill="none" fill-rule="evenodd">
        <g id="energy-1" fill="#0B0B09">
            <path d="M26,0 L33,0 L33,31 L26,31 L26,0 Z M27,1 L32,1 L32,30 L27,30 L27,1 Z" id="Combined-Shape"></path>
            <path d="M0,8 L7,8 L7,31 L0,31 L0,8 Z M1,9 L6,9 L6,30 L1,30 L1,9 Z" id="Combined-Shape"></path>
            <path d="M13,14 L20,14 L20,31 L13,31 L13,14 Z M14,15 L19,15 L19,30 L14,30 L14,15 Z" id="Combined-Shape"></path>
            <path d="M38,19 L45,19 L45,31 L38,31 L38,19 Z M39,20 L44,20 L44,30 L39,30 L39,20 Z" id="Combined-Shape"></path>
        </g>
    </g>
</svg>