<?xml version="1.0" encoding="UTF-8" standalone="no"?>
<svg width="45px" height="34px" viewBox="0 0 45 34" version="1.1" xmlns="http://www.w3.org/2000/svg" xmlns:xlink="http://www.w3.org/1999/xlink">
    <!-- Generator: Sketch 39.1 (31720) - http://www.bohemiancoding.com/sketch -->
    <title>family-2</title>
    <desc>Created with Sketch.</desc>
    <defs></defs>
    <g id="Page-1" stroke="none" stroke-width="1" fill="none" fill-rule="evenodd">
        <g id="family-2" fill="#0B0B09">
            <path d="M9,16 C11.209139,16 13,13.7614237 13,11 C13,8.23857625 11.209139,6 9,6 C6.790861,6 5,8.23857625 5,11 C5,13.7614237 6.790861,16 9,16 Z M9,15 C10.6568542,15 12,13.209139 12,11 C12,8.790861 10.6568542,7 9,7 C7.34314575,7 6,8.790861 6,11 C6,13.209139 7.34314575,15 9,15 Z" id="Combined-Shape"></path>
            <path d="M17.2338867,17.2277832 C18.7407227,18.4272461 22.6030273,20.6706543 27.6315918,17.2277832 C31.6970215,18.34375 35.6279297,25.1203613 35.3757324,26.9099121 C26.1982422,39.958252 10.2558594,29.581543 9.53833008,27.4355469 C9.53833008,23.4025879 15.4069824,17.503418 17.2338867,17.2277832 Z M17.0059814,18.3201904 C18.3962925,19.3711961 23.1944052,21.3369383 27.8341064,18.3201904 C31.4295654,19.5645752 34.6731243,25.2418779 34.4404297,26.8099365 C25.9726426,38.243287 11.4343262,29.2548828 10.5083008,27.0612793 C11.1703429,23.0385742 15.3530273,19.0830078 17.0059814,18.3201904 Z" id="Combined-Shape"></path>
            <path d="M36,16 C38.209139,16 40,13.7614237 40,11 C40,8.23857625 38.209139,6 36,6 C33.790861,6 32,8.23857625 32,11 C32,13.7614237 33.790861,16 36,16 Z M36,15 C37.6568542,15 39,13.209139 39,11 C39,8.790861 37.6568542,7 36,7 C34.3431458,7 33,8.790861 33,11 C33,13.209139 34.3431458,15 36,15 Z" id="Combined-Shape"></path>
            <path d="M22.5,16 C26.0898509,16 29,12.418278 29,8 C29,3.581722 26.0898509,0 22.5,0 C18.9101491,0 16,3.581722 16,8 C16,12.418278 18.9101491,16 22.5,16 Z M22.5,15 C25.5375661,15 28,11.8659932 28,8 C28,4.13400675 25.5375661,1 22.5,1 C19.4624339,1 17,4.13400675 17,8 C17,11.8659932 19.4624339,15 22.5,15 Z" id="Combined-Shape"></path>
            <path d="M5.46337891,17.2097168 C5.46337891,18.8950195 10.7861328,16.9572754 12.5825195,17.5336914 C11.6010742,18.7028809 7.49609375,21.8411865 6.32446289,26.4726562 C4.57666016,26.8708496 0.490234375,24.0393066 0.490234375,22.3818359 C1.3815918,19.8188477 3.81494141,17.2097168 5.46337891,17.2097168 Z M4.86560059,18.1187744 C5.37145996,19.2127686 8.81640625,18.4359131 10.6782227,18.2611084 C9.85928866,19.1787742 6.61459081,21.8436419 5.63696289,25.4787598 C4.18762207,25.4787598 1.7322998,23.6323242 1.35961914,22.3670654 C2.28100586,20.3043213 3.4983983,18.6727295 4.86560059,18.1187744 Z" id="Combined-Shape"></path>
            <path d="M39.1191406,17 C39.1191406,18.6853027 33.7963867,16.7475586 32,17.3239746 C32.9814453,18.4931641 37.0864258,21.6314697 38.2580566,26.2629395 C40.0058594,26.6611328 44.0922852,23.8295898 44.0922852,22.1721191 C43.2009277,19.6091309 40.7675781,17 39.1191406,17 Z M39.8126221,18 C39.3067627,19.0939941 35.8618164,18.3171387 34,18.142334 C34.818934,19.0599998 38.0636318,21.7248675 39.0412598,25.3599854 C40.4906006,25.3599854 42.9459229,23.5135498 43.3186035,22.248291 C42.3972168,20.1855469 41.1798244,18.5539551 39.8126221,18 Z" id="Combined-Shape"></path>
        </g>
    </g>
</svg>