<?xml version="1.0" encoding="UTF-8" standalone="no"?>
<svg width="45px" height="34px" viewBox="0 0 45 34" version="1.1" xmlns="http://www.w3.org/2000/svg" xmlns:xlink="http://www.w3.org/1999/xlink">
    <!-- Generator: Sketch 39.1 (31720) - http://www.bohemiancoding.com/sketch -->
    <title>family-1</title>
    <desc>Created with Sketch.</desc>
    <defs></defs>
    <g id="Page-1" stroke="none" stroke-width="1" fill="none" fill-rule="evenodd">
        <g id="family-1" fill="#0B0B09">
            <ellipse id="Oval-10" cx="9" cy="11" rx="4" ry="5"></ellipse>
            <path d="M17.2338867,17.2277832 C18.7407227,18.4272461 22.6030273,20.6706543 27.6315918,17.2277832 C31.6970215,18.34375 35.6279297,25.1203613 35.3757324,26.9099121 C26.1982422,39.958252 10.2558594,29.581543 9.53833008,27.4355469 C9.53833008,23.4025879 15.4069824,17.503418 17.2338867,17.2277832 Z" id="Rectangle-30"></path>
            <ellipse id="Oval-9" cx="36" cy="11" rx="4" ry="5"></ellipse>
            <ellipse id="o" cx="22.5" cy="8" rx="6.5" ry="8"></ellipse>
            <path d="M5.46337891,17.2097168 C5.46337891,18.8950195 10.7861328,16.9572754 12.5825195,17.5336914 C11.6010742,18.7028809 7.49609375,21.8411865 6.32446289,26.4726562 C4.57666016,26.8708496 0.490234375,24.0393066 0.490234375,22.3818359 C1.3815918,19.8188477 3.81494141,17.2097168 5.46337891,17.2097168 Z" id="Rectangle-31"></path>
            <path d="M36.9731445,17 C36.9731445,18.6853027 42.2958984,16.7475586 44.0922852,17.3239746 C43.1108398,18.4931641 39.0058594,21.6314697 37.8342285,26.2629395 C36.0864258,26.6611328 32,23.8295898 32,22.1721191 C32.8913574,19.6091309 35.324707,17 36.9731445,17 Z" id="Rectangle-31" transform="translate(38.046143, 21.650431) scale(-1, 1) translate(-38.046143, -21.650431) "></path>
        </g>
    </g>
</svg>