<!-- Generated by IcoMoon.io -->
<svg version="1.1" xmlns="http://www.w3.org/2000/svg" width="45" height="45" viewBox="0 0 45 45">
<title>fan-2</title>
<path d="M11.204 3.381c4.931 4.985 6.463 9.214 6.849 15.074 2.821-1.398 6.323 0 6.323 0s0-15.045 0-15.816c-1.825-3.393-11.21-3.625-13.173-0.046-0.124 0.225-0.151 0.507 0 0.788zM12.457 3.245c-0.127-0.249-0.108-0.391 0-0.583 1.013-1.657 8.387-2.475 10.869 0.192v14.241c0 0-1.97-0.625-4.261 0-0.325-5.19-2.96-10.48-6.607-13.85z"></path>
<path d="M43.866 31.253c-7.004 0.329-11.172-1.362-15.785-4.996-0.848 3.031-4.231 4.699-4.231 4.699s11.181 10.067 11.754 10.583c3.742 0.914 10.195-5.905 8.848-9.759-0.085-0.243-0.276-0.452-0.586-0.527zM43.101 32.214c0.27 0.072 0.363 0.181 0.433 0.39 0.553 1.861-3.773 7.889-7.415 7.949l-10.583-9.529c0 0 1.783-1.046 2.851-3.167 4.074 3.231 9.769 4.812 14.714 4.357z"></path>
<path d="M8.565 44.562c1.495-6.851 4.208-10.439 8.912-13.954-2.709-1.604-3.444-5.303-3.444-5.303s-12.618 8.194-13.265 8.614c-1.851 3.378 3.065 11.376 7.136 11.073 0.256-0.019 0.508-0.149 0.661-0.429zM7.832 43.439c-0.139 0.243-0.269 0.304-0.489 0.318-1.941 0.053-6.643-5.686-5.759-9.22l11.944-7.756c0 0 0.549 1.993 2.321 3.574-4.176 3.099-7.177 8.19-8.017 13.085z"></path>
<path d="M21.215 30.048c-2.91 0-5.27-2.359-5.27-5.27s2.359-5.27 5.27-5.27c2.91 0 5.27 2.359 5.27 5.27s-2.359 5.27-5.27 5.27zM21.215 28.994c2.328 0 4.216-1.887 4.216-4.216s-1.887-4.216-4.216-4.216c-2.328 0-4.216 1.887-4.216 4.216s1.887 4.216 4.216 4.216z"></path>
</svg>
