<!-- Generated by IcoMoon.io -->
<svg version="1.1" xmlns="http://www.w3.org/2000/svg" width="45" height="45" viewBox="0 0 45 45">
<title>fan-1</title>
<path d="M11.204 3.381c-0.151-0.281-0.124-0.563 0-0.788 1.963-3.579 11.348-3.347 13.173 0.046 0 0.771 0 15.816 0 15.816s-3.503-1.398-6.323 0c-0.386-5.859-1.918-10.089-6.849-15.074z"></path>
<path d="M43.866 31.252c0.31 0.076 0.501 0.285 0.586 0.527 1.346 3.853-5.106 10.673-8.848 9.759-0.573-0.516-11.754-10.583-11.754-10.583s3.383-1.668 4.231-4.699c4.613 3.634 8.781 5.325 15.785 4.996z"></path>
<path d="M8.566 44.562c-0.153 0.28-0.405 0.41-0.661 0.429-4.070 0.303-8.987-7.694-7.136-11.073 0.647-0.42 13.264-8.614 13.264-8.614s0.735 3.699 3.444 5.303c-4.704 3.515-7.416 7.103-8.912 13.954z"></path>
<path d="M26.485 24.778c0 2.91-2.359 5.27-5.27 5.27s-5.27-2.359-5.27-5.27c0-2.91 2.359-5.27 5.27-5.27s5.27 2.359 5.27 5.27z"></path>
</svg>
