<!-- Generated by IcoMoon.io -->
<svg version="1.1" xmlns="http://www.w3.org/2000/svg" width="45" height="45" viewBox="0 0 45 45">
<title>flame-1</title>
<path d="M26.071 20.823c-0.607-2.998-1.055-6.561-1.245-10.192-0.047-0.904-0.069-1.745-0.069-2.591 0-2.206 0.152-4.377 0.446-6.502-0.004 0.094 0.010-0.081 0.010-0.259 0-0.148-0.009-0.293-0.028-0.436-0.070-0.447-0.246-0.726-0.521-0.816-0.17-0.056-0.444-0.054-0.771 0.274-0.838 0.821-1.584 1.73-2.226 2.713-2.006 3.175-3.070 7.145-3.225 11.866-0.009 0.324-0.015 0.705-0.015 1.088 0 2.129 0.168 4.218 0.49 6.257 0.103 0.653 0.256 1.533 0.403 2.385 0.113 0.654 0.228 1.308 0.333 1.966 0.57 3.283 0.898 7.066 0.902 10.924v0.004c0 0.001 0 0.003 0 0.004 0 1.471-0.086 2.921-0.254 4.347-0.025 0.196-0.079 0.57-0.13 0.931s-0.095 0.678-0.137 1.019c-0.057 0.488 0.052 0.88 0.303 1.074 0.094 0.074 0.215 0.119 0.345 0.119 0.001 0 0.001 0 0.002 0 0.083-0.001 0.162-0.017 0.234-0.047 0.179-0.070 0.337-0.171 0.47-0.296 1.434-1.389 2.598-3.048 3.413-4.896 1.625-3.627 2.273-7.773 2.021-12.784-0.128-2.274-0.396-4.385-0.799-6.448z"></path>
<path d="M13.135 14.104c-0.040-0.563-0.063-1.219-0.063-1.881 0-0.74 0.029-1.473 0.085-2.199 0.059-0.637 0.155-1.38 0.246-2.098l0.042-0.379c0.014-0.072 0.022-0.156 0.022-0.241 0-0.28-0.087-0.54-0.235-0.754-0.083-0.121-0.216-0.208-0.371-0.233-0.016-0.001-0.031-0.002-0.046-0.002-0.187 0-0.357 0.072-0.483 0.19-0.224 0.176-0.44 0.374-0.62 0.547-2.628 2.505-3.988 6.108-4.015 10.712-0 0.017-0 0.038-0 0.058 0 1.893 0.207 3.737 0.6 5.511 0.49 2.289 1.039 5.224 1.158 8.368 0.016 0.351 0.025 0.762 0.025 1.175 0 1.188-0.076 2.358-0.224 3.505-0.033 0.231-0.093 0.592-0.148 0.942-0.026 0.157-0.050 0.309-0.073 0.456v0.048c0 0.367 0.089 0.61 0.266 0.749 0.083 0.064 0.188 0.103 0.303 0.103 0.002 0 0.003 0 0.005-0 0.053-0 0.104-0.008 0.153-0.021 0.226-0.066 0.425-0.176 0.592-0.322 0.929-0.785 1.718-1.7 2.348-2.724 1.439-2.348 2.151-5.202 2.145-8.508-0.003-1.76-0.187-3.475-0.534-5.13-0.526-2.511-1.028-5.131-1.176-7.874z"></path>
<path d="M36.792 21.836c-0.442-2.309-0.91-5.048-1.043-7.868-0.029-0.517-0.045-1.122-0.045-1.731 0-1.056 0.050-2.101 0.147-3.132 0.032-0.298 0.085-0.736 0.139-1.158 0.024-0.198 0.048-0.384 0.069-0.577v-0.036c0-0.488-0.145-0.84-0.414-0.967-0.066-0.030-0.144-0.047-0.225-0.047-0.157 0-0.299 0.064-0.401 0.168-0.312 0.27-0.596 0.55-0.86 0.847-2.232 2.51-3.377 6.007-3.391 10.397-0 0.039-0 0.086-0 0.132 0 1.747 0.165 3.454 0.481 5.109 0.484 2.584 0.919 5.077 1.065 7.721 0.045 0.622 0.071 1.349 0.071 2.081 0 0.791-0.030 1.575-0.089 2.351-0.047 0.525-0.128 1.159-0.21 1.774-0.032 0.252-0.065 0.503-0.097 0.755-0.065 0.537 0.089 0.793 0.232 0.902 0.088 0.073 0.201 0.117 0.325 0.117 0.001 0 0.003 0 0.004 0 0.071-0.002 0.139-0.014 0.203-0.037 0.15-0.053 0.283-0.137 0.392-0.245l0.075-0.073c0.25-0.244 0.509-0.495 0.757-0.779 2.18-2.505 3.3-5.974 3.328-10.306 0-0.023 0-0.051 0-0.078 0-1.882-0.186-3.72-0.541-5.497z"></path>
</svg>
