<!-- Generated by IcoMoon.io -->
<svg version="1.1" xmlns="http://www.w3.org/2000/svg" width="45" height="45" viewBox="0 0 45 45">
<title>flame-2</title>
<path d="M20.685 45c-0.153-0-0.294-0.053-0.406-0.141-0.277-0.214-0.393-0.636-0.338-1.157 0.041-0.339 0.089-0.679 0.136-1.016s0.103-0.73 0.146-1.097c0.151-1.243 0.237-2.683 0.237-4.143v-0c-0.004-3.84-0.33-7.6-0.951-11.26-0.049-0.259-0.161-0.91-0.276-1.561-0.148-0.848-0.3-1.727-0.432-2.601-0.293-1.811-0.461-3.898-0.461-6.024 0-0.38 0.005-0.758 0.016-1.135 0.145-4.66 1.218-8.626 3.187-11.742 0.681-1.052 1.43-1.966 2.269-2.79 0.364-0.364 0.673-0.364 0.871-0.3 0.312 0.101 0.509 0.405 0.592 0.904 0.017 0.13 0.027 0.28 0.027 0.432 0 0.183-0.014 0.362-0.041 0.537-0.263 1.849-0.414 4.007-0.414 6.201 0 0.84 0.022 1.675 0.066 2.504 0.192 3.678 0.636 7.22 1.318 10.677 0.276 1.291 0.543 3.402 0.664 5.55 0.262 5.119-0.389 9.262-1.968 12.788-0.863 1.95-2.031 3.612-3.463 5.004-0.145 0.136-0.312 0.243-0.496 0.316-0.090 0.036-0.182 0.055-0.279 0.055-0.001 0-0.003 0-0.004 0zM21.247 37.439c-0 1.495-0.088 2.969-0.26 4.418-0.026 0.201-0.080 0.578-0.131 0.941-0.047 0.331-0.095 0.663-0.134 0.998-0.007 0.044-0.011 0.096-0.011 0.148 0 0.083 0.011 0.164 0.031 0.242 0.063-0.039 0.118-0.078 0.167-0.123 1.364-1.323 2.471-2.903 3.246-4.662 1.57-3.504 2.196-7.528 1.945-12.395-0.125-2.234-0.387-4.309-0.783-6.336-0.56-2.727-1.004-6.308-1.19-9.958-0.047-0.907-0.070-1.757-0.070-2.611 0-2.23 0.154-4.424 0.452-6.572-0.008 0.126 0.004-0.016 0.004-0.161 0-0.109-0.007-0.216-0.019-0.322-0.012-0.073-0.032-0.149-0.060-0.222-0.020 0.026-0.040 0.044-0.059 0.063-0.8 0.782-1.511 1.65-2.121 2.589-1.93 3.050-2.96 6.886-3.102 11.46-0.009 0.318-0.015 0.693-0.015 1.068 0 2.082 0.164 4.126 0.48 6.12 0.101 0.646 0.253 1.518 0.399 2.362 0.112 0.655 0.227 1.308 0.331 1.973 0.573 3.297 0.903 7.098 0.908 10.974z"></path>
<path d="M9.657 38.706c-0.001 0-0.003 0-0.005 0-0.136 0-0.262-0.046-0.362-0.123-0.196-0.155-0.301-0.425-0.303-0.822v-0.063c0.024-0.148 0.047-0.3 0.073-0.454 0.055-0.347 0.114-0.708 0.162-1.071 0.132-1.001 0.207-2.159 0.207-3.334 0-0.412-0.009-0.823-0.028-1.231-0.112-3.066-0.657-5.982-1.182-8.427-0.355-1.591-0.559-3.418-0.559-5.292 0-0.036 0-0.072 0-0.108 0.028-4.606 1.381-8.217 4.031-10.729 0.182-0.172 0.395-0.373 0.624-0.551 0.144-0.129 0.335-0.209 0.544-0.209 0.017 0 0.033 0 0.050 0.001 0.182 0.028 0.338 0.13 0.438 0.274 0.159 0.227 0.254 0.507 0.254 0.809 0 0.087-0.008 0.173-0.023 0.256l-0.046 0.368c-0.091 0.714-0.185 1.452-0.249 2.18-0.049 0.62-0.077 1.341-0.077 2.070 0 0.66 0.023 1.315 0.069 1.964 0.143 2.643 0.642 5.24 1.179 7.884 0.319 1.493 0.504 3.21 0.507 4.97 0 3.321-0.708 6.172-2.123 8.477-0.659 1.081-1.451 2.004-2.369 2.782-0.19 0.162-0.398 0.276-0.626 0.342-0.064 0.020-0.124 0.031-0.186 0.034zM9.779 37.786c0 0.026 0 0.049 0 0.069 0.065-0.038 0.121-0.077 0.173-0.122 0.867-0.736 1.603-1.595 2.19-2.555 1.364-2.217 2.039-4.936 2.031-8.107-0.003-1.704-0.181-3.364-0.517-4.967-0.519-2.516-1.024-5.146-1.174-7.932-0.041-0.575-0.065-1.246-0.065-1.922 0-0.754 0.029-1.501 0.087-2.24 0.061-0.646 0.156-1.392 0.246-2.112l0.047-0.377c0.008-0.043 0.012-0.092 0.012-0.142 0-0.086-0.013-0.169-0.038-0.247-0.178 0.168-0.375 0.337-0.537 0.491-2.484 2.358-3.757 5.777-3.785 10.166-0 0.015-0 0.032-0 0.049 0 1.835 0.201 3.623 0.583 5.343 0.494 2.311 1.047 5.271 1.163 8.454 0.015 0.342 0.024 0.742 0.024 1.145 0 1.232-0.080 2.445-0.236 3.634-0.034 0.235-0.094 0.6-0.151 0.953-0.012 0.142-0.036 0.282-0.055 0.418z"></path>
<path d="M32.498 38.702c-0.002 0-0.004 0-0.007 0-0.148 0-0.283-0.052-0.389-0.139-0.159-0.129-0.336-0.408-0.265-0.986 0.032-0.251 0.063-0.501 0.097-0.752 0.079-0.61 0.162-1.241 0.213-1.863 0.052-0.668 0.082-1.446 0.082-2.231 0-0.727-0.026-1.447-0.076-2.161-0.141-2.532-0.573-5.011-1.080-7.747-0.286-1.479-0.45-3.179-0.45-4.918 0-0.052 0-0.103 0-0.155 0.022-4.388 1.162-7.885 3.392-10.399 0.275-0.31 0.561-0.592 0.865-0.855 0.13-0.128 0.294-0.201 0.475-0.201 0.097 0 0.188 0.021 0.271 0.058 0.302 0.14 0.471 0.525 0.465 1.052v0.041q-0.034 0.288-0.071 0.574c-0.051 0.42-0.107 0.854-0.148 1.283-0.083 0.872-0.13 1.886-0.13 2.911 0 0.628 0.018 1.252 0.053 1.871 0.126 2.716 0.588 5.439 1.032 7.734 0.325 1.598 0.511 3.434 0.511 5.314 0 0.029-0 0.058-0 0.087-0.028 4.336-1.15 7.805-3.337 10.319-0.249 0.286-0.507 0.537-0.758 0.789l-0.075 0.073c-0.119 0.117-0.263 0.209-0.424 0.266-0.070 0.022-0.142 0.033-0.216 0.033-0.011 0-0.022-0-0.032-0.001zM35.286 7.188c-0.242 0.217-0.464 0.441-0.673 0.676-2.105 2.376-3.18 5.697-3.2 9.894-0 0.038-0 0.084-0 0.129 0 1.694 0.16 3.35 0.466 4.954 0.487 2.598 0.923 5.106 1.071 7.78 0.046 0.634 0.073 1.374 0.073 2.12 0 0.805-0.031 1.602-0.091 2.391-0.049 0.534-0.132 1.176-0.211 1.793-0.032 0.249-0.065 0.497-0.095 0.746-0.006 0.047-0.010 0.101-0.010 0.156v0l0.075-0.073c0.251-0.243 0.487-0.474 0.714-0.734 2.058-2.368 3.116-5.667 3.143-9.811 0-0.023 0-0.050 0-0.077 0-1.827-0.181-3.613-0.526-5.339-0.415-2.15-0.887-4.908-1.021-7.759-0.031-0.538-0.048-1.167-0.048-1.8 0-1.059 0.049-2.107 0.145-3.141 0.032-0.305 0.087-0.745 0.14-1.17 0.022-0.184 0.045-0.365 0.067-0.549-0.002-0.068-0.009-0.132-0.021-0.195z"></path>
</svg>
