<!-- Generated by IcoMoon.io -->
<svg version="1.1" xmlns="http://www.w3.org/2000/svg" width="45" height="45" viewBox="0 0 45 45">
<title>fridge-1</title>
<path d="M8 15h29v-13.501c0-0.833-0.662-1.499-1.478-1.499h-26.041c-0.815 0-1.481 0.666-1.481 1.499v13.501zM8 16v27.501c0 0.823 0.666 1.499 1.481 1.499h26.041c0.816 0 1.478-0.676 1.478-1.499v-27.501h-29zM13 9.416c0 0.319-0.224 0.584-0.5 0.584-0.275 0-0.499-0.265-0.499-0.584v-3.832c0-0.319 0.224-0.584 0.499-0.584 0.277 0 0.5 0.265 0.5 0.584v3.832zM13 29.354c0 0.364-0.224 0.646-0.5 0.646-0.275 0-0.499-0.283-0.499-0.646v-8.707c0-0.354 0.224-0.646 0.499-0.646 0.277 0 0.5 0.293 0.5 0.646v8.707z"></path>
</svg>
