<!-- Generated by IcoMoon.io -->
<svg version="1.1" xmlns="http://www.w3.org/2000/svg" width="45" height="45" viewBox="0 0 45 45">
<title>garage-bridge-1</title>
<path d="M44.697 7.78c-0.010-2.11-0.86-4.020-2.232-5.415-1.335-1.405-3.199-2.298-5.272-2.359l-29.148 0.054c-4.128 0.005-7.5 3.23-7.741 7.298l-0.001 29.927c-0.001 0.042-0.001 0.091-0.001 0.141 0 4.042 3.164 7.345 7.15 7.567l29.514 0.001c2.047-0.027 3.904-0.82 5.3-2.106 1.452-1.271 2.381-3.118 2.43-5.184zM22.511 9.869c3.205 0 5.804 2.598 5.804 5.804s-2.598 5.804-5.804 5.804c-3.205 0-5.804-2.598-5.804-5.804s2.598-5.804 5.804-5.804zM16.015 27.129c0.098-0.099 0.234-0.16 0.384-0.16s0.286 0.061 0.384 0.16c1.459 1.455 3.472 2.354 5.695 2.354s4.236-0.899 5.696-2.354c0.098-0.098 0.234-0.159 0.384-0.159 0.3 0 0.544 0.243 0.544 0.544 0 0.15-0.061 0.286-0.159 0.384-1.655 1.649-3.938 2.669-6.459 2.669s-4.804-1.020-6.459-2.669c-0.092-0.097-0.149-0.228-0.149-0.373 0-0.156 0.066-0.296 0.171-0.395zM33.491 31.99c-2.818 2.822-6.714 4.568-11.017 4.568s-8.199-1.746-11.017-4.568c-0.099-0.099-0.159-0.234-0.159-0.385 0-0.3 0.243-0.544 0.544-0.544 0.15 0 0.286 0.061 0.384 0.159 2.625 2.619 6.247 4.239 10.248 4.239s7.624-1.62 10.249-4.239c0.098-0.098 0.234-0.159 0.384-0.159 0.3 0 0.544 0.243 0.544 0.544 0 0.15-0.061 0.286-0.159 0.384z"></path>
</svg>
