<!-- Generated by IcoMoon.io -->
<svg version="1.1" xmlns="http://www.w3.org/2000/svg" width="45" height="45" viewBox="0 0 45 45">
<title>garage-2</title>
<path d="M45 20.553l-8.237-6.486v-10.037h-5.87v5.39l-8.393-6.574-22.5 17.706h5.958v21.6h33.085v-21.6h5.958zM38.064 19.575v21.6h-31.128v-21.6h-4.109l19.673-15.486 9.333 7.337v-6.417h3.913v9.577l0.372 0.294 6.016 4.735h-4.109z"></path>
<path d="M11.005 24.975v3.913h22.989v-3.913zM11.984 27.91v-1.957h21.033v1.957z"></path>
<path d="M11.005 30.551v3.913h22.989v-3.913zM11.984 33.486v-1.957h21.033v1.957z"></path>
<path d="M11.005 36.108v3.913h22.989v-3.913zM11.984 39.042v-1.957h21.033v1.957z"></path>
</svg>
