<!-- Generated by IcoMoon.io -->
<svg version="1.1" xmlns="http://www.w3.org/2000/svg" width="45" height="45" viewBox="0 0 45 45">
<title>garage-bridge-2</title>
<path d="M44.697 7.78c-0.010-2.11-0.86-4.020-2.232-5.415-1.335-1.405-3.199-2.298-5.272-2.359l-29.148 0.054c-4.128 0.005-7.5 3.23-7.741 7.298l-0.001 29.927c-0.001 0.042-0.001 0.091-0.001 0.141 0 4.042 3.164 7.345 7.15 7.567l29.514 0.001c2.047-0.027 3.904-0.82 5.3-2.106 1.452-1.271 2.381-3.118 2.43-5.184zM41.557 42.103c-1.207 1.127-2.833 1.819-4.621 1.819-0.005 0-0.010 0-0.014 0h-29.429c-3.417-0.211-6.108-3.034-6.108-6.485 0-0.050 0.001-0.099 0.002-0.149l-0-29.899c0.223-3.496 3.113-6.248 6.646-6.248 0.004 0 0.009 0 0.013 0h0.053l29.083-0.054c1.778 0.061 3.364 0.835 4.49 2.043 1.187 1.198 1.923 2.835 1.942 4.645l0 29.91c-0.045 1.764-0.838 3.334-2.072 4.412z"></path>
<path d="M22.511 22.018c3.504 0 6.345-2.841 6.345-6.345s-2.841-6.345-6.345-6.345c-3.504 0-6.345 2.841-6.345 6.345 0.006 3.502 2.843 6.339 6.344 6.345zM22.511 10.411c2.906 0 5.262 2.356 5.262 5.262s-2.356 5.262-5.262 5.262c-2.906 0-5.262-2.356-5.262-5.262 0.006-2.904 2.358-5.256 5.262-5.262z"></path>
<path d="M32.787 31.222c-2.625 2.619-6.247 4.239-10.248 4.239s-7.624-1.62-10.249-4.239c-0.098-0.098-0.234-0.159-0.384-0.159-0.3 0-0.544 0.243-0.544 0.544 0 0.15 0.061 0.286 0.159 0.384 2.818 2.822 6.714 4.568 11.017 4.568s8.199-1.746 11.017-4.568c0.099-0.099 0.159-0.234 0.159-0.385 0-0.3-0.243-0.544-0.544-0.544-0.15 0-0.286 0.061-0.384 0.159z"></path>
<path d="M22.501 30.561c0.015 0 0.033 0 0.050 0 2.518 0 4.798-1.022 6.446-2.674 0.099-0.099 0.159-0.234 0.159-0.385 0-0.3-0.243-0.544-0.544-0.544-0.15 0-0.286 0.061-0.384 0.159-1.459 1.455-3.472 2.354-5.695 2.354s-4.236-0.899-5.696-2.354c-0.098-0.098-0.234-0.159-0.384-0.159-0.3 0-0.544 0.243-0.544 0.544 0 0.15 0.061 0.286 0.159 0.384 1.645 1.649 3.919 2.67 6.431 2.674z"></path>
</svg>
