<!-- Generated by IcoMoon.io -->
<svg version="1.1" xmlns="http://www.w3.org/2000/svg" width="45" height="45" viewBox="0 0 45 45">
<title>glass-break-2</title>
<path d="M22.5 45c-12.426 0-22.5-10.074-22.5-22.5s10.074-22.5 22.5-22.5c12.426 0 22.5 10.074 22.5 22.5s-10.074 22.5-22.5 22.5zM22.5 44c11.874 0 21.5-9.626 21.5-21.5s-9.626-21.5-21.5-21.5c-11.874 0-21.5 9.626-21.5 21.5s9.626 21.5 21.5 21.5z"></path>
<path d="M23 28c-2.761 0-5-2.239-5-5s2.239-5 5-5c2.761 0 5 2.239 5 5s-2.239 5-5 5zM23 27c2.209 0 4-1.791 4-4s-1.791-4-4-4c-2.209 0-4 1.791-4 4s1.791 4 4 4z"></path>
<path d="M23 25c-1.105 0-2-0.895-2-2s0.895-2 2-2c1.105 0 2 0.895 2 2s-0.895 2-2 2zM23 24c0.552 0 1-0.448 1-1s-0.448-1-1-1c-0.552 0-1 0.448-1 1s0.448 1 1 1z"></path>
<path d="M33 20c-1.105 0-2-0.895-2-2s0.895-2 2-2c1.105 0 2 0.895 2 2s-0.895 2-2 2zM33 19c0.552 0 1-0.448 1-1s-0.448-1-1-1c-0.552 0-1 0.448-1 1s0.448 1 1 1z"></path>
<path d="M13 20c-1.105 0-2-0.895-2-2s0.895-2 2-2c1.105 0 2 0.895 2 2s-0.895 2-2 2zM13 19c0.552 0 1-0.448 1-1s-0.448-1-1-1c-0.552 0-1 0.448-1 1s0.448 1 1 1z"></path>
<path d="M23 35c-1.105 0-2-0.895-2-2s0.895-2 2-2c1.105 0 2 0.895 2 2s-0.895 2-2 2zM23 34c0.552 0 1-0.448 1-1s-0.448-1-1-1c-0.552 0-1 0.448-1 1s0.448 1 1 1z"></path>
<path d="M39.327 11.662c-3.194 5.265-26.809 7.009-32.889-0.96 2.474-3.959 8.278-7.701 16.562-7.701s13.519 4.769 16.327 8.662zM38.017 11.608c-2.606-3.376-7.436-7.609-14.965-7.609s-13.114 3.252-15.362 6.609c5.665 6.665 26.594 5.274 30.327 1z"></path>
<path d="M30.851 40.448c-4.613-6.392-2.791-20.264 11.369-21.53 1.388 9.946-4.913 17.819-11.369 21.53zM31.182 39.208c5.657-4.049 10.924-10.512 10.196-19.285-12.067 1.764-13.624 13.426-10.196 19.285z"></path>
<path d="M2.852 18.802c7.865-0.525 18.764 8.14 11.925 21.956-9.368-4.437-13.089-14.046-11.925-21.956zM3.542 19.719c-0.355 7.145 2.873 15.441 10.811 19.786 5.079-12.488-4.121-19.786-10.811-19.786z"></path>
</svg>
