<svg data-name="Layer 1" xmlns="http://www.w3.org/2000/svg" viewBox="0 0 45 45"><path d="M16.58 0h-.41a7 7 0 0 0-7 7v14.67h14.41V7a7 7 0 0 0-7-7zm6 20.67H10.17V7a6 6 0 0 1 6-6h.41a6 6 0 0 1 6 6zM9.17 38a7 7 0 0 0 7 7h.41a7 7 0 0 0 7-7V23.33H9.17zm1-13.67h12.41V38a6 6 0 0 1-6 6h-.41a6 6 0 0 1-6-6zM31.42 22.09h-.59a4.4 4.4 0 0 0-4.41 4.41v14.09A4.4 4.4 0 0 0 30.83 45h.59a4.41 4.41 0 0 0 4.41-4.41V26.5a4.41 4.41 0 0 0-4.41-4.41zm3.41 18.5A3.41 3.41 0 0 1 31.42 44h-.59a3.41 3.41 0 0 1-3.41-3.41V26.5a3.41 3.41 0 0 1 3.41-3.41h.59a3.41 3.41 0 0 1 3.41 3.41z"/><path d="M14.34 37.33h4.07a.93.93 0 1 0 0-1.85h-4.07a.93.93 0 1 0 0 1.85zM32.44 35.48h-2.63a.93.93 0 1 0 0 1.85h2.63a.93.93 0 0 0 0-1.85z"/></svg>