<svg data-name="Layer 2" xmlns="http://www.w3.org/2000/svg" viewBox="0 0 45 45"><path d="M32.07 0H12.89a6 6 0 0 0-6 6v33a6 6 0 0 0 6 6h19.18a6 6 0 0 0 6-6V6a6 6 0 0 0-6-6zm5 39a5 5 0 0 1-5 5H12.89a5 5 0 0 1-5-5V6a5 5 0 0 1 5-5h19.18a5 5 0 0 1 5 5z"/><path d="M31.59 7.65H13.37A2.38 2.38 0 0 0 11 10v2.31a2.39 2.39 0 0 0 2.38 2.38h18.21A2.39 2.39 0 0 0 34 12.34V10a2.38 2.38 0 0 0-2.41-2.35zm1.18 4.5a1.6 1.6 0 0 1-1.6 1.6H13.79a1.6 1.6 0 0 1-1.6-1.6v-1.93a1.59 1.59 0 0 1 1.6-1.6h17.38a1.59 1.59 0 0 1 1.6 1.6z"/><circle cx="15.49" cy="11.18" r="1.84"/><path d="M22.48 9.34a1.85 1.85 0 1 0 1.84 1.84 1.84 1.84 0 0 0-1.84-1.84z"/><circle cx="29.41" cy="11.18" r="1.84"/><path d="M15.49 17.46a1.84 1.84 0 1 0 1.84 1.84 1.84 1.84 0 0 0-1.84-1.84zM22.48 17.46a1.84 1.84 0 1 0 1.84 1.84 1.84 1.84 0 0 0-1.84-1.84zM29.41 17.46a1.84 1.84 0 1 0 1.84 1.84 1.84 1.84 0 0 0-1.84-1.84z"/><circle cx="15.49" cy="25.02" r="1.84"/><path d="M22.48 23.18A1.84 1.84 0 1 0 24.32 25a1.84 1.84 0 0 0-1.84-1.82z"/><circle cx="29.41" cy="25.02" r="1.84"/><circle cx="15.49" cy="30.35" r="1.84"/><path d="M22.48 28.5a1.85 1.85 0 1 0 1.84 1.85 1.84 1.84 0 0 0-1.84-1.85z"/><circle cx="29.41" cy="30.35" r="1.84"/><path d="M15.49 34a1.85 1.85 0 1 0 1.84 1.84A1.85 1.85 0 0 0 15.49 34zM22.48 34a1.85 1.85 0 1 0 1.84 1.84A1.84 1.84 0 0 0 22.48 34zM29.41 34a1.85 1.85 0 1 0 1.84 1.84A1.84 1.84 0 0 0 29.41 34z"/></svg>