<svg data-name="Layer 2" xmlns="http://www.w3.org/2000/svg" viewBox="0 0 45 45"><path d="M29.6 0H15.3a8 8 0 0 0-8 8v29.1a8 8 0 0 0 8 8h14.3a8 8 0 0 0 7.95-8V8a8 8 0 0 0-7.95-8zM15 38.74a2 2 0 1 1 2-2 2 2 0 0 1-2 2zm0-5.87a2 2 0 1 1 2-2 2 2 0 0 1-2 2zm0-5.7a2 2 0 1 1 2-2 2 2 0 0 1-2 2zm0-6.12a2 2 0 1 1 2-2 2 2 0 0 1-2 2zm7.44 17.69a2 2 0 1 1 2-2 2 2 0 0 1-1.99 2zm0-5.87a2 2 0 1 1 2-2 2 2 0 0 1-1.99 2zm0-5.7a2 2 0 1 1 2-2 2 2 0 0 1-1.99 2zm0-6.12a2 2 0 1 1 2-2 2 2 0 0 1-1.99 2zm7.47 17.69a2 2 0 1 1 2-2 2 2 0 0 1-1.99 2zm0-5.87a2 2 0 1 1 2-2 2 2 0 0 1-1.99 2zm0-5.7a2 2 0 1 1 2-2 2 2 0 0 1-1.99 2zm0-6.12a2 2 0 1 1 2-2 2 2 0 0 1-1.99 2zm.61-6.78H14.37a3.79 3.79 0 0 1 0-7.58h16.16a3.79 3.79 0 0 1 0 7.58z"/><path d="M30.94 7.73H14a2.55 2.55 0 0 0-2.55 2.55v.4A2.55 2.55 0 0 0 14 13.23h17a2.55 2.55 0 0 0 2.55-2.55v-.4a2.55 2.55 0 0 0-2.61-2.55zM15 12.29a2 2 0 1 1 2-2 2 2 0 0 1-2 2zm7.44 0a2 2 0 1 1 2-2 2 2 0 0 1-1.99 2zm7.47 0a2 2 0 1 1 2-2 2 2 0 0 1-1.99 2z"/></svg>