<svg viewBox="0 0 45 45" xmlns="http://www.w3.org/2000/svg"><path d="m23 23.48a5.4 5.4 0 1 0 5.4 5.4 5.41 5.41 0 0 0 -5.4-5.4z" fill="none"/><path d="m22.94 15.7h-.17a14 14 0 0 0 -14 14v9.3a6 6 0 0 0 6 6h16.17a6 6 0 0 0 6-6v-9.3a14 14 0 0 0 -14-14zm.06 18.58a5.4 5.4 0 1 1 5.4-5.4 5.41 5.41 0 0 1 -5.4 5.4zm12.52-27.61a.34.34 0 0 1 -.26-.11 17.57 17.57 0 0 0 -24.8 0 .37.37 0 0 1 -.53-.56 18.31 18.31 0 0 1 25.86 0 .39.39 0 0 1 0 .53.36.36 0 0 1 -.27.14zm-5.43 4.88a.38.38 0 0 1 -.26-.11 9.86 9.86 0 0 0 -13.94 0 .39.39 0 0 1 -.53 0 .37.37 0 0 1 0-.53 10.61 10.61 0 0 1 15 0 .37.37 0 0 1 0 .53.39.39 0 0 1 -.27.11z"/></svg>