<svg data-name="Layer 3" xmlns="http://www.w3.org/2000/svg" viewBox="0 0 45 45"><path d="M34.31 11.56H2.67A2.67 2.67 0 0 0 0 14.23v16.54a2.67 2.67 0 0 0 2.67 2.67h31.64A10.69 10.69 0 0 0 45 22.75v-.5a10.69 10.69 0 0 0-10.69-10.69zm-21.7 10.65H11v-5.4h1.64zm4.16 5.53h-3v-1.65a1.33 1.33 0 0 1 1.33-1.33h.33a1.32 1.32 0 0 1 1.32 1.32zm2.82-6.18H18v-4.1h1.64zm14.35 4.69a3.64 3.64 0 1 1 3.64-3.64 3.64 3.64 0 0 1-3.64 3.64z"/><path d="M33.94 20a2.58 2.58 0 1 0 2.58 2.58A2.58 2.58 0 0 0 33.94 20z"/></svg>