<svg data-name="Layer 3" xmlns="http://www.w3.org/2000/svg" viewBox="0 0 45 45"><path d="M36 10.91H3a3 3 0 0 0-3 3v17.18a3 3 0 0 0 3 3h33a9 9 0 0 0 9-9v-5.18a9 9 0 0 0-9-9zm8 14.18a8 8 0 0 1-8 8H3a2 2 0 0 1-2-2V13.91a2 2 0 0 1 2-2h33a8 8 0 0 1 8 8z"/><path d="M33.3 17.91a4.7 4.7 0 1 0 4.7 4.7 4.71 4.71 0 0 0-4.7-4.7zm0 8.13a3.43 3.43 0 1 1 3.43-3.43A3.44 3.44 0 0 1 33.3 26zM11.61 17.13h1.55v5.09h-1.55zM18.21 17.74h1.55v3.88h-1.55zM16.11 24.63h-.84a1 1 0 0 0-1 1v1.82h2.82v-1.83a1 1 0 0 0-.98-.99z"/></svg>