<svg data-name="Layer 1" xmlns="http://www.w3.org/2000/svg" viewBox="0 0 45 45"><path d="M28.88 10.67h-4v.16h-5.13v-.16h-4a3.6 3.6 0 0 0-3.6 3.59v27.15A3.6 3.6 0 0 0 15.78 45h13.1a3.6 3.6 0 0 0 3.6-3.59V14.26a3.6 3.6 0 0 0-3.6-3.59zm2.43 30.58a2.39 2.39 0 0 1-2.4 2.39H15.75a2.4 2.4 0 0 1-2.4-2.39V14.42a2.4 2.4 0 0 1 2.4-2.42h13.16a2.39 2.39 0 0 1 2.4 2.39z"/><path d="M22.33 16.37a3.19 3.19 0 1 0 3.18 3.18 3.18 3.18 0 0 0-3.18-3.18zm0 5a1.86 1.86 0 1 1 1.85-1.86 1.85 1.85 0 0 1-1.85 1.9zM24.91 9.08h-.78v.54h-3.6v-.54h-.78v1.59h5.16V9.08z"/><path d="M19.75 10.67h5.17v.16h-5.17zM24.13 2.81h-.38v.04h-2.84v-.04h-.38v.39h3.6v-.39zM24.13 7.19h-1.41v.41h-.78v-.41h-1.41v.8h3.6v-.8zM24.13 3.59h-1.41v.42h-.78v-.42h-1.41v.8h3.6v-.8zM24.13 5.99h-1.41v.41h-.78v-.41h-1.41v.8h3.6v-.8zM24.13 8.38h-1.41v.42h-.78v-.42h-1.41v.7h3.6v-.7zM24.13 4.79h-1.41v.42h-.78v-.42h-1.41v.8h3.6v-.8zM20.53 9.08h3.6v.54h-3.6zM20.91 0h2.85v2.81h-2.85z"/><path d="M20.91 2.81h2.85v.04h-2.85zM22.72 3.59h1.41V3.2h-3.6v.39h2.19zM22.72 4.79h1.41v-.4h-3.6v.4h2.19zM22.72 5.99h1.41v-.4h-3.6v.4h2.19zM22.72 7.19h1.41v-.4h-3.6v.4h2.19zM22.72 8.38h1.41v-.39h-3.6v.39h2.19z"/></svg>