<svg data-name="Layer 1" xmlns="http://www.w3.org/2000/svg" viewBox="0 0 45 45"><path d="M29.05 10.67h-4V9.08h-.75v-.7h.39V8h-.39v-.8h.39v-.4h-.39V6h.39v-.4h-.39v-.8h.39v-.4h-.39v-.81h.39V3.2h-.39v-.39h-.38V0h-2.84v2.81h-.38v.39h-.39v.39h.39v.81h-.39v.39h.39v.8h-.39V6h.39v.8h-.39v.4h.39V8h-.39v.39h.39v.7h-.78v1.59H16a3.6 3.6 0 0 0-3.6 3.59v27.14A3.6 3.6 0 0 0 16 45h13.1a3.6 3.6 0 0 0 3.6-3.59V14.26a3.6 3.6 0 0 0-3.65-3.59zm-6.16-7.08V4h-.78v-.41zm0 1.2v.42h-.78v-.42zm0 1.2v.41h-.78V6zm0 1.2v.41h-.78v-.41zm0 1.19v.42h-.78v-.42zm8.59 32.87a2.4 2.4 0 0 1-2.4 2.39H15.92a2.4 2.4 0 0 1-2.4-2.39V14.42a2.4 2.4 0 0 1 2.4-2.42h13.16a2.4 2.4 0 0 1 2.4 2.39z"/><path d="M28.88 12.92H16.12a1.81 1.81 0 0 0-1.8 1.8V41a1.81 1.81 0 0 0 1.8 1.8h12.76a1.81 1.81 0 0 0 1.8-1.8V14.72a1.81 1.81 0 0 0-1.8-1.8zm-6.38 8.62a3.19 3.19 0 1 1 3.18-3.18 3.18 3.18 0 0 1-3.18 3.18z"/><circle cx="22.5" cy="18.36" r="1.85"/></svg>