<svg data-name="Layer 1" xmlns="http://www.w3.org/2000/svg" viewBox="0 0 45 45"><path d="M39.09 10.51H5.91A5.92 5.92 0 0 0 0 16.42v11.51a5.91 5.91 0 0 0 5.91 5.91h33.18A5.91 5.91 0 0 0 45 27.93V16.42a5.92 5.92 0 0 0-5.91-5.91zM15.33 22.15h-1.81v-6h1.81zm4.75 6H16.5v-1.9A1.47 1.47 0 0 1 18 24.8h.64a1.46 1.46 0 0 1 1.46 1.46zm3-6.73h-1.83V16.9h1.81zm16.73 6.19a1.47 1.47 0 0 1-1.47 1.48H33a1.48 1.48 0 0 1-1.48-1.48V16.77A1.48 1.48 0 0 1 33 15.29h5.34a1.47 1.47 0 0 1 1.47 1.48z"/><path d="M37.77 15.91h-4.25a1.47 1.47 0 0 0-1.47 1.47V27a1.47 1.47 0 0 0 1.47 1.48h4.25A1.48 1.48 0 0 0 39.25 27v-9.62a1.48 1.48 0 0 0-1.48-1.47zm.71 10.36A1.48 1.48 0 0 1 37 27.75h-2.71a1.48 1.48 0 0 1-1.48-1.48v-2.95a1.48 1.48 0 0 1 1.48-1.48H37a1.48 1.48 0 0 1 1.48 1.48z"/></svg>