<svg data-name="Layer 1" xmlns="http://www.w3.org/2000/svg" viewBox="0 0 45 45"><path d="M40 10H5a5 5 0 0 0-5 5v14.67a5 5 0 0 0 5 5h35a5 5 0 0 0 5-5V15a5 5 0 0 0-5-5zm4 19.67a4 4 0 0 1-4 4H5a4 4 0 0 1-4-4V15a4 4 0 0 1 4-4h35a4 4 0 0 1 4 4z"/><path d="M14.08 16.71h1.7v5.6h-1.7zM21.32 17.38h1.7v4.26h-1.7zM19.24 24.79h-1.37a1 1 0 0 0-1 1V28h3.36v-2.22a1 1 0 0 0-.99-.99zM37.6 15.06h-5.53a2 2 0 0 0-2 2v10.59a2 2 0 0 0 2 2h5.53a2 2 0 0 0 2-2V17.06a2 2 0 0 0-2-2zm1 12.59a1 1 0 0 1-1 1h-5.53a1 1 0 0 1-1-1V17.06a1 1 0 0 1 1-1h5.53a1 1 0 0 1 1 1z"/><rect x="32.17" y="22.02" width="5.32" height="5.55" rx="1" ry="1"/></svg>