<!-- Generated by IcoMoon.io -->
<svg version="1.1" xmlns="http://www.w3.org/2000/svg" width="45" height="45" viewBox="0 0 45 45">
<title>hinge-2</title>
<path d="M24.593 24.145v-6.279c-1.636 0-3.203 0-4.186 0 0-0.369 0-7.907 0-10.166 1.616-0.286 3.025-0.339 4.186-0.275v-5.514c0-0.548 0.435-0.899 0.973-0.769l11.733 2.833c1.073 0.259 1.946 1.364 1.946 2.467v36.559c0 1.093-0.871 1.791-1.946 1.537l-11.733-2.776c-0.534-0.126-0.973-0.68-0.973-1.234v-5.943c-1.55 0.087-3.236-0.070-4.186-0.326 0-0.367 0-7.867 0-10.115 2.093 0 3.51 0 4.673 0zM25.911 24.145c0.266 0 0.522 0 0.775 0 0 2.526 0 9.24 0 10.115-0.315 0.095-0.669 0.169-1.047 0.224v6.135l11.594 3.046c0.533 0.14 0.965-0.193 0.965-0.74v-36.618c0-0.548-0.432-1.109-0.965-1.252l-11.594-3.109v5.574c0.389 0.050 0.739 0.112 1.047 0.18 0 2.539 0 9.287 0 10.166-0.336 0-0.694 0-1.063 0l0.017 6.279zM5.756 6.443c0-1.103 0.873-2.208 1.946-2.467l11.733-2.833c0.537-0.13 0.973 0.221 0.973 0.769v38.617c0 0.555-0.438 1.108-0.973 1.234l-11.733 2.776c-1.075 0.254-1.946-0.444-1.946-1.537v-36.559zM6.802 6.307v36.618c0 0.546 0.432 0.88 0.965 0.74l11.594-3.046v-38.673l-11.594 3.109c-0.532 0.143-0.965 0.703-0.965 1.252zM13.605 37.864c-0.867 0-1.57-0.691-1.57-1.543s0.703-1.543 1.57-1.543c0.867 0 1.57 0.691 1.57 1.543s-0.703 1.543-1.57 1.543zM13.605 24.488c-0.867 0-1.57-0.691-1.57-1.543s0.703-1.543 1.57-1.543c0.867 0 1.57 0.691 1.57 1.543s-0.703 1.543-1.57 1.543zM13.605 11.112c-0.867 0-1.57-0.691-1.57-1.543s0.703-1.543 1.57-1.543c0.867 0 1.57 0.691 1.57 1.543s-0.703 1.543-1.57 1.543zM31.395 37.864c-0.867 0-1.57-0.691-1.57-1.543s0.703-1.543 1.57-1.543c0.867 0 1.57 0.691 1.57 1.543s-0.703 1.543-1.57 1.543zM31.395 24.488c-0.867 0-1.57-0.691-1.57-1.543s0.703-1.543 1.57-1.543c0.867 0 1.57 0.691 1.57 1.543s-0.703 1.543-1.57 1.543zM31.395 11.112c-0.867 0-1.57-0.691-1.57-1.543s0.703-1.543 1.57-1.543c0.867 0 1.57 0.691 1.57 1.543s-0.703 1.543-1.57 1.543zM20.407 8.687c0 1.807 0 7.838 0 8.133 1.229 0 3.552 0 5.233 0 0-0.703 0-6.102 0-8.133-1.124-0.237-2.925-0.392-5.233 0zM20.407 25.192c0 1.798 0 7.798 0 8.092 1.183 0.307 3.736 0.435 5.233 0 0-0.7 0-6.071 0-8.092-1.268 0-2.616 0-5.233 0z"></path>
<path d="M19.423 1.331c-0.041 0.101-0.063 0.206-0.063 0.314 0 0.867 1.406 1.57 3.14 1.57s3.14-0.703 3.14-1.57c0-0.108-0.022-0.213-0.063-0.314-0.291 0.478-1.558 0.837-3.077 0.837s-2.786-0.36-3.077-0.837z"></path>
<path d="M19.364 39.872c-0.002 0.535-0.003 0.884-0.003 1.012 1.263 0.66 4.41 0.807 6.279 0 0-3.468 0-29.95 0-39.967-0.754-0.617-5.137-0.736-6.131 0 0 0.188-0 0.384-0 0.59 2.559-0.865 4.933-0.442 6.131 0.051 0 9.509 0 35.020 0 38.312-1.867 0.765-5.011 0.627-6.276 0.002z"></path>
</svg>
