<!-- Generated by IcoMoon.io -->
<svg version="1.1" xmlns="http://www.w3.org/2000/svg" width="45" height="45" viewBox="0 0 45 45">
<title>hoseend-timer-2</title>
<path d="M2.582 22.131c-1.426 0-2.582-1.156-2.582-2.582s1.156-2.582 2.582-2.582c1.426 0 2.582 1.156 2.582 2.582s-1.156 2.582-2.582 2.582zM2.582 17.705c-1.019 0-1.844 0.826-1.844 1.844s0.826 1.844 1.844 1.844c1.019 0 1.844-0.826 1.844-1.844s-0.826-1.844-1.844-1.844z"></path>
<path d="M42.418 22.131c-1.426 0-2.582-1.156-2.582-2.582s1.156-2.582 2.582-2.582c1.426 0 2.582 1.156 2.582 2.582s-1.156 2.582-2.582 2.582zM42.418 17.705c-1.019 0-1.844 0.826-1.844 1.844s0.826 1.844 1.844 1.844c1.019 0 1.844-0.826 1.844-1.844s-0.826-1.844-1.844-1.844z"></path>
<path d="M22.5 21.268c-1.426 0-2.582-1.156-2.582-2.582s1.156-2.582 2.582-2.582c1.426 0 2.582 1.156 2.582 2.582s-1.156 2.582-2.582 2.582zM22.5 16.842c-1.019 0-1.844 0.826-1.844 1.844s0.826 1.844 1.844 1.844c1.019 0 1.844-0.826 1.844-1.844s-0.826-1.844-1.844-1.844z"></path>
<path d="M22.5 13.648c-1.426 0-2.582-1.156-2.582-2.582s1.156-2.582 2.582-2.582c1.426 0 2.582 1.156 2.582 2.582s-1.156 2.582-2.582 2.582zM22.5 9.221c-1.019 0-1.844 0.826-1.844 1.844s0.826 1.844 1.844 1.844c1.019 0 1.844-0.826 1.844-1.844s-0.826-1.844-1.844-1.844z"></path>
<path d="M22.5 28.896c-1.426 0-2.582-1.156-2.582-2.582s1.156-2.582 2.582-2.582c1.426 0 2.582 1.156 2.582 2.582s-1.156 2.582-2.582 2.582zM22.5 24.47c-1.019 0-1.844 0.826-1.844 1.844s0.826 1.844 1.844 1.844c1.019 0 1.844-0.826 1.844-1.844s-0.826-1.844-1.844-1.844z"></path>
<path d="M22.5 36.516c-1.426 0-2.582-1.156-2.582-2.582s1.156-2.582 2.582-2.582c1.426 0 2.582 1.156 2.582 2.582s-1.156 2.582-2.582 2.582zM22.5 32.090c-1.019 0-1.844 0.826-1.844 1.844s0.826 1.844 1.844 1.844c1.019 0 1.844-0.826 1.844-1.844s-0.826-1.844-1.844-1.844z"></path>
<path d="M29.139 32.090c-1.426 0-2.582-1.156-2.582-2.582s1.156-2.582 2.582-2.582c1.426 0 2.582 1.156 2.582 2.582s-1.156 2.582-2.582 2.582zM29.139 27.664c-1.019 0-1.844 0.826-1.844 1.844s0.826 1.844 1.844 1.844c1.019 0 1.844-0.826 1.844-1.844s-0.826-1.844-1.844-1.844z"></path>
<path d="M15.861 32.090c-1.426 0-2.582-1.156-2.582-2.582s1.156-2.582 2.582-2.582c1.426 0 2.582 1.156 2.582 2.582s-1.156 2.582-2.582 2.582zM15.861 27.664c-1.019 0-1.844 0.826-1.844 1.844s0.826 1.844 1.844 1.844c1.019 0 1.844-0.826 1.844-1.844s-0.826-1.844-1.844-1.844z"></path>
<path d="M29.877 22.869c-1.426 0-2.582-1.156-2.582-2.582s1.156-2.582 2.582-2.582c1.426 0 2.582 1.156 2.582 2.582s-1.156 2.582-2.582 2.582zM29.877 18.443c-1.019 0-1.844 0.826-1.844 1.844s0.826 1.844 1.844 1.844c1.019 0 1.844-0.826 1.844-1.844s-0.826-1.844-1.844-1.844z"></path>
<path d="M29.139 14.754c-1.426 0-2.582-1.156-2.582-2.582s1.156-2.582 2.582-2.582c1.426 0 2.582 1.156 2.582 2.582s-1.156 2.582-2.582 2.582zM29.139 10.328c-1.019 0-1.844 0.826-1.844 1.844s0.826 1.844 1.844 1.844c1.019 0 1.844-0.826 1.844-1.844s-0.826-1.844-1.844-1.844z"></path>
<path d="M35.779 27.295c-1.426 0-2.582-1.156-2.582-2.582s1.156-2.582 2.582-2.582c1.426 0 2.582 1.156 2.582 2.582s-1.156 2.582-2.582 2.582zM35.779 22.869c-1.019 0-1.844 0.826-1.844 1.844s0.826 1.844 1.844 1.844c1.019 0 1.844-0.826 1.844-1.844s-0.826-1.844-1.844-1.844z"></path>
<path d="M35.779 17.705c-1.426 0-2.582-1.156-2.582-2.582s1.156-2.582 2.582-2.582c1.426 0 2.582 1.156 2.582 2.582s-1.156 2.582-2.582 2.582zM35.779 13.279c-1.019 0-1.844 0.826-1.844 1.844s0.826 1.844 1.844 1.844c1.019 0 1.844-0.826 1.844-1.844s-0.826-1.844-1.844-1.844z"></path>
<path d="M15.123 22.869c-1.426 0-2.582-1.156-2.582-2.582s1.156-2.582 2.582-2.582c1.426 0 2.582 1.156 2.582 2.582s-1.156 2.582-2.582 2.582zM15.123 18.443c-1.019 0-1.844 0.826-1.844 1.844s0.826 1.844 1.844 1.844c1.019 0 1.844-0.826 1.844-1.844s-0.826-1.844-1.844-1.844z"></path>
<path d="M15.861 14.754c-1.426 0-2.582-1.156-2.582-2.582s1.156-2.582 2.582-2.582c1.426 0 2.582 1.156 2.582 2.582s-1.156 2.582-2.582 2.582zM15.861 10.328c-1.019 0-1.844 0.826-1.844 1.844s0.826 1.844 1.844 1.844c1.019 0 1.844-0.826 1.844-1.844s-0.826-1.844-1.844-1.844z"></path>
<path d="M9.221 27.295c-1.426 0-2.582-1.156-2.582-2.582s1.156-2.582 2.582-2.582c1.426 0 2.582 1.156 2.582 2.582s-1.156 2.582-2.582 2.582zM9.221 22.869c-1.019 0-1.844 0.826-1.844 1.844s0.826 1.844 1.844 1.844c1.019 0 1.844-0.826 1.844-1.844s-0.826-1.844-1.844-1.844z"></path>
<path d="M9.221 17.705c-1.426 0-2.582-1.156-2.582-2.582s1.156-2.582 2.582-2.582c1.426 0 2.582 1.156 2.582 2.582s-1.156 2.582-2.582 2.582zM9.221 13.279c-1.019 0-1.844 0.826-1.844 1.844s0.826 1.844 1.844 1.844c1.019 0 1.844-0.826 1.844-1.844s-0.826-1.844-1.844-1.844z"></path>
</svg>
