<!-- Generated by IcoMoon.io -->
<svg version="1.1" xmlns="http://www.w3.org/2000/svg" width="45" height="45" viewBox="0 0 45 45">
<title>hoseend-2</title>
<path d="M27.612 34.010c-3.59 0-6.5-2.91-6.5-6.5s2.91-6.5 6.5-6.5c3.59 0 6.5 2.91 6.5 6.5s-2.91 6.5-6.5 6.5zM27.612 33.010c3.038 0 5.5-2.462 5.5-5.5s-2.462-5.5-5.5-5.5c-3.038 0-5.5 2.462-5.5 5.5s2.462 5.5 5.5 5.5z"></path>
<path d="M16.334 8.191v-2.386c0.416-0.064 0.702-0.144 0.778-0.239v-3.363c-0.114-0.097-0.392-0.189-0.778-0.269v-0.861c-0.346-0.071-5.341-0.096-5.444 0v0.865c-0.294 0.071-0.558 0.158-0.778 0.265v3.363c0.076 0.114 0.362 0.202 0.778 0.267v3.184c-0.014 0.001-0.026 0.001-0.035 0.001h-1.663c-1.096 0-1.999 0.892-1.999 1.993v23.113c0 1.091 0.895 1.993 1.999 1.993 0 0-0.487 0 1.664 0 0.012 0 0.023 0 0.035 0v3.115c-0.294 0.072-0.558 0.161-0.778 0.27v3.426c0.076 0.116 0.362 0.206 0.778 0.272v0.73c0.355 0.081 5.173 0.078 5.444 0v-0.759c0.416-0.065 0.702-0.147 0.778-0.243v-3.426c-0.114-0.099-0.508-0.189-0.894-0.27v-2.451c0.73 0.132 1.217 0.23 1.217 0.23h14.373c3.319 0 6.003-2.69 6.003-6.009v-16.982c0-3.32-2.686-6.009-5.999-6.009h-14.363c0 0-0.45 0.073-1.115 0.181zM17.112 7.011c0.003-0.001 0.005-0.001 0.005-0.001h14.696c3.865 0 6.999 3.143 6.999 6.996v17.009c0 3.864-3.134 6.996-7.004 6.996h-14.696v0.823c0.496 0.104 0.853 0.226 1 0.354v4.43c-0.098 0.125-0.465 0.231-1 0.315v0.981c-0.349 0.1-6.544 0.104-7 0v-0.944c-0.535-0.086-0.902-0.202-1-0.352v-4.43c0.282-0.14 0.621-0.256 1-0.349v-1.784c-0.007 0-0.014-0-0.021-0h-0.899c-1.658 0-3.003-1.339-3.003-2.991v-22.985c0-1.652 1.339-2.991 2.994-2.991h0.909c0.006 0 0.013-0 0.021-0.001v-1.725c-0.535-0.086-0.902-0.202-1-0.352v-4.43c0.282-0.14 0.621-0.256 1-0.349v-1.139c0.134-0.126 6.555-0.093 7 0v1.134c0.496 0.104 0.853 0.226 1 0.354v4.43c-0.098 0.125-0.465 0.231-1 0.315v0.686z"></path>
</svg>
