<?xml version="1.0" encoding="UTF-8" standalone="no"?>
<svg width="39px" height="53px" viewBox="0 0 39 53" version="1.1" xmlns="http://www.w3.org/2000/svg" xmlns:xlink="http://www.w3.org/1999/xlink">
    <!-- Generator: Sketch 39.1 (31720) - http://www.bohemiancoding.com/sketch -->
    <title>hoseend-3</title>
    <desc>Created with Sketch.</desc>
    <defs></defs>
    <g id="Page-1" stroke="none" stroke-width="1" fill="none" fill-rule="evenodd">
        <g id="hoseend-3" transform="translate(-28.000000, -19.000000)" fill="#010101">
            <g id="Layer_2">
                <g id="Layer_1-2">
                    <path d="M58.12,26.7 L43.76,26.7 L43.76,22.07 C43.7782735,21.3939523 43.3389433,20.7903865 42.69,20.6 C42.7133265,20.2416606 42.5602744,19.8944939 42.28,19.67 C41.57,19.08 40.57,19.08 38.4,19.08 C34.72,19.08 33.13,19.29 33.04,20.55 C32.4209689,20.695926 31.9877439,21.2541198 32,21.89 L32,26.6 L32,26.79 C32.1062318,27.2645546 32.4175917,27.6674909 32.85,27.89 C30.99,28.22 28.71,29.32 28.71,32.04 L28.71,58.13 C28.71,60.82 30.95,61.93 32.8,62.27 C32.276035,62.4769115 31.9449586,62.9977511 31.98,63.56 L31.98,67.91 C31.9488689,68.5929249 32.3604774,69.2184085 33,69.46 C33,70.46 34,71.09 38.36,71.09 C40.36,71.09 41.55,70.98 42.24,70.42 C42.5531188,70.1885524 42.7174118,69.8064757 42.67,69.42 C43.3066984,69.1869779 43.7274017,68.5779597 43.72,67.9 L43.72,63.56 L43.72,63.47 L58,63.47 L58.19,63.47 C59.04,63.3 61.88,62.69 62.81,61.93 C66,59.3 66.67,54 66.67,50.07 L66.67,40 C66.67,34.16 65.69,27.38 58.12,26.7 L58.12,26.7 Z M64.67,50.07 C64.67,52.96 64.27,58.14 61.58,60.36 C60.4207932,60.8864032 59.1967307,61.2563122 57.94,61.46 L40.67,61.46 L40.67,63.92 L41.51,64.06 L41.77,64.06 L41.77,67.59 L41.54,67.59 L40.67,67.71 L40.67,69 C39.9182064,69.1057915 39.1589559,69.1492728 38.4,69.13 C37.2603075,69.1459858 36.1217226,69.05222 35,68.85 L35,67.85 L34.13,67.73 L33.9,67.73 L33.9,64 L34.17,63.95 L34.99,63.8 L34.99,60.4 L34,60.4 C33.86,60.4 30.63,60.4 30.63,58.14 L30.63,32 C30.63,29.78 33.86,29.74 34,29.74 L35,29.74 L35,26 L33.91,26.15 L33.91,22.44 L34.11,22.44 L34.98,22.33 L34.98,21.33 C36.0940433,21.1879265 37.217306,21.1310947 38.34,21.16 C39.25,21.16 40.12,21.16 40.61,21.22 L40.61,22.33 L41.48,22.44 L41.7,22.44 L41.7,26 L40.61,25.9 L40.61,28.7 L58,28.7 C62.74,29.14 64.68,32.42 64.68,39.99 L64.67,50.07 Z" id="Shape"></path>
                    <path d="M53.39,42.65 C49.0350939,42.6610391 45.5126565,46.1983856 45.5200113,50.5532995 C45.527366,54.9082134 49.0617312,58.4336422 53.4166498,58.4299718 C57.7715683,58.4263015 61.299986,54.8949201 61.3,50.54 C61.288974,46.1792401 57.7507738,42.6499861 53.39,42.65 L53.39,42.65 Z M53.39,56.43 C50.1396692,56.4189632 47.5126634,53.7770532 47.5200151,50.5267119 C47.5273667,47.2763707 50.1662965,44.6463712 53.416644,44.6500377 C56.6669915,44.6537042 59.2999813,47.2896504 59.3,50.54 C59.2889807,53.7961897 56.6462083,56.4300186 53.39,56.43 L53.39,56.43 Z" id="Shape"></path>
                </g>
            </g>
        </g>
    </g>
</svg>