<!-- Generated by IcoMoon.io -->
<svg version="1.1" xmlns="http://www.w3.org/2000/svg" width="45" height="45" viewBox="0 0 45 45">
<title>hoseend-1</title>
<path d="M10.85 7.010h21.007c3.862 0 6.993 3.143 6.993 6.996v17.009c0 3.864-3.13 6.996-6.993 6.996h-21.007v-31zM27.65 34.010c3.59 0 6.5-2.91 6.5-6.5s-2.91-6.5-6.5-6.5c-3.59 0-6.5 2.91-6.5 6.5s2.91 6.5 6.5 6.5z"></path>
<path d="M10.15 0.477c0.134-0.711 6.555-0.526 7 0v44.080c-0.349 0.566-6.544 0.588-7 0v-44.080z"></path>
<path d="M6.15 11.004c0-1.654 1.351-2.994 2.993-2.994h5.775v29h-5.775c-1.653 0-2.993-1.341-2.993-2.994v-23.011z"></path>
<path d="M9.15 1.581c2.285-1.135 8.267-0.637 9 0v4.43c-0.513 0.656-8.486 0.787-9 0v-4.43z"></path>
<path d="M9.15 39.187c2.285-1.135 8.267-0.637 9 0v4.43c-0.513 0.656-8.486 0.787-9 0v-4.43z"></path>
</svg>
