<!-- Generated by IcoMoon.io -->
<svg version="1.1" xmlns="http://www.w3.org/2000/svg" width="45" height="45" viewBox="0 0 45 45">
<title>hub-offline-1</title>
<path d="M25.4 20.8l-0.7-0.6-2.3 2.3-2.2-2.3-0.6 0.6 2.3 2.2-2.3 2.3 0.6 0.6 2.2-2.3 2.3 2.3 0.7-0.6-2.4-2.3 2.4-2.2zM32.8 8.1c-0.2 0-0.5 0-0.7 0.1-0.8-2.5-3.5-3.9-6-3.1-1.1-2.4-3.5-4-6.1-4-3.5 0-6.4 2.8-6.6 6.3-0.3-0.1-0.5-0.1-0.8-0.1-3.9 0-5.9 7.3-0.1 7.8h21.4c2.7-0.1 3.5-7-1.1-7zM33.9 14h-21.4c-2.4-0.2-2.7-1.8-2.6-2.7 0.1-1.5 1.2-3.1 2.7-3.1 0.2 0 0.4 0 0.6 0.1l1.2 0.3 0.1-1.2c0.2-3 2.7-5.3 5.6-5.3 2.3 0 4.3 1.3 5.2 3.4l0.4 0.8 0.8-0.3c0.4-0.1 0.7-0.2 1.1-0.2 1.7 0 3.1 1.1 3.6 2.6l0.3 0.8 0.9-0.2h0.4c2.1 0 2.3 2 2.3 2.6 0 1.4-0.6 2.4-1.2 2.4zM29.3 31h-13.6c-1 0-1.9 0.8-1.9 1.9v9.3c0 1 0.8 1.9 1.9 1.9h13.6c1 0 1.9-0.8 1.9-1.9v-9.3c-0.1-1-0.9-1.9-1.9-1.9zM30.1 42.1c0 0.5-0.4 0.9-0.9 0.9h-13.5c-0.5 0-0.9-0.4-0.9-0.9v-9.3c0-0.5 0.4-0.9 0.9-0.9h13.6c0.5 0 0.9 0.4 0.9 0.9v9.3h-0.1z"></path>
<path d="M17 33.2c0.4 0 0.8 0.3 0.8 0.8s-0.3 0.8-0.8 0.8-0.8-0.3-0.8-0.8 0.4-0.8 0.8-0.8zM17 32.8c-0.7 0-1.3 0.6-1.3 1.3s0.6 1.3 1.3 1.3 1.3-0.6 1.3-1.3-0.6-1.3-1.3-1.3zM17 36.4c0.4 0 0.8 0.3 0.8 0.8s-0.3 0.8-0.8 0.8-0.8-0.3-0.8-0.8 0.4-0.8 0.8-0.8zM17 35.9c-0.7 0-1.3 0.6-1.3 1.3s0.6 1.3 1.3 1.3 1.3-0.6 1.3-1.3-0.6-1.3-1.3-1.3z"></path>
</svg>
