<svg xmlns="http://www.w3.org/2000/svg" viewBox="0 0 45 45"><path d="M23 9c-9.9 0-17.9 4.3-17.9 9.6s8 9.6 17.9 9.6 17.9-4.3 17.9-9.6S32.8 9 23 9zm0 8.7c-2.1 0-3.7-.9-3.7-2s1.6-2 3.7-2 3.7.9 3.7 2-1.7 2-3.7 2z"/><path d="M22.8 6.8C11.1 6.8 1.6 12 1.6 18.4v7.3c.5 6.2 9.8 13.4 21.2 13.4 5.3 0 10.5-1.5 14.6-4.3 3.8-2.6 6.3-5.9 6.6-9v-7.4c.1-6.4-9.5-11.6-21.2-11.6zm.2 21.8c-10.1 0-18.4-4.5-18.4-10.1 0-5.5 8.3-10 18.4-10 10.1 0 18.4 4.5 18.4 10.1 0 5.5-8.3 10-18.4 10z"/><path d="M23 14.1c-1.7 0-3.2.7-3.2 1.5s1.4 1.5 3.2 1.5 3.2-.7 3.2-1.5-1.5-1.5-3.2-1.5z"/></svg>