<!-- Generated by IcoMoon.io -->
<svg version="1.1" xmlns="http://www.w3.org/2000/svg" width="45" height="45" viewBox="0 0 45 45">
<title>hub-1</title>
<path d="M3.971 21.173c0-2.191 1.775-3.967 3.966-3.967h29.127c2.19 0 3.966 1.781 3.966 3.967v19.859c0 2.191-1.775 3.967-3.966 3.967h-29.127c-2.19 0-3.966-1.781-3.966-3.967v-19.859zM4.963 21.173v19.859c0 1.64 1.333 2.975 2.973 2.975h29.127c1.642 0 2.973-1.332 2.973-2.975v-19.859c0-1.64-1.333-2.975-2.973-2.975h-29.127c-1.642 0-2.973 1.332-2.973 2.975zM10.257 25.147c0.914 0 1.654-0.741 1.654-1.654s-0.741-1.654-1.654-1.654c-0.914 0-1.654 0.741-1.654 1.654s0.741 1.654 1.654 1.654zM10.257 31.765c0.914 0 1.654-0.741 1.654-1.654s-0.741-1.654-1.654-1.654c-0.914 0-1.654 0.741-1.654 1.654s0.741 1.654 1.654 1.654zM29.138 8.757c-1.683-1.728-4.035-2.801-6.638-2.801-2.514 0-4.794 1.001-6.463 2.627l0.702 0.702c1.489-1.446 3.521-2.336 5.761-2.336 2.329 0 4.433 0.962 5.936 2.511l0.702-0.702zM11.912 4.458c2.754-2.754 6.56-4.458 10.763-4.458s8.008 1.704 10.763 4.458l-0.702 0.702c-2.575-2.575-6.132-4.167-10.061-4.167s-7.486 1.593-10.061 4.167l-0.702-0.702z"></path>
</svg>
