<svg id="Layer_1" xmlns="http://www.w3.org/2000/svg" viewBox="0 0 45 45"><style>.st0{fill:none}</style><path class="st0" d="M23 17c1.6 0 3-.7 3-1.4 0-.8-1.4-1.4-3-1.4s-3 .7-3 1.4c0 .8 1.4 1.4 3 1.4z"/><path class="st0" d="M23 28c9.8 0 17.7-4.2 17.7-9.4s-8-9.4-17.7-9.4c-9.8 0-17.7 4.2-17.7 9.4S13.2 28 23 28zm0-14.6c2.1 0 3.8 1 3.8 2.2 0 1.2-1.7 2.2-3.8 2.2-2.1 0-3.8-1-3.8-2.2 0-1.2 1.7-2.2 3.8-2.2z"/><path class="st0" d="M2.2 25.7c.4 5.9 9.5 12.8 20.6 12.8 10.9 0 20.1-6.8 20.6-12.7v-7.3c0-6.1-9.3-11-20.6-11s-20.6 4.9-20.6 11v7.2zM23 8.3c10.2 0 18.5 4.6 18.5 10.2S33.2 28.7 23 28.7 4.5 24.1 4.5 18.5 12.8 8.3 23 8.3z"/><path d="M22.8 6.7C11 6.7 1.4 12 1.4 18.4v7.3c.5 6.2 9.9 13.5 21.4 13.5 5.3 0 10.5-1.5 14.7-4.3 3.9-2.6 6.4-6 6.6-9.1v-7.4c.1-6.4-9.5-11.7-21.3-11.7zm0 .7c11.4 0 20.6 4.9 20.6 11v7.3c-.5 5.9-9.7 12.7-20.6 12.7-11.1 0-20.2-6.9-20.6-12.8v-7.2c0-6 9.2-11 20.6-11z"/><path d="M23 28.7c10.2 0 18.5-4.6 18.5-10.2S33.2 8.3 23 8.3 4.5 12.9 4.5 18.5 12.8 28.7 23 28.7zm0-19.6c9.8 0 17.7 4.2 17.7 9.4S32.8 28 23 28c-9.8 0-17.7-4.2-17.7-9.4S13.2 9.1 23 9.1z"/><path d="M23 17.8c2.1 0 3.8-1 3.8-2.2 0-1.2-1.7-2.2-3.8-2.2-2.1 0-3.8 1-3.8 2.2 0 1.2 1.7 2.2 3.8 2.2zm-3-2.2c0-.8 1.4-1.4 3-1.4s3 .7 3 1.4c0 .8-1.4 1.4-3 1.4s-3-.6-3-1.4z"/></svg>