<!-- Generated by IcoMoon.io -->
<svg version="1.1" xmlns="http://www.w3.org/2000/svg" width="45" height="45" viewBox="0 0 45 45">
<title>keyfob-home</title>
<path d="M34.79 15.34v-8.57h-5.79v4l-6.5-5.1-20 15.74h5.81v17.92h28.37v-17.92h5.82zM35.79 20.48v17.93h-26.55v-17.93h-4.070l17.33-13.64 7.39 5.82v-5h4v8.090l6 4.69z"></path>
<path d="M22.52 24.42c0.003 0 0.007 0 0.010 0 2.286 0 4.14-1.854 4.14-4.14s-1.854-4.14-4.14-4.14c-2.286 0-4.14 1.854-4.14 4.14v0c0 0 0 0 0 0 0 2.283 1.848 4.134 4.129 4.14h0.001zM22.52 25.25c-3.562 0-6.45 2.888-6.45 6.45v0 0.3h12.93v-0.3c-0.006-3.563-2.896-6.45-6.46-6.45-0.007 0-0.014 0-0.021 0h0.001z"></path>
</svg>
