<!-- Generated by IcoMoon.io -->
<svg version="1.1" xmlns="http://www.w3.org/2000/svg" width="45" height="45" viewBox="0 0 45 45">
<title>keyfob-away</title>
<path d="M10.93 13.685h0.070c0.639-0.001 1.216-0.265 1.629-0.69l0-0c0.449-0.411 0.73-1 0.73-1.655 0-0.005 0-0.011-0-0.016v0.001c0-0.005 0-0.011 0-0.016 0-0.653-0.255-1.246-0.671-1.685l0.001 0.001c-0.404-0.456-0.987-0.746-1.638-0.76l-0.002-0c-0.031-0.002-0.068-0.003-0.105-0.003-0.614 0-1.168 0.254-1.565 0.662l-0.001 0.001c-0.434 0.426-0.706 1.015-0.72 1.667l-0 0.003c-0.002 0.032-0.002 0.069-0.002 0.106 0 0.621 0.241 1.185 0.634 1.605l-0.001-0.001c0.401 0.465 0.984 0.762 1.637 0.78l0.003 0zM14.44 20.915c0.084-0.044 0.183-0.070 0.289-0.070 0.177 0 0.337 0.073 0.451 0.19l0 0c0.082 0.087 0.137 0.201 0.15 0.328l0 0.002 0.42 3.93c0.049 0.27 0.174 0.506 0.35 0.691l-0-0c0.17 0.197 0.419 0.321 0.698 0.321 0.011 0 0.023-0 0.034-0.001l-0.002 0c0.013 0.001 0.029 0.001 0.045 0.001 0.285 0 0.542-0.119 0.724-0.311l0-0c0.197-0.183 0.32-0.444 0.32-0.734 0-0.009-0-0.019-0-0.028l0 0.001v-0.14l-0.57-4.81c-0.040-0.218-0.128-0.41-0.252-0.573l0.002 0.003-4.25-4.32c-0.404-0.41-0.96-0.67-1.576-0.69l-0.004-0c-0.814 0.007-1.535 0.395-1.996 0.994l-0.004 0.006-2.74 4.36c-0.059 0.090-0.136 0.164-0.227 0.218l-0.003 0.002-3.3 1.8c-0.302 0.176-0.501 0.498-0.501 0.867 0 0.015 0 0.030 0.001 0.046l-0-0.002c0.002 0.31 0.124 0.591 0.321 0.801l-0.001-0.001c0.185 0.215 0.456 0.35 0.76 0.35 0 0 0 0 0 0v0c0.192-0.033 0.363-0.086 0.525-0.156l-0.015 0.006 3.69-2.060c0.127-0.087 0.233-0.193 0.317-0.316l0.003-0.004v-0.060c0.115-0.183 0.315-0.302 0.544-0.302 0.33 0 0.601 0.249 0.636 0.569l0 0.003 0.27 2.17c0.007 0.036 0.011 0.078 0.011 0.12s-0.004 0.084-0.012 0.124l0.001-0.004-3.74 12.67c0.004 0.023 0.006 0.049 0.006 0.075s-0.002 0.052-0.006 0.078l0-0.003c-0.004 0.024-0.006 0.052-0.006 0.080s0.002 0.056 0.006 0.083l-0-0.003c-0 0.011-0 0.023-0 0.035 0 0.445 0.184 0.847 0.48 1.134l0 0c0.273 0.296 0.663 0.48 1.095 0.48 0.002 0 0.003 0 0.005 0h-0c0.025 0.002 0.055 0.002 0.085 0.002 0.678 0 1.251-0.447 1.442-1.062l0.003-0.011 1.89-6.53c0.046-0.242 0.25-0.425 0.499-0.44l0.001-0c0.25 0 0.46 0.2 0.57 0.53l0.46 1.39 2.41 5.25c0.234 0.528 0.753 0.89 1.357 0.89 0.011 0 0.023-0 0.034-0l-0.002 0h0.16c0.001 0 0.003 0 0.004 0 0.39 0 0.743-0.161 0.995-0.42l0-0c0.291-0.291 0.47-0.693 0.47-1.137 0-0.012-0-0.023-0-0.034l0 0.002c-0.005-0.248-0.048-0.485-0.125-0.706l0.005 0.016-2.4-5.35c-0.005-0.029-0.008-0.061-0.008-0.095s0.003-0.066 0.008-0.098l-0 0.003-1.14-9.49c-0.006-0.032-0.009-0.069-0.009-0.107 0-0.24 0.136-0.448 0.336-0.551l0.003-0.002zM21.31 6.115v32.74h21.19v-32.74zM41.22 37.575l-10.28-3.58v-24.37l10.28-2.23z"></path>
<path d="M33.83 22.165c0 0.53-0.43 0.96-0.96 0.96s-0.96-0.43-0.96-0.96c0-0.53 0.43-0.96 0.96-0.96s0.96 0.43 0.96 0.96z"></path>
</svg>
