<!-- Generated by IcoMoon.io -->
<svg version="1.1" xmlns="http://www.w3.org/2000/svg" width="45" height="45" viewBox="0 0 45 45">
<title>keyfob-2</title>
<path d="M36.353 8.382c-2.841-0.424-4.226-2.471-5.559-4.412s-2.621-3.918-5.206-3.971h-6.176c-2.576 0.053-3.918 2.038-5.206 3.962s-2.709 4.068-5.559 4.491c-1.147 0.168-3.794 1.518-3.794 3.9l0.062 27.521c0 3.618 2.691 5.126 4.129 5.126h26.965c1.447 0 4.138-1.526 4.138-5.206v-27.556c0-2.338-2.647-3.688-3.794-3.856zM39.265 39.794c0 3.018-2.153 4.324-3.247 4.324h-26.974c-1.138 0-3.256-1.244-3.256-4.244l-0.053-27.521c0-1.871 2.426-2.894 3.044-2.991 3.229-0.485 4.8-2.815 6.176-4.871 1.279-1.897 2.382-3.529 4.482-3.574h6.124c2.118 0.044 3.212 1.668 4.474 3.529 1.376 2.038 2.938 4.35 6.176 4.835 0.618 0.097 3.044 1.112 3.044 2.982z"></path>
<path d="M19.376 10.676h6.247c0.684-0.094 1.256-0.508 1.565-1.083 0.097-0.25 0.15-0.527 0.15-0.817 0-0.389-0.096-0.756-0.265-1.078l-0.1-0.12c-0.573-0.611-0.999-1.366-1.219-2.205l-0.008-0.036c-0.045-0.818-0.602-1.494-1.354-1.717-0.572-0.067-1.219-0.103-1.875-0.103s-1.303 0.036-1.94 0.107c-0.695 0.188-1.267 0.856-1.315 1.664-0.213 0.906-0.645 1.685-1.238 2.31l-0.104 0.13c-0.163 0.309-0.259 0.676-0.259 1.065 0 0.289 0.053 0.566 0.15 0.821 0.314 0.563 0.884 0.97 1.555 1.059zM18.671 8.188c0.703-0.754 1.215-1.695 1.457-2.739 0.039-0.453 0.315-0.794 0.689-0.921 0.516-0.056 1.107-0.087 1.706-0.087s1.189 0.031 1.772 0.091c0.317 0.16 0.587 0.539 0.589 0.982 0.257 1.057 0.762 1.971 1.451 2.713 0.083 0.172 0.133 0.378 0.133 0.597 0 0.151-0.024 0.297-0.069 0.433-0.187 0.303-0.503 0.523-0.873 0.58l-5.998 0.001c-0.376-0.059-0.692-0.279-0.879-0.586-0.061-0.152-0.095-0.321-0.095-0.499 0-0.202 0.044-0.393 0.122-0.565z"></path>
<path d="M23.232 15.662c-0.079-0.078-0.189-0.126-0.309-0.126s-0.229 0.048-0.309 0.126l-7.473 6.918c-0.087 0.081-0.141 0.196-0.141 0.323 0 0.001 0 0.002 0 0.003v8.823c0 0.244 0.198 0.441 0.441 0.441h14.118c0.244 0 0.441-0.198 0.441-0.441v-8.824c0-0.001 0-0.002 0-0.003 0-0.119-0.047-0.227-0.124-0.306zM29.118 31.271h-13.235v-8.188l7.015-6.494 6.221 6.476z"></path>
</svg>
