<!-- Generated by IcoMoon.io -->
<svg version="1.1" xmlns="http://www.w3.org/2000/svg" width="45" height="45" viewBox="0 0 45 45">
<title>keyfob-b</title>
<path d="M32.375 26.45c-0.542-1.066-1.257-1.966-2.118-2.7l-0.012-0.010c-0.789-0.664-1.707-1.208-2.705-1.588l-0.065-0.022c-0.688-0.272-1.498-0.498-2.337-0.64l-0.073-0.010c0.838-0.22 1.563-0.493 2.25-0.831l-0.070 0.031c0.867-0.422 1.609-0.95 2.251-1.581l-0.001 0.001c0.658-0.644 1.189-1.415 1.553-2.274l0.017-0.046c0.374-0.896 0.592-1.937 0.592-3.030 0-0.060-0.001-0.12-0.002-0.179l0 0.009c0.003-0.085 0.005-0.185 0.005-0.285 0-1.334-0.347-2.586-0.955-3.673l0.020 0.038c-0.601-1.018-1.417-1.85-2.39-2.453l-0.030-0.017c-0.978-0.599-2.117-1.053-3.333-1.299l-0.067-0.011c-1.147-0.24-2.467-0.378-3.818-0.38h-9.322v34h10.47c1.335-0.007 2.632-0.156 3.881-0.433l-0.121 0.023c1.349-0.283 2.545-0.775 3.616-1.447l-0.046 0.027c1.101-0.708 1.996-1.642 2.639-2.742l0.021-0.038c0.636-1.194 1.009-2.61 1.009-4.114 0-0.143-0.003-0.285-0.010-0.426l0.001 0.020c0.002-0.061 0.002-0.133 0.002-0.205 0-1.351-0.315-2.629-0.875-3.765l0.022 0.050zM31.935 30.51c0.002 0.059 0.003 0.128 0.003 0.198 0 1.22-0.285 2.373-0.793 3.397l0.020-0.045c-0.517 0.975-1.229 1.783-2.089 2.396l-0.021 0.014c-0.923 0.631-2.004 1.112-3.167 1.378l-0.063 0.012c-1.204 0.286-2.586 0.45-4.007 0.45-0.022 0-0.044-0-0.066-0h-8.697v-16.12h9.23c1.177 0.007 2.312 0.171 3.391 0.472l-0.091-0.022c1.184 0.316 2.221 0.81 3.14 1.46l-0.030-0.020c0.946 0.682 1.719 1.544 2.28 2.541l0.020 0.039c0.593 1.067 0.942 2.34 0.942 3.695 0 0.055-0.001 0.109-0.002 0.163l0-0.008zM13.055 21v-14.31h7.75c0.018-0 0.039-0 0.060-0 1.26 0 2.49 0.131 3.676 0.38l-0.116-0.020c1.132 0.229 2.136 0.628 3.043 1.174l-0.043-0.024c0.872 0.538 1.581 1.263 2.084 2.121l0.016 0.029c0.506 0.913 0.804 2.001 0.804 3.159 0 0.078-0.001 0.155-0.004 0.232l0-0.011c0.001 0.045 0.002 0.099 0.002 0.152 0 1.156-0.305 2.242-0.838 3.18l0.017-0.032c-0.546 0.908-1.26 1.661-2.105 2.234l-0.025 0.016c-0.862 0.561-1.862 1.004-2.931 1.275l-0.069 0.015c-1.013 0.268-2.177 0.424-3.377 0.43h-0.003z"></path>
</svg>
