<!-- Generated by IcoMoon.io -->
<svg version="1.1" xmlns="http://www.w3.org/2000/svg" width="45" height="45" viewBox="0 0 45 45">
<title>keypad-2</title>
<path d="M27 18v9h-9v-9h9zM28.5 16.5h-12v12h12v-12z"></path>
<path d="M27 1.5v9h-9v-9h9zM28.5 0h-12v12h12v-12z"></path>
<path d="M27 34.5v9h-9v-9h9zM28.5 33h-12v12h12v-12z"></path>
<path d="M10.5 18v9h-9v-9h9zM12 16.5h-12v12h12v-12z"></path>
<path d="M10.5 1.5v9h-9v-9h9zM12 0h-12v12h12v-12z"></path>
<path d="M10.5 34.5v9h-9v-9h9zM12 33h-12v12h12v-12z"></path>
<path d="M43.5 18v9h-9v-9h9zM45 16.5h-12v12h12v-12z"></path>
<path d="M43.5 1.5v9h-9v-9h9zM45 0h-12v12h12v-12z"></path>
<path d="M43.5 34.5v9h-9v-9h9zM45 33h-12v12h12v-12z"></path>
</svg>
