<?xml version="1.0" encoding="UTF-8" standalone="no"?>
<svg width="27px" height="45px" viewBox="0 0 27 45" version="1.1" xmlns="http://www.w3.org/2000/svg" xmlns:xlink="http://www.w3.org/1999/xlink">
    <!-- Generator: Sketch 40.3 (33839) - http://www.bohemiancoding.com/sketch -->
    <title>lawn-1</title>
    <desc>Created with Sketch.</desc>
    <defs></defs>
    <g id="Page-1" stroke="none" stroke-width="1" fill="none" fill-rule="evenodd">
        <g id="lawn-1" fill="#000000">
            <path d="M10.3759583,2.03647063 C9.79118837,-0.0389636418 10.1988577,-0.215008903 11.2510585,1.68419022 C11.2510585,1.68419022 17.9345703,12.3434772 17.9345703,20.9858398 C17.9345703,33.5664062 14.1361072,40.4229993 14.1361072,40.4229993 C13.2823991,42.4031067 12.8339823,42.2727093 13.1173999,40.1305195 C13.1173999,40.1305195 14.8186688,28.8674623 14.4428711,22.3981934 C13.9448685,13.8251953 10.3759583,2.03647063 10.3759583,2.03647063 Z" id="Rectangle-11"></path>
            <path d="M23.6619428,25.100832 C25.2065714,24.0532967 25.5572671,24.4371192 24.4946811,25.9686474 C24.4946811,25.9686474 22.1245117,28.9111328 21.1152344,32.1452637 C20.4095268,34.4066349 19.5036405,39.6273105 19.5036405,39.6273105 C19.1649466,41.467478 18.7244213,41.4508827 18.5695562,39.5843078 C18.5695562,39.5843078 17.8601074,35.0969238 18.8903809,30.8718262 C19.8245605,27.0408042 23.6619428,25.100832 23.6619428,25.100832 Z" id="Rectangle-11"></path>
            <path d="M25.5192591,33.0063561 C26.6645643,32.3429625 26.9145462,32.6303523 26.0872552,33.6700583 C26.0872552,33.6700583 24.7089977,35.2352519 23.8908691,36.8291016 C23.3228316,37.9357325 22.5781738,40.8692774 22.5781738,40.8692774 C22.230407,42.1427198 21.8717824,42.1021199 21.8333311,40.7801351 C21.8333311,40.7801351 21.501709,38.8779297 22.3630371,35.9702148 C22.8812873,34.2206797 25.5192591,33.0063561 25.5192591,33.0063561 Z" id="Rectangle-11"></path>
            <path d="M1.68463447,19.6955533 C-0.621081926,17.3304119 -0.368092257,17.052851 2.15806048,19.2017865 C2.15806048,19.2017865 9.07194938,23.7091742 11.1787109,31.1360377 C12.8803711,37.1348169 11.8041315,42.0254367 11.8041315,42.0254367 C11.4587213,45.3311645 10.8895093,45.3287429 10.469561,42.0354538 C10.469561,42.0354538 10.425368,39.8610781 8.83789063,32.6264648 C6.81835938,23.4228516 1.68463447,19.6955533 1.68463447,19.6955533 Z" id="Rectangle-11"></path>
        </g>
    </g>
</svg>