<?xml version="1.0" encoding="UTF-8" standalone="no"?>
<svg width="62px" height="62px" viewBox="0 0 62 62" version="1.1" xmlns="http://www.w3.org/2000/svg" xmlns:xlink="http://www.w3.org/1999/xlink">
    <!-- Generator: Sketch 39.1 (31720) - http://www.bohemiancoding.com/sketch -->
    <title>layers-1</title>
    <desc>Created with Sketch.</desc>
    <defs></defs>
    <g id="Page-1" stroke="none" stroke-width="1" fill="none" fill-rule="evenodd">
        <g id="layers-1" transform="translate(-14.000000, -14.000000)" fill="#010101">
            <g id="Layer_2">
                <g id="Layer_1-2">
                    <path d="M54.15,22.92 L54.15,16.68 C54.1500103,15.2037733 52.9562164,14.0055083 51.48,14 L16.68,14 C15.1998769,14 14,15.1998769 14,16.68 L14,51.48 C14,52.9601231 15.1998769,54.16 16.68,54.16 L22.93,54.16 L22.93,25.6 C22.93,24.1198769 24.1298769,22.92 25.61,22.92 L54.15,22.92 Z" id="Shape"></path>
                    <path d="M65.08,33.85 L65.08,27.6 C65.08,26.1198769 63.8801231,24.92 62.4,24.92 L27.6,24.92 C26.1198769,24.92 24.92,26.1198769 24.92,27.6 L24.92,62.4 C24.92,63.8801231 26.1198769,65.08 27.6,65.08 L33.85,65.08 L33.85,36.52 C33.85,35.0398769 35.0498769,33.84 36.53,33.84 L65.08,33.85 Z" id="Shape"></path>
                    <path d="M73.32,35.85 L38.52,35.85 C37.0398769,35.85 35.84,37.0498769 35.84,38.53 L35.84,73.33 C35.8455083,74.8062164 37.0437733,76.0000103 38.52,76 L73.32,76 C74.0307802,76 74.7124487,75.7176437 75.2150462,75.2150462 C75.7176437,74.7124487 76,74.0307802 76,73.32 L76,38.52 C75.9944917,37.0437836 74.7962267,35.8499897 73.32,35.85 L73.32,35.85 Z" id="Shape"></path>
                </g>
            </g>
        </g>
    </g>
</svg>