<!-- Generated by IcoMoon.io -->
<svg version="1.1" xmlns="http://www.w3.org/2000/svg" width="45" height="45" viewBox="0 0 45 45">
<title>leak-2</title>
<path d="M41.417 0.114h-13.136v6.84h3.207v13.532c-0.049 3.227-0.445 6.692-4.415 6.692h-0.109c-0.090 0.008-0.195 0.012-0.301 0.012-1.596 0-2.957-1.008-3.482-2.422-0.358-1.099-0.56-2.335-0.56-3.617 0-0.283 0.010-0.563 0.029-0.841l-0.002-2.645c0.001-0.048 0.001-0.104 0.001-0.16 0-6.050-4.854-10.966-10.881-11.065l-1.306-0.030h-0.089v-2.336h-6.84v11.176h6.84v-2.613h1.346c2.628 0.044 4.742 2.185 4.742 4.82 0 0.025-0 0.049-0.001 0.074l0 2.679c-0.011 0.216-0.017 0.469-0.017 0.723 0 2.98 0.823 5.768 2.254 8.148 1.161 1.824 2.986 3.231 5.141 3.871-1.271 2.105-2.489 4.422-2.489 5.956 0.137 3.33 2.87 5.978 6.221 5.978s6.084-2.648 6.221-5.966c0-1.616-1.326-4.071-2.722-6.219 4.742-1.841 6.979-6.998 7.068-12.116v-13.601h3.326zM9.632 14.507h-5.355v-9.721h5.355zM33.023 38.898c-0.128 2.927-2.532 5.251-5.479 5.251s-5.351-2.324-5.479-5.239c-0-2.674 4.315-8.336 5.484-9.811 1.168 1.475 5.474 7.137 5.474 9.8zM37.368 20.555c-0.079 4.781-2.108 9.81-6.731 11.502-1.366-1.98-2.683-3.663-2.801-3.801l-0.287-0.356-0.287 0.356c-0.119 0.148-1.544 1.91-2.97 4.049-5.306-1.406-7.206-6.929-7.117-12.067v-2.683c0-0.024 0.001-0.052 0.001-0.080 0-3.041-2.441-5.513-5.47-5.562l-1.242-0.020v-4.742h1.326c5.633 0.083 10.167 4.669 10.167 10.314 0 0.060-0 0.119-0.001 0.178l0 2.674c0 2.435-0.119 7.513 5.039 7.592h0.119c5.039 0 5.118-5.009 5.157-7.434v-13.433h5.137zM29.013 6.212v-5.355h11.681v5.355z"></path>
</svg>
