<!-- Generated by IcoMoon.io -->
<svg version="1.1" xmlns="http://www.w3.org/2000/svg" width="45" height="45" viewBox="0 0 45 45">
<title>leak-1</title>
<path d="M3.146 4.65h6.059v10.583h-6.059v-10.583z"></path>
<path d="M31.271 0.005h10.583v6.059h-10.583v-6.059z"></path>
<path d="M28.494 31.059c-0.646 0.838-1.333 1.798-2.020 2.777-1.575 2.353-2.959 4.857-2.959 6.201 0 2.738 2.22 4.958 4.958 4.958s4.958-2.22 4.958-4.958c0-1.323-1.353-3.787-2.898-6.11-0.667-1.010-1.384-2-2.040-2.868z"></path>
<path d="M33.018 20.556c0 3.221-0.333 6.655-4.252 6.655s-4.252-3.434-4.252-6.655v-2.737c-0.011-6.359-5.163-11.511-11.522-11.523h-2.294v6.837h2.292c2.577 0 4.666 2.089 4.666 4.666v2.737c0 7.281 3.030 11.109 6.817 12.674 1.444-2.202 2.929-4.039 3.242-4.433l0.778-0.959 0.788 0.959c1.092 1.342 2.196 2.846 3.223 4.405 4.079-1.214 7.391-5.072 7.391-12.646v-13.31h-6.867z"></path>
</svg>
