<!-- Generated by IcoMoon.io -->
<svg version="1.1" xmlns="http://www.w3.org/2000/svg" width="45" height="45" viewBox="0 0 45 45">
<title>light-switch-2</title>
<path d="M7.5 1.992c0-1.1 0.898-1.992 1.992-1.992h26.017c1.1 0 1.992 0.899 1.992 1.992v41.017c0 1.1-0.898 1.992-1.992 1.992h-26.017c-1.1 0-1.992-0.899-1.992-1.992v-41.017zM8.5 2v41.001c0 0.546 0.446 1 0.997 1h26.007c0.557 0 0.997-0.448 0.997-1v-41.001c0-0.546-0.446-1-0.997-1h-26.007c-0.557 0-0.997 0.448-0.997 1zM23 41c-0.828 0-1.5-0.672-1.5-1.5s0.672-1.5 1.5-1.5c0.828 0 1.5 0.672 1.5 1.5s-0.672 1.5-1.5 1.5zM23 7c-0.828 0-1.5-0.672-1.5-1.5s0.672-1.5 1.5-1.5c0.828 0 1.5 0.672 1.5 1.5s-0.672 1.5-1.5 1.5zM14.5 24h16v13h-16v-13zM14.5 8h16v14h-16v-14z"></path>
</svg>
