<!-- Generated by IcoMoon.io -->
<svg version="1.1" xmlns="http://www.w3.org/2000/svg" width="45" height="45" viewBox="0 0 45 45">
<title>light-switch-1</title>
<path d="M7.5 1.992c0-1.1 0.898-1.992 1.992-1.992h26.017c1.1 0 1.992 0.899 1.992 1.992v41.017c0 1.1-0.898 1.992-1.992 1.992h-26.017c-1.1 0-1.992-0.899-1.992-1.992v-41.017zM14.5 8v14h16v-14h-16zM14.5 24v13h16v-13h-16zM23 7c0.828 0 1.5-0.672 1.5-1.5s-0.672-1.5-1.5-1.5c-0.828 0-1.5 0.672-1.5 1.5s0.672 1.5 1.5 1.5zM23 41c0.828 0 1.5-0.672 1.5-1.5s-0.672-1.5-1.5-1.5c-0.828 0-1.5 0.672-1.5 1.5s0.672 1.5 1.5 1.5z"></path>
</svg>
