<!-- Generated by IcoMoon.io -->
<svg version="1.1" xmlns="http://www.w3.org/2000/svg" width="45" height="45" viewBox="0 0 45 45">
<title>light-2</title>
<path d="M36.1 13.5c-0.3-4.2-3.1-13-13.3-13-11.1 0-13.7 8.4-13.9 13.8-0.4 7.3 8 12.3 6.7 18.5 0 0.3 0.1 0.5 0.4 0.4l12.8-1.2c0.3-0.1 0.5-0.3 0.4-0.7 0.1-6.8 7.5-9.9 6.9-17.8zM28.2 31.1l-11.5 1.1c0.3-3.2-1.6-6-3.3-8.8-1.8-2.8-3.7-5.7-3.5-9 0.1-3.9 1.7-12.9 12.9-12.9 9 0 12 7.6 12.3 12.1 0.3 3.9-1.5 6.5-3.4 9.2-1.6 2.4-3.4 4.9-3.5 8.3zM15.6 36.8c0-0.3 0.2-0.5 0.5-0.5l12.8-1.3c0.3 0 0.5 0.2 0.5 0.4 0 0.3-0.2 0.5-0.5 0.5l-12.8 1.3c-0.3 0-0.5-0.2-0.5-0.4zM28.9 39.2l-12.8 1.5c-0.3 0-0.5 0.3-0.5 0.5 0 0.3 0.2 0.5 0.5 0.4l2.8-0.3c1.1 4.5 6.9 4.2 6.7-0.8l3.6-0.4c0.3 0 0.4-0.3 0.4-0.5-0.1-0.3-0.4-0.5-0.7-0.4zM19.9 41.2l4.7-0.6c-0.2 3.7-3.8 3.7-4.7 0.6z"></path>
</svg>
