<!-- Generated by IcoMoon.io -->
<svg version="1.1" xmlns="http://www.w3.org/2000/svg" width="45" height="45" viewBox="0 0 45 45">
<title>light-1</title>
<path d="M15.6 36.8c0-0.3 0.2-0.5 0.5-0.5l12.8-1.3c0.3 0 0.5 0.2 0.5 0.4 0 0.3-0.2 0.5-0.5 0.5l-12.8 1.3c-0.3 0-0.5-0.2-0.5-0.4zM29.5 39.5c0 0.1 0 0.1 0 0 0 0.1 0 0.1 0 0zM28.9 39.2l-12.8 1.5c-0.3 0-0.5 0.3-0.5 0.5 0 0.3 0.2 0.5 0.5 0.4l2.8-0.3c1.1 4.5 6.9 4.2 6.7-0.8l3.6-0.4c0.3 0 0.4-0.3 0.4-0.5-0.1-0.3-0.4-0.5-0.7-0.4zM19.9 41.2l4.7-0.6c-0.2 3.7-3.8 3.7-4.7 0.6zM36.1 13.5c-0.3-4.2-3.1-13-13.3-13-11.1 0-13.7 8.4-13.9 13.8-0.4 7.3 8.1 12.3 6.8 18.5 0 0.3 0.1 0.5 0.4 0.4l12-1.3 0.7-0.1c0.3 0 0.5-0.3 0.4-0.5 0.1-6.7 7.6-9.9 6.9-17.8z"></path>
</svg>
