<!-- Generated by IcoMoon.io -->
<svg version="1.1" xmlns="http://www.w3.org/2000/svg" width="45" height="45" viewBox="0 0 45 45">
<title>lock-2</title>
<path d="M9.882 17.354c-0.885-0-1.734 0.364-2.356 1.011s-0.967 1.523-0.957 2.432v20.798c0 1.88 1.483 3.404 3.313 3.404h25.236c1.83 0 3.313-1.524 3.313-3.404v-20.798c0.010-0.91-0.334-1.786-0.957-2.432s-1.471-1.011-2.356-1.011h-25.236zM7.698 20.429c0-1.133 0.922-2.051 2.042-2.051h25.627c1.128 0 2.042 0.911 2.042 2.051v21.491c0 1.133-0.922 2.051-2.042 2.051h-25.627c-1.128 0-2.042-0.911-2.042-2.051v-21.491z"></path>
<path d="M18.431 27.623c0.571-1.769 2.215-2.969 4.073-2.974 1.86 0.001 3.508 1.2 4.081 2.97s-0.059 3.707-1.565 4.799v5.147h-5.022v-5.147c-1.505-1.090-2.138-3.025-1.567-4.794zM19.216 28.63c0 1.903 0.674 2.318 1.82 3.148v5.052h3.102v-5.052c1.146-0.83 1.692-1.439 1.692-3.148s-1.371-2.957-3.325-2.957c-1.953 0-3.289 1.054-3.289 2.957z"></path>
<path d="M22.563 0.965c5.891 0 8.704 2.038 8.704 6.101v10.953h1.036v-10.469c-0.159-6.494-5.224-7.55-9.888-7.55s-9.543 1.127-9.543 7.55v10.469h1.020v-10.953c0-4.056 2.778-6.101 8.67-6.101z"></path>
</svg>
