<!-- Generated by IcoMoon.io -->
<svg version="1.1" xmlns="http://www.w3.org/2000/svg" width="45" height="45" viewBox="0 0 45 45">
<title>lock-1</title>
<path d="M9.882 17.354h25.236c0.885-0 1.734 0.364 2.356 1.011s0.967 1.523 0.957 2.432v20.798c0 1.88-1.483 3.404-3.313 3.404h-25.236c-1.83 0-3.313-1.524-3.313-3.404v-20.798c-0.010-0.91 0.334-1.786 0.957-2.432s1.471-1.011 2.356-1.011zM22.504 24.649c-1.858 0.005-3.503 1.206-4.073 2.974s0.062 3.704 1.567 4.794v5.147h5.022v-5.147c1.507-1.091 2.139-3.029 1.565-4.799s-2.221-2.969-4.081-2.97z"></path>
<path d="M22.563 0.965c5.891 0 8.704 2.038 8.704 6.101v10.953h1.036v-10.469c-0.159-6.494-5.224-7.55-9.888-7.55s-9.543 1.127-9.543 7.55v10.469h1.020v-10.953c0-4.056 2.778-6.101 8.67-6.101z"></path>
</svg>
