<?xml version="1.0" encoding="UTF-8" standalone="no"?>
<svg width="45px" height="44px" viewBox="0 0 45 44" version="1.1" xmlns="http://www.w3.org/2000/svg" xmlns:xlink="http://www.w3.org/1999/xlink">
    <!-- Generator: Sketch 40.3 (33839) - http://www.bohemiancoding.com/sketch -->
    <title>night-1</title>
    <desc>Created with Sketch.</desc>
    <defs></defs>
    <g id="Page-1" stroke="none" stroke-width="1" fill="none" fill-rule="evenodd">
        <g id="night-1" transform="translate(-0.240234, 0.000000)" fill="#010101">
            <path d="M19.3787755,23.4691421 C15.3085426,15.8014454 17.3959118,6.31381267 24.308464,1.06243287 C13.6238105,-0.191528279 3.68775665,6.73780179 1.17214341,17.1975307 C-1.34346974,27.6572597 4.35516338,38.3468042 14.4415362,42.0883709 C24.5279091,45.8299377 35.8192515,41.4428696 40.7336762,31.8729861 C32.5176065,34.6908134 23.4708923,31.1306389 19.3787755,23.4691421 L19.3787755,23.4691421 L19.3787755,23.4691421 Z" id="Shape"></path>
            <path d="M45.0471536,19.8993676 L44.8771644,19.8356217 L40.2980787,18.5607022 C40.0294019,18.4661001 39.8446507,18.2183657 39.8306082,17.9338668 L39.8306082,13.1741676 C39.8306082,12.961681 39.8306082,12.8235647 39.7031163,12.7810674 L39.628746,12.7810674 L39.565,12.7810674 C39.4906297,12.7810674 39.4375081,12.9085594 39.3843864,13.1104216 L38.109467,17.6895073 C38.0209481,17.964196 37.77095,18.1548726 37.4826316,18.1676021 L32.7335567,18.1676021 C32.5848161,18.1676021 32.3617052,18.1676021 32.3298322,18.3375913 C32.2979592,18.5075806 32.3298322,18.4969562 32.4998215,18.5713265 L32.6698107,18.6244482 L37.2488964,19.8993676 C37.5175732,19.9939697 37.7023243,20.2417041 37.7163668,20.526203 L37.7163668,25.2752779 C37.7163668,25.4877645 37.7163668,25.6258808 37.8544831,25.6790024 L37.9288534,25.6790024 L37.9925994,25.6790024 C38.0669697,25.6790024 38.1200913,25.5515105 38.173213,25.3496482 L39.4481324,20.7705626 C39.5366513,20.4958739 39.7866494,20.3051972 40.0749678,20.2924678 L44.8240427,20.2924678 C44.9727833,20.2924678 45.1958942,20.2924678 45.2277672,20.1224785 C45.2596402,19.9524893 45.2065186,19.9631136 45.0471536,19.8993676 L45.0471536,19.8993676 L45.0471536,19.8993676 Z" id="Shape"></path>
            <path d="M28.6750631,10.7093233 C28.8782633,10.7825854 29.0168692,10.9715935 29.025666,11.1874181 C29.025666,11.1874181 29.0550098,15.1672363 29.2103271,15.1672363 C29.3656445,15.1672363 30.3112097,11.378656 30.3112097,11.378656 C30.3941548,11.1766837 30.5922368,11.0460338 30.8105532,11.0493018 C30.8105532,11.0493018 34.7415548,11.1150513 34.7415548,10.9218099 C34.7415548,10.7285685 31.0017911,9.77438239 31.0017911,9.77438239 C30.7961996,9.70215289 30.6538815,9.51379066 30.6405639,9.2962876 C30.6405639,9.2962876 30.6405639,5.37591032 30.5343206,5.37591032 C30.4280774,5.37591032 29.3656445,9.11567401 29.3656445,9.11567401 C29.2998455,9.32140022 29.1138455,9.46512752 28.898174,9.47690119 C28.898174,9.47690119 24.9671724,9.43440387 24.9671724,9.60439313 C24.9671724,9.77438239 28.6750631,10.7093233 28.6750631,10.7093233 Z" id="Shape"></path>
        </g>
    </g>
</svg>