<!-- Generated by IcoMoon.io -->
<svg version="1.1" xmlns="http://www.w3.org/2000/svg" width="45" height="45" viewBox="0 0 45 45">
<title>outlet-2</title>
<path d="M0 3.993v37.013c0 2.202 1.788 3.993 3.993 3.993h37.013c2.202 0 3.993-1.788 3.993-3.993v-37.013c0-2.202-1.788-3.993-3.993-3.993h-37.013c-2.202 0-3.993 1.788-3.993 3.993zM1 4.007c0-1.66 1.334-3.007 3.007-3.007h36.987c1.66 0 3.007 1.334 3.007 3.007v36.987c0 1.66-1.334 3.007-3.007 3.007h-36.987c-1.66 0-3.007-1.334-3.007-3.007v-36.987z"></path>
<path d="M17.5 29.607v5.334h10.001c0 0 0-2.217 0-5.334-2.182-4.821-7.943-4.902-10.001 0zM18.5 29.844c1.646-3.875 6.255-3.811 8 0 0 2.465 0 4.217 0 4.217h-8v-4.217z"></path>
<path d="M12 12v10h5v-10h-5zM13 13h3v8h-3v-8z"></path>
<path d="M28 12v10h5v-10h-5zM29 13h3v8h-3v-8z"></path>
</svg>
