<?xml version="1.0" encoding="UTF-8" standalone="no"?>
<svg width="32px" height="50px" viewBox="0 0 32 50" version="1.1" xmlns="http://www.w3.org/2000/svg" xmlns:xlink="http://www.w3.org/1999/xlink">
    <!-- Generator: Sketch 39.1 (31720) - http://www.bohemiancoding.com/sketch -->
    <title>pair-3</title>
    <desc>Created with Sketch.</desc>
    <defs></defs>
    <g id="Page-1" stroke="none" stroke-width="1" fill="none" fill-rule="evenodd">
        <g id="pair-3" transform="translate(-29.000000, -20.000000)" fill="#231F20">
            <g id="Layer_2">
                <g id="Layer_1-2">
                    <path d="M53.38,38 C53.0103303,37.7518054 52.6059442,37.559722 52.18,37.43 C51.7547171,37.3041146 51.313523,37.2401246 50.87,37.24 L39.13,37.24 C38.2366996,37.2403103 37.363431,37.5047263 36.62,38 C33.5532093,40.0398957 31.3320726,43.1246103 30.37,46.68 L30.14,48 C30.14,48.19 30.08,48.4 30.05,48.59 L29.98,49.18 C29.98,49.38 29.98,49.56 29.92,49.73 L29.85,50.59 C29.85,51.05 29.87,51.51 29.91,51.97 L30.86,62.79 L30.86,62.95 L31.86,62.86 L30.86,63.08 L31.24,67.63 C31.2691399,67.9568369 31.38287,68.2704563 31.57,68.54 L31.79,68.83 L32,69 L32.23,69.17 L32.49,69.31 L32.49,69.31 L32.55,69.47 L57.31,69.47 L57.37,69.37 L57.54,69.3 L57.79,69.16 L58,69 L58.19,68.81 L58.28,68.69 L57.12,67.85 L56.75,67.47 L33.94,67.47 L33.94,67.47 L33.3,67.47 L31.9,51.76 C31.9,51.37 31.9,50.99 31.85,50.6 L31.92,49.87 C31.92,49.71 31.92,49.55 31.97,49.36 L32.04,48.82 C32.04,48.64 32.09,48.46 32.12,48.29 L32.33,47.11 C33.1741084,44.0574067 35.0915741,41.4120142 37.73,39.66 C37.9365958,39.5213405 38.1623025,39.4135403 38.4,39.34 C38.6365816,39.2675536 38.882575,39.2304861 39.13,39.23 L50.87,39.23 C51.1206797,39.2308011 51.369926,39.2678512 51.61,39.34 C51.8480711,39.4125821 52.0739147,39.5204477 52.28,39.66 C55.9690361,42.1009715 58.1796889,46.2365464 58.16,50.66 L58.16,51.81 L57.16,62.92 L58.16,63 L57.16,63 L56.8,67.37 L58.4,68.5 C58.5867203,68.2302445 58.7004099,67.9167368 58.73,67.59 L59.1,63.36 L59.1,63 L59.1,63 L59.1,62.89 L59.1,62.89 L60.1,51.94 C60.14,51.5 60.16,51.06 60.16,50.62 C60.1645448,45.541216 57.6173003,40.7998846 53.38,38 L53.38,38 Z M58.38,63 L58.09,63 L58.49,63 L58.38,63 Z M58.69,62.91 L58.09,62.84 L58.91,62.84 L58.69,62.91 Z" id="Shape"></path>
                    <path d="M39.57,49.4 C39.57,52.2387436 41.8712564,54.54 44.71,54.54 C47.5487436,54.54 49.85,52.2387436 49.85,49.4 C49.85,46.5612564 47.5487436,44.26 44.71,44.26 C41.8735387,44.2655024 39.5755024,46.5635387 39.57,49.4 L39.57,49.4 Z M47.85,49.4 C47.85,51.1341741 46.4441741,52.54 44.71,52.54 C42.9758259,52.54 41.57,51.1341741 41.57,49.4 C41.57,47.6658259 42.9758259,46.26 44.71,46.26 C46.4402676,46.2655104 47.8400088,47.6697236 47.84,49.4 L47.85,49.4 Z" id="Shape"></path>
                    <path d="M29.28,27.06 C28.9402232,27.4567603 28.9630677,28.0481942 29.3324368,28.4175632 C29.7018058,28.7869323 30.2932397,28.8097768 30.69,28.47 C38.5949237,20.5804148 51.3950763,20.5804148 59.3,28.47 C59.6967603,28.8097768 60.2881942,28.7869323 60.6575632,28.4175632 C61.0269323,28.0481942 61.0497768,27.4567603 60.71,27.06 C52.0227248,18.4004715 37.9672752,18.4004715 29.28,27.06 L29.28,27.06 Z" id="Shape"></path>
                    <path d="M37.13,34.26 C39.2159688,32.1703267 42.047374,30.9960486 45,30.9960486 C47.952626,30.9960486 50.7840312,32.1703267 52.87,34.26 C53.2667603,34.5997768 53.8581942,34.5769323 54.2275632,34.2075632 C54.5969323,33.8381942 54.6197768,33.2467603 54.28,32.85 C51.8188946,30.3847727 48.4784445,28.9994754 44.995,28.9994754 C41.5115555,28.9994754 38.1711054,30.3847727 35.71,32.85 C35.3702232,33.2467603 35.3930677,33.8381942 35.7624368,34.2075632 C36.1318058,34.5769323 36.7232397,34.5997768 37.12,34.26 L37.13,34.26 Z" id="Shape"></path>
                </g>
            </g>
        </g>
    </g>
</svg>