<!-- Generated by IcoMoon.io -->
<svg version="1.1" xmlns="http://www.w3.org/2000/svg" width="45" height="45" viewBox="0 0 45 45">
<title>pair-2</title>
<path d="M15.403 16.875c-8.537 6.002-5.074 13.404-4.041 28.125h22.193c1.042-14.063 4.715-22.468-4.038-28.125-1.769 0-11.14 0-14.114 0zM15.942 17.845c2.748 0 11.407 0 13.042 0 8.088 5.267 4.525 13.093 3.563 26.185h-20.152c-0.955-13.705-4.341-20.597 3.547-26.185z"></path>
<path d="M22.433 31.422c-2.41 0-4.364-1.954-4.364-4.364s1.954-4.364 4.364-4.364c2.41 0 4.364 1.954 4.364 4.364s-1.954 4.364-4.364 4.364zM22.433 30.453c1.875 0 3.394-1.52 3.394-3.394s-1.52-3.394-3.394-3.394c-1.875 0-3.394 1.52-3.394 3.394s1.52 3.394 3.394 3.394z"></path>
</svg>
