<!-- Generated by IcoMoon.io -->
<svg version="1.1" xmlns="http://www.w3.org/2000/svg" width="45" height="45" viewBox="0 0 45 45">
<title>pair-1</title>
<path d="M15.477 16.629c-8.611 6.055-5.119 13.522-4.077 28.371h22.387c1.050-14.186 4.756-22.665-4.073-28.371-1.785 0-11.238 0-14.237 0zM16.021 17.607c2.772 0 11.507 0 13.157 0 8.159 5.313 4.565 13.207 3.594 26.415h-20.329c-0.963-13.825-4.379-20.777 3.578-26.415z"></path>
<path d="M22.569 31.304c-2.431 0-4.402-1.971-4.402-4.402s1.971-4.402 4.402-4.402c2.431 0 4.402 1.971 4.402 4.402s-1.971 4.402-4.402 4.402zM22.569 30.325c1.891 0 3.424-1.533 3.424-3.424s-1.533-3.424-3.424-3.424c-1.891 0-3.424 1.533-3.424 3.424s1.533 3.424 3.424 3.424z"></path>
<path d="M13.729 12.716c6.61-6.207 13.34-4.034 17.61 0 0.436 0.412-0.184 1.208-0.562 0.813-5.667-5.93-13.284-3.948-16.414 0-0.314 0.396-1.030-0.44-0.634-0.813z"></path>
<path d="M8.76 7.382c6.978-7.013 21.059-7.382 27.484 0 0.36 0.413-0.265 1.212-0.562 0.813-4.971-6.679-19.638-7.352-26.288 0-0.357 0.394-1.006-0.439-0.634-0.813z"></path>
</svg>
