<?xml version="1.0" encoding="UTF-8" standalone="no"?>
<svg width="57px" height="49px" viewBox="0 0 57 49" version="1.1" xmlns="http://www.w3.org/2000/svg" xmlns:xlink="http://www.w3.org/1999/xlink">
    <!-- Generator: Sketch 39.1 (31720) - http://www.bohemiancoding.com/sketch -->
    <title>pet-1</title>
    <desc>Created with Sketch.</desc>
    <defs></defs>
    <g id="Page-1" stroke="none" stroke-width="1" fill="none" fill-rule="evenodd">
        <g id="pet-1" transform="translate(-17.000000, -20.000000)" fill="#010101">
            <g id="Layer_2">
                <g id="Layer_1-2">
                    <path d="M35.58,44 C40.34,44 43.58,40 43.58,34.07 C43.58,28.14 42.14,20.7 37.92,20.7 C33.21,20.7 27.18,27.04 27.18,33.13 C27.18,39.22 30.87,44 35.58,44 L35.58,44 Z" id="Shape"></path>
                    <path d="M25,40.41 C23.9627489,39.5598273 22.6501703,39.118744 21.31,39.17 C17.9,39.5 17.26,44.06 17.19,44.64 C16.96,49.71 18.28,53.78 20.82,55.79 C21.9754498,56.7221823 23.4537712,57.1574058 24.93,57 C26.6436255,56.7754139 28.2176267,55.9368941 29.36,54.64 C33.35,50.46 31.77,45.26 25,40.41 L25,40.41 Z" id="Shape"></path>
                    <path d="M54.35,44 C59.06,44 62.75,39.23 62.75,33.13 C62.75,27.03 56.73,20.7 52,20.7 C47.78,20.7 46.38,28.26 46.38,34.06 C46.38,39.86 49.59,44 54.35,44 L54.35,44 Z" id="Shape"></path>
                    <path d="M69,39.16 C67.6598297,39.108744 66.3472511,39.5498273 65.31,40.4 C58.59,45.26 57,50.46 61,54.66 C62.1480602,55.9516029 63.7255924,56.783005 65.44,57 C66.9103103,57.1409084 68.3767501,56.6952258 69.52,55.76 C72.07,53.76 73.39,49.68 73.15,44.61 C73.09,44.05 72.45,39.5 69,39.16 L69,39.16 Z" id="Shape"></path>
                    <path d="M52.66,49.84 C52.18,49.2 49.35,45.67 44.95,45.67 L44.87,45.67 C40.48,45.67 37.65,49.2 37.16,49.84 C26.72,59.4 27.13,64 28.35,66.69 C28.9343081,67.8564437 30.1699968,68.5495383 31.47,68.44 C33.34,68.44 35.77,67.44 38.85,66.01 C40.694908,65.0947747 42.7208143,64.6028177 44.78,64.57 L45.04,64.57 C47.1086153,64.5949029 49.1452918,65.0835685 51,66 C54.08,67.46 56.51,68.43 58.38,68.43 C59.6800032,68.5395383 60.9156919,67.8464437 61.5,66.68 C62.71,64 63.12,59.4 52.66,49.84 L52.66,49.84 Z" id="Shape"></path>
                </g>
            </g>
        </g>
    </g>
</svg>