<?xml version="1.0" encoding="UTF-8" standalone="no"?>
<svg width="45px" height="37px" viewBox="0 0 45 37" version="1.1" xmlns="http://www.w3.org/2000/svg" xmlns:xlink="http://www.w3.org/1999/xlink">
    <!-- Generator: Sketch 40.3 (33839) - http://www.bohemiancoding.com/sketch -->
    <title>pet-2</title>
    <desc>Created with Sketch.</desc>
    <defs></defs>
    <g id="Page-1" stroke="none" stroke-width="1" fill="none" fill-rule="evenodd">
        <g id="pet-2" transform="translate(0.500000, 0.000000)" fill="#000000">
            <path d="M21.0856718,10.0516144 C21.0856718,5.59311674 19.9521997,0 16.6307654,0 C12.9234842,0 8.17702542,4.76647592 8.17702542,9.34517253 C8.17702542,13.9238691 11.0814159,17.5172708 14.7887411,17.5172708 C18.5352275,17.5172708 21.0856718,14.5101121 21.0856718,10.0516144 Z M20.0537543,10.0024414 C20.0537543,6.05228918 19.2868408,1.29040527 16.4690864,1.29040527 C13.3239969,1.29040527 9.25343967,5.25121492 9.25343967,9.30786133 C9.25343967,13.3645077 11.6906696,16.413208 14.8357964,16.413208 C18.0141458,16.413208 20.0537543,13.9525936 20.0537543,10.0024414 Z" id="Combined-Shape"></path>
            <path d="M3.26305571,14.3902804 C0.578891516,14.6384953 0.0751212158,18.0666865 0.0202516583,18.5027228 C-0.16076948,22.3145418 0.878232013,25.3743611 2.87742876,26.8855474 C3.78706658,27.5862735 4.9503716,27.9136685 6.1126206,27.7951087 C7.46143488,27.6262418 8.70051005,26.9957858 9.59967558,26.0207876 C12.7403527,22.8783421 11.4965694,18.9688089 6.16788616,15.3224104 C5.35109098,14.6830866 4.31794165,14.351657 3.26305571,14.3902804 Z M3.46912977,15.4370117 C1.69774306,15.6766357 1.03991388,18.1311051 0.994528825,18.5021605 C0.844798188,21.745918 1.59815494,24.5508123 3.25177951,25.836792 C4.00418143,26.4330915 5.16539911,26.7745974 6.12674696,26.6737061 C7.24241127,26.5300048 8.17311132,26.1154644 8.91685113,25.2857666 C11.5146449,22.6116284 10.0966123,19.497276 5.68902134,16.3942871 C5.0134137,15.8502394 4.34167287,15.4041443 3.46912977,15.4370117 Z" id="Combined-Shape"></path>
            <path d="M36.2479915,9.34517253 C36.2479915,4.75920515 31.509541,0 27.7866394,0 C24.4649851,0 23.3629298,5.68368621 23.3629298,10.0443436 C23.3629298,14.4050011 25.8897015,17.5172708 29.6362759,17.5172708 C33.3435571,17.5172708 36.2479915,13.9311399 36.2479915,9.34517253 Z M35.1400825,9.36120605 C35.1400825,5.29811786 30.8048937,1.07971191 28.0194444,1.07971191 C25.2013866,1.07971191 24.4444444,6.03564817 24.4444444,9.89911563 C24.4444444,13.7625831 26.588132,16.5200005 29.7666877,16.5200005 C32.6431207,16.5200005 35.1400825,13.4242942 35.1400825,9.36120605 Z" id="Combined-Shape"></path>
            <path d="M37.8072018,15.3223592 C32.5177676,18.9761965 31.2663721,22.8855196 34.4146615,26.0433051 C35.3182711,27.0143108 36.5601624,27.6393452 37.9093287,27.8026224 C39.0664735,27.908616 40.2208903,27.57353 41.1208918,26.8705343 C43.1279208,25.366997 44.1670543,22.2994868 43.9780689,18.4877097 C43.9308116,18.0665932 43.4270413,14.6460511 40.7116362,14.3901871 C39.6566623,14.3516898 38.6235569,14.6834977 37.8072018,15.3223592 Z M38.3860168,16.166626 C34.0119461,19.2752665 32.3575841,22.4597566 34.961046,25.1463623 C35.7082814,25.9724821 37.4070343,26.848877 38.2066189,26.848877 C39.4351593,27.022583 40.4511393,26.1553955 41.1099935,25.4377441 C42.5752617,23.841713 43.2220269,21.7624512 43.0793945,18.9493408 C43.0403153,18.59106 42.5576823,15.6966553 40.5984266,15.5195312 C39.7260213,15.4867782 39.0610975,15.6230903 38.3860168,16.166626 Z" id="Combined-Shape"></path>
            <path d="M21.7263441,19.1829974 C18.2080482,19.1829974 15.980397,21.8370402 15.59477,22.3181721 C7.37727275,29.5053536 7.70002191,32.9637626 8.66030517,34.9863407 C9.12038223,35.8632886 10.0927218,36.3843047 11.1162349,36.3020567 C12.5882527,36.3020567 14.500767,35.5500989 16.9250598,34.4752851 C18.377189,33.7872093 19.9719703,33.4174505 21.5926243,33.3926542 L21.7972301,33.3926542 C23.4253643,33.4114826 25.0284618,33.7786777 26.4884232,34.4678042 C28.9127161,35.565523 30.8256264,36.2945758 32.2972481,36.2945758 C33.3203652,36.3767817 34.2931008,35.8558076 34.7531778,34.9788598 C35.7054529,32.9639307 36.028202,29.5055637 27.7950843,22.3183402 C27.4172016,21.8369981 25.1897704,19.1829974 21.7263441,19.1829974 Z M21.7252296,20.2022705 C18.4611187,20.2022705 16.5198652,22.8804294 16.1620985,23.2987061 C8.53828751,29.5469516 8.97915582,33.1082764 9.55875651,34.3178711 C9.98559457,35.0802542 10.5558702,35.2021484 11.2564996,35.2021484 C12.6221691,35.2021484 14.8456132,34.0912601 17.0947591,33.1568604 C18.4419769,32.558675 20.2216624,32.2129631 21.7252296,32.1914063 C21.7252296,32.1914063 24.940123,32.5577616 26.2946072,33.1568604 C28.5437531,34.1111728 30.5718181,35.2021484 31.9371202,35.2021484 C32.8863205,35.273615 33.4422049,35.0802542 33.869043,34.3178711 C34.5764757,32.9472656 34.7489583,29.5469881 27.1106554,23.2987061 C26.7600734,22.8802467 24.9384352,20.2022705 21.7252296,20.2022705 Z" id="Combined-Shape"></path>
        </g>
    </g>
</svg>