<!-- Generated by IcoMoon.io -->
<svg version="1.1" xmlns="http://www.w3.org/2000/svg" width="45" height="45" viewBox="0 0 45 45">
<title>petdoor-1</title>
<path d="M6.5 3.993v37.013c0 2.202 1.793 3.993 4.004 3.993h23.992c2.215 0 4.004-1.788 4.004-3.993v-37.013c0-2.202-1.793-3.993-4.004-3.993h-23.992c-2.215 0-4.004 1.788-4.004 3.993zM7.5 4.007c0-1.66 1.347-3.007 3-3.007h24c1.657 0 3 1.334 3 3.007v36.987c0 1.66-1.347 3.007-3 3.007h-24c-1.657 0-3-1.334-3-3.007v-36.987z"></path>
<path d="M9.509 7.982l4.514 32.042c0.233 1.653 1.761 2.977 3.415 2.977h9.837c1.646 0 3.195-1.333 3.44-2.977l4.784-32.042c0.081-0.539-0.3-0.982-0.851-0.982h-24.279c-0.542 0-0.936 0.439-0.86 0.982zM10.452 8.494c-0.039-0.273 0.154-0.494 0.436-0.494h23.231c0.28 0 0.474 0.217 0.432 0.494l-4.761 31.531c-0.165 1.091-1.189 1.975-2.294 1.975h-10.255c-1.102 0-2.124-0.892-2.279-1.975l-4.51-31.531z"></path>
</svg>
