<?xml version="1.0" encoding="UTF-8" standalone="no"?>
<svg width="24px" height="45px" viewBox="0 0 24 45" version="1.1" xmlns="http://www.w3.org/2000/svg" xmlns:xlink="http://www.w3.org/1999/xlink">
    <!-- Generator: Sketch 39.1 (31720) - http://www.bohemiancoding.com/sketch -->
    <title>phone-1</title>
    <desc>Created with Sketch.</desc>
    <defs></defs>
    <g id="Page-1" stroke="none" stroke-width="1" fill="none" fill-rule="evenodd">
        <g id="phone-1">
            <path d="M0,1.99165754 C0,0.891695454 0.901627257,0 2.00086422,0 L20.9991358,0 C22.1041826,0 23,0.89889206 23,1.99165754 L23,43.0083425 C23,44.1083045 22.0983727,45 20.9991358,45 L2.00086422,45 C0.895817426,45 0,44.1011079 0,43.0083425 L0,1.99165754 Z M1,1.9996105 C1,1.44754087 1.43861485,1 1.99874609,1 L21.0012539,1 C21.5528461,1 22,1.45381562 22,1.9996105 L22,43.0003895 C22,43.5524591 21.5613852,44 21.0012539,44 L1.99874609,44 C1.44715386,44 1,43.5461844 1,43.0003895 L1,1.9996105 Z" id="Combined-Shape" fill="#0B0B09"></path>
            <polygon id="Fill-530" fill="#0A0B09" points="0 7 23.008 7 23.008 6.07 0 6.07"></polygon>
            <polygon id="Fill-531" fill="#0A0B09" points="0 38.73 23.008 38.73 23.008 37.73 0 37.73"></polygon>
            <polygon id="Fill-532" fill="#0A0B09" points="9 4 14.379 4 14.379 3 9 3"></polygon>
            <path d="M12.69,41.34 C12.69,42.08 12.086,42.68 11.344,42.68 C10.602,42.68 10,42.08 10,41.34 C10,40.6 10.602,40 11.344,40 C12.086,40 12.69,40.6 12.69,41.34" id="Fill-533" fill="#0A0B09"></path>
        </g>
    </g>
</svg>