<!-- Generated by IcoMoon.io -->
<svg version="1.1" xmlns="http://www.w3.org/2000/svg" width="45" height="45" viewBox="0 0 45 45">
<title>range-extender-1</title>
<path d="M39.746 24.831h-16.157v-5.591c0.868-0.418 1.456-1.29 1.456-2.3 0-1.406-1.139-2.545-2.545-2.545s-2.545 1.139-2.545 2.545c0 1.010 0.588 1.882 1.44 2.293l0.015 5.598h-16.157c-2.902 0-5.254 2.352-5.254 5.254v9.148c0 0.003 0 0.006 0 0.010 0 2.896 2.348 5.244 5.244 5.244 0.003 0 0.007 0 0.010 0h34.492c0.003 0 0.006 0 0.010 0 2.896 0 5.244-2.348 5.244-5.244 0-0.003 0-0.007 0-0.010v-9.148c0-2.902-2.352-5.254-5.254-5.254zM16.099 38.202h-11.568v-0.964h11.568z"></path>
<path d="M10.392 6.37c3.039-3.032 7.234-4.907 11.867-4.907s8.828 1.875 11.867 4.907c0.087 0.087 0.208 0.141 0.342 0.141 0.267 0 0.484-0.217 0.484-0.484 0-0.134-0.054-0.255-0.142-0.342-3.212-3.197-7.641-5.173-12.532-5.173s-9.32 1.976-12.533 5.174c-0.087 0.087-0.141 0.208-0.141 0.341 0 0.267 0.217 0.484 0.484 0.484 0.134 0 0.255-0.054 0.342-0.142z"></path>
<path d="M14.942 10.39c-0.088 0.088-0.142 0.209-0.142 0.342 0 0.267 0.217 0.484 0.484 0.484 0.134 0 0.255-0.054 0.342-0.142 1.699-1.693 4.044-2.739 6.632-2.739 2.603 0 4.959 1.058 6.661 2.768 0.088 0.088 0.209 0.142 0.343 0.142 0.267 0 0.484-0.217 0.484-0.484 0-0.134-0.054-0.255-0.142-0.342-1.876-1.888-4.474-3.057-7.346-3.057-2.857 0-5.444 1.157-7.317 3.028z"></path>
</svg>
