<!-- Generated by IcoMoon.io -->
<svg version="1.1" xmlns="http://www.w3.org/2000/svg" width="45" height="45" viewBox="0 0 45 45">
<title>remote-1</title>
<path d="M16.5 19h12c0.552 0 1 0.448 1 1v24c0 0.552-0.448 1-1 1h-12c-0.552 0-1-0.448-1-1v-24c0-0.552 0.448-1 1-1z"></path>
<path d="M9.79 28.484c-1.141-2.072-1.79-4.452-1.79-6.984 0-8.008 6.492-14.5 14.5-14.5s14.5 6.492 14.5 14.5c0 2.591-0.68 5.024-1.871 7.129-0.763 0.559-1.044-0.142-0.921-0.404 1.14-1.98 1.791-4.276 1.791-6.725 0-7.456-6.044-13.5-13.5-13.5s-13.5 6.044-13.5 13.5c0 2.41 0.632 4.673 1.738 6.632 0.17 0.713-0.623 0.914-0.954 0.332 0.002 0.007 0.003 0.014 0.005 0.020z"></path>
<path d="M3.428 34.443c-2.172-3.461-3.428-7.556-3.428-11.944 0-12.426 10.074-22.5 22.5-22.5s22.5 10.074 22.5 22.5c0 4.415-1.272 8.534-3.469 12.008-0.377 0.165-0.939-0.005-0.771-0.654 2.053-3.295 3.24-7.186 3.24-11.355 0-11.874-9.626-21.5-21.5-21.5s-21.5 9.626-21.5 21.5c0 4.16 1.182 8.045 3.228 11.336 0.402 0.74-0.402 1.092-0.8 0.608z"></path>
</svg>
