<?xml version="1.0" encoding="UTF-8" standalone="no"?>
<svg width="44px" height="44px" viewBox="0 0 44 44" version="1.1" xmlns="http://www.w3.org/2000/svg" xmlns:xlink="http://www.w3.org/1999/xlink">
    <!-- Generator: Sketch 39.1 (31720) - http://www.bohemiancoding.com/sketch -->
    <title>remote-3</title>
    <desc>Created with Sketch.</desc>
    <defs></defs>
    <g id="Page-1" stroke="none" stroke-width="1" fill="none" fill-rule="evenodd">
        <g id="remote-3" transform="translate(-23.000000, -21.000000)" fill="#010101">
            <g id="Layer_2">
                <g id="Layer_1-2">
                    <path d="M45,21.95 C37.3041148,21.9363543 30.2172457,26.1334126 26.5300034,32.8884906 C22.842761,39.6435686 23.1458798,47.8744331 27.32,54.34 C27.6209952,54.8039192 28.2410808,54.9359952 28.705,54.635 C29.1689192,54.3340048 29.3009952,53.7139192 29,53.25 C23.9082043,45.299466 25.4267202,34.8162248 32.5651976,28.6372673 C39.703675,22.4583099 50.296325,22.4583099 57.4348024,28.6372673 C64.5732798,34.8162248 66.0917957,45.299466 61,53.25 C60.7365376,53.7118613 60.8805835,54.2991348 61.3278566,54.5866675 C61.7751297,54.8742002 62.3692026,54.7614317 62.68,54.33 C66.848667,47.8648339 67.1487725,39.6378159 63.4622312,32.8861073 C59.7756898,26.1343986 52.6925958,21.9387261 45,21.95 L45,21.95 Z" id="Shape"></path>
                    <path d="M45,29.21 C40.3111264,29.204666 35.9432478,31.5907975 33.4142553,35.5391845 C30.8852627,39.4875716 30.5443544,44.4530291 32.51,48.71 C32.7419596,49.2125791 33.3374209,49.4319595 33.84,49.2 C34.3425791,48.9680404 34.5619596,48.3725791 34.33,47.87 C32.0476416,42.9317415 33.4503,37.072619 37.7214801,33.7032603 C41.9926601,30.3339016 48.0173399,30.3339016 52.2885199,33.7032603 C56.5597,37.072619 57.9623584,42.9317415 55.68,47.87 C55.4480404,48.3725791 55.6674209,48.9680404 56.17,49.2 C56.6725791,49.4319595 57.2680404,49.2125791 57.5,48.71 C58.3287403,46.9204363 58.7586615,44.9721428 58.76,43 C58.765528,35.393416 52.606578,29.221038 45,29.21 L45,29.21 Z" id="Shape"></path>
                    <path d="M49.59,40.5 L40.41,40.5 C40.2437821,40.5002651 40.0797458,40.5378568 39.93,40.61 C39.7778232,40.6820407 39.6417685,40.7840817 39.53,40.91 C39.2883579,41.1867697 39.1567,41.5426018 39.16,41.91 L39.16,63.23 L39.16,63.23 C39.1570569,63.5075054 39.2296479,63.7805857 39.37,64.02 C39.4134279,64.0944689 39.4636411,64.1647675 39.52,64.23 C39.6317685,64.3559183 39.7678232,64.4579593 39.92,64.53 C40.069858,64.6018227 40.2338207,64.6393975 40.4,64.64 L49.58,64.64 C49.9981385,64.6202244 50.3763538,64.3857309 50.58,64.02 C50.7203521,63.7805857 50.7929431,63.5075054 50.79,63.23 L50.79,63.23 L50.79,41.91 C50.836511,41.1930251 50.3051879,40.5687205 49.59,40.5 L49.59,40.5 Z M48.83,62.64 L41.17,62.64 L41.17,42.5 L48.84,42.5 L48.83,62.64 Z" id="Shape"></path>
                </g>
            </g>
        </g>
    </g>
</svg>