<!-- Generated by IcoMoon.io -->
<svg version="1.1" xmlns="http://www.w3.org/2000/svg" width="45" height="45" viewBox="0 0 45 45">
<title>router-1</title>
<path d="M34.113 12.607c-0.253-0.493 0.373-1.038 0.7-0.783 3.177 2.938 4.773 9.211 0 14.524-0.56 0.143-0.896-0.141-0.7-0.777 5.239-6.238 1.292-11.661 0-12.964z"></path>
<path d="M10.56 12.607c0.253-0.493-0.373-1.038-0.7-0.783-3.177 2.938-4.773 9.211 0 14.524 0.56 0.143 0.896-0.141 0.7-0.777-5.239-6.238-1.292-11.661 0-12.964z"></path>
<path d="M6.915 7.453c0.253-0.493-0.373-1.038-0.7-0.783-3.177 2.938-10.132 13.243 0 24.298 0.56 0.143 0.896-0.141 0.7-0.777-10.574-12.446-1.292-21.435 0-22.738z"></path>
<path d="M38.085 7.453c-0.253-0.493 0.373-1.038 0.7-0.783 3.177 2.938 10.132 13.243 0 24.298-0.56 0.143-0.896-0.141-0.7-0.777 10.574-12.446 1.292-21.435 0-22.738z"></path>
<path d="M15.501 5.9h4.882c0.539 0 0.977 0.437 0.977 0.977v31.247c0 0.539-0.437 0.977-0.977 0.977h-4.882c-0.539 0-0.977-0.437-0.977-0.977v-31.247c0-0.539 0.437-0.977 0.977-0.977z"></path>
<path d="M24.289 17.617h4.882c0.539 0 0.977 0.437 0.977 0.977v19.529c0 0.539-0.437 0.977-0.977 0.977h-4.882c-0.539 0-0.977-0.437-0.977-0.977v-19.529c0-0.539 0.437-0.977 0.977-0.977z"></path>
</svg>
