<!-- Generated by IcoMoon.io -->
<svg version="1.1" xmlns="http://www.w3.org/2000/svg" width="45" height="45" viewBox="0 0 45 45">
<title>router-2</title>
<path d="M34.113 12.607c-0.253-0.493 0.373-1.038 0.7-0.783 3.177 2.938 4.774 9.211 0 14.524-0.56 0.143-0.896-0.141-0.7-0.777 5.239-6.238 1.292-11.661 0-12.964z"></path>
<path d="M10.56 12.607c0.253-0.493-0.373-1.038-0.7-0.783-3.177 2.938-4.774 9.211 0 14.524 0.56 0.143 0.896-0.141 0.7-0.777-5.239-6.238-1.292-11.661 0-12.964z"></path>
<path d="M6.915 7.453c0.253-0.493-0.373-1.038-0.7-0.783-3.177 2.938-10.132 13.243 0 24.298 0.56 0.143 0.896-0.141 0.7-0.777-10.574-12.446-1.292-21.435 0-22.738z"></path>
<path d="M38.085 7.453c-0.253-0.493 0.373-1.038 0.7-0.783 3.177 2.938 10.132 13.243 0 24.298-0.56 0.143-0.896-0.141-0.7-0.777 10.574-12.446 1.292-21.435 0-22.738z"></path>
<path d="M14.525 6.876v31.249c0 0.531 0.438 0.976 0.979 0.976h4.877c0.552 0 0.979-0.437 0.979-0.976v-31.249c0-0.531-0.438-0.976-0.979-0.976h-4.877c-0.552 0-0.979 0.437-0.979 0.976zM15.501 7.367c0-0.271 0.21-0.491 0.486-0.491h3.91c0.268 0 0.486 0.216 0.486 0.491v30.265c0 0.271-0.21 0.491-0.486 0.491h-3.91c-0.268 0-0.486-0.216-0.486-0.491v-30.265z"></path>
<path d="M23.313 18.597v19.524c0 0.55 0.438 0.979 0.979 0.979h4.877c0.552 0 0.979-0.438 0.979-0.979v-19.524c0-0.55-0.438-0.979-0.979-0.979h-4.877c-0.552 0-0.979 0.438-0.979 0.979zM24.29 19.077c0-0.266 0.21-0.483 0.486-0.483h3.91c0.268 0 0.486 0.219 0.486 0.483v18.564c0 0.266-0.21 0.483-0.486 0.483h-3.91c-0.268 0-0.486-0.219-0.486-0.483v-18.564z"></path>
</svg>
