<?xml version="1.0" encoding="UTF-8" standalone="no"?>
<svg width="45px" height="45px" viewBox="0 0 45 45" version="1.1" xmlns="http://www.w3.org/2000/svg" xmlns:xlink="http://www.w3.org/1999/xlink">
    <!-- Generator: Sketch 40.3 (33839) - http://www.bohemiancoding.com/sketch -->
    <title>scene-2</title>
    <desc>Created with Sketch.</desc>
    <defs></defs>
    <g id="Page-1" stroke="none" stroke-width="1" fill="none" fill-rule="evenodd">
        <g id="scene-2" fill="#000000">
            <path d="M7,30 L7,31 L1.99821383,31 C0.894630804,31 0,30.1056623 0,29.0017862 L0,1.99821383 C0,0.894630804 0.894337654,0 1.99821383,0 L29.0017862,0 C30.1053692,0 31,0.894337654 31,1.99821383 L31,7 L30,7 L30,1.86182565 C30,1.30886162 29.5444793,0.860595703 29.0017544,0.860595703 L1.99824564,0.860595703 C1.4469298,0.860595703 1,1.31830616 1,1.86363996 L1,28.9969557 C1,29.5509218 1.45009716,30 1.99455905,30 L7,30 Z" id="Combined-Shape"></path>
            <path d="M14,37 L14,38 L8.99821383,38 C7.8946308,38 7,37.1056623 7,36.0017862 L7,8.99821383 C7,7.8946308 7.89433765,7 8.99821383,7 L36.0017862,7 C37.1053692,7 38,7.89433765 38,8.99821383 L38,14 L37,14 L37,8.99455905 C37,8.44527926 36.5444793,8 36.0017544,8 L8.99824564,8 C8.4469298,8 8,8.45552075 8,8.99824564 L8,36.0017544 C8,36.5530702 8.45009716,37 8.99455905,37 L14,37 Z" id="Combined-Shape"></path>
            <path d="M14,15.9982138 C14,14.8946308 14.8943377,14 15.9982138,14 L43.0017862,14 C44.1053692,14 45,14.8943377 45,15.9982138 L45,43.0017862 C45,44.1053692 44.1056623,45 43.0017862,45 L15.9982138,45 C14.8946308,45 14,44.1056623 14,43.0017862 L14,15.9982138 Z M15,15.9982456 C15,15.4469298 15.4555207,15 15.9982456,15 L43.0017544,15 C43.5530702,15 44,15.4555207 44,15.9982456 L44,43.0017544 C44,43.5530702 43.5444793,44 43.0017544,44 L15.9982456,44 C15.4469298,44 15,43.5444793 15,43.0017544 L15,15.9982456 Z" id="Combined-Shape"></path>
        </g>
    </g>
</svg>