<?xml version="1.0" encoding="UTF-8" standalone="no"?>
<svg width="45px" height="45px" viewBox="0 0 45 45" version="1.1" xmlns="http://www.w3.org/2000/svg" xmlns:xlink="http://www.w3.org/1999/xlink">
    <!-- Generator: Sketch 40.3 (33839) - http://www.bohemiancoding.com/sketch -->
    <title>scene-1</title>
    <desc>Created with Sketch.</desc>
    <defs></defs>
    <g id="Page-1" stroke="none" stroke-width="1" fill="none" fill-rule="evenodd">
        <g id="scene-1" fill="#000000">
            <path d="M31,6 L31,1.99821383 C31,0.894337654 30.1053692,0 29.0017862,0 L1.99821383,0 C0.894337654,0 0,0.894630804 0,1.99821383 L0,29.0017862 C0,30.1056623 0.894630804,31 1.99821383,31 L6,31 L6,7.99821383 C6,6.8946308 6.89433765,6 7.99821383,6 L31,6 Z" id="Combined-Shape"></path>
            <path d="M38,13 L38,8.99821383 C38,7.89433765 37.1053692,7 36.0017862,7 L8.99821383,7 C7.89433765,7 7,7.8946308 7,8.99821383 L7,36.0017862 C7,37.1056623 7.8946308,38 8.99821383,38 L13,38 L13,14.9982138 C13,13.8946308 13.8943377,13 14.9982138,13 L38,13 Z" id="Combined-Shape"></path>
            <rect id="Rectangle-8" x="14" y="14" width="31" height="31" rx="2"></rect>
        </g>
    </g>
</svg>