<!-- Generated by IcoMoon.io -->
<svg version="1.1" xmlns="http://www.w3.org/2000/svg" width="45" height="45" viewBox="0 0 45 45">
<title>security-1</title>
<path d="M18 15.070c0-2.11 1.47-3.13 4.5-3.13s4.52 1 4.52 3.13v6h0.8v-5.74c-0.090-3.72-3.12-4.15-5.4-4.15s-5.21 0.43-5.21 4.15v5.71h0.79z"></path>
<path d="M36.060 13.64v-10h-6.060v5.5l-7.54-6.64-22.46 18.1h7v21.9h31.070v-21.9h6.93zM37.32 19.85v21.9h-29.62v-21.9h-5.57l20.31-16.35 8.34 7.31v-6.38h4.52v9.57l0.29 0.23 7.21 5.62h-5.5z"></path>
<path d="M30.8 21.79c-0.387-0.401-0.93-0.649-1.53-0.65h-13.45c-0.6 0.001-1.143 0.249-1.529 0.649-0.378 0.399-0.611 0.939-0.611 1.533 0 0.010 0 0.019 0 0.029v11.089c-0 0.006-0 0.013-0 0.020 0 1.188 0.955 2.153 2.139 2.17h13.462c1.186-0.017 2.14-0.982 2.14-2.17 0-0.007-0-0.014-0-0.021v-11.089c0-0.007 0-0.015 0-0.023 0-0.595-0.232-1.136-0.611-1.538zM30.67 34.44c0 0.006 0 0.013 0 0.020 0 0.774-0.619 1.403-1.389 1.42l-13.462 0c-0.771-0.017-1.39-0.646-1.39-1.42 0-0.007 0-0.014 0-0.021v-11.089c0.002-0.388 0.154-0.739 0.401-1.001 0.25-0.258 0.602-0.419 0.991-0.419 0.003 0 0.006 0 0.009 0h13.45c0.003 0 0.006-0 0.009-0 0.389 0 0.74 0.161 0.991 0.42 0.249 0.26 0.404 0.612 0.41 0.999z"></path>
<path d="M22.54 25.44c-1.261 0.005-2.28 1.029-2.28 2.29 0 0.757 0.368 1.429 0.934 1.846l0.006 2.744h2.68v-2.73c0.573-0.421 0.94-1.093 0.94-1.85 0-1.261-1.020-2.284-2.28-2.29z"></path>
</svg>
