<!-- Generated by IcoMoon.io -->
<svg version="1.1" xmlns="http://www.w3.org/2000/svg" width="45" height="45" viewBox="0 0 45 45">
<title>signal-1</title>
<path d="M10 44.502c0 0.275 0.232 0.498 0.5 0.498v0c0.276 0 0.5-0.22 0.5-0.498v-13.003c0-0.275-0.232-0.498-0.5-0.498v0c-0.276 0-0.5 0.22-0.5 0.498v13.003z"></path>
<path d="M19 18.492c0-0.272-0.232-0.492-0.5-0.492v0c-0.276 0-0.5 0.233-0.5 0.492v26.017c0 0.272 0.232 0.492 0.5 0.492v0c0.276 0 0.5-0.233 0.5-0.492v-26.017z"></path>
<path d="M27 7.508c0-0.281-0.232-0.508-0.5-0.508v0c-0.276 0-0.5 0.223-0.5 0.508v36.983c0 0.281 0.232 0.508 0.5 0.508v0c0.276 0 0.5-0.223 0.5-0.508v-36.983z"></path>
<path d="M34 44.495c0 0.279 0.232 0.505 0.5 0.505v0c0.276 0 0.5-0.221 0.5-0.505v-43.989c0-0.279-0.232-0.505-0.5-0.505v0c-0.276 0-0.5 0.221-0.5 0.505v43.989z"></path>
</svg>
