<!-- Generated by IcoMoon.io -->
<svg version="1.1" xmlns="http://www.w3.org/2000/svg" width="45" height="45" viewBox="0 0 45 45">
<title>siren-2</title>
<path d="M7 8.998c0-4.97 4.021-8.998 9.008-8.998h12.984c4.975 0 9.008 4.033 9.008 8.998v27.003c0 4.97-4.021 8.998-9.008 8.998h-12.984c-4.975 0-9.008-4.033-9.008-8.998v-27.003zM7.941 9v27c0 4.426 3.582 8 8.001 8h12.998c4.416 0 8.001-3.582 8.001-8v-27c0-4.426-3.582-8-8.001-8h-12.998c-4.416 0-8.001 3.582-8.001 8z"></path>
<path d="M24.441 12.085c0 1.105-0.895 2-2 2s-2-0.895-2-2c0-1.105 0.895-2 2-2s2 0.895 2 2z"></path>
<path d="M15.441 24.433c0-3.862 3.142-6.993 7-6.993 3.866 0 7 3.144 7 6.993v7.015c0 3.862-3.142 6.993-7 6.993-3.866 0-7-3.144-7-6.993v-7.015zM16.441 24.439v7.003c0 3.317 2.686 5.999 6 5.999 3.307 0 6-2.686 6-5.999v-7.003c0-3.317-2.686-5.999-6-5.999-3.307 0-6 2.686-6 5.999z"></path>
<path d="M25.941 32.412c0 1.933-1.567 3.5-3.5 3.5s-3.5-1.567-3.5-3.5c0-1.933 1.567-3.5 3.5-3.5s3.5 1.567 3.5 3.5z"></path>
</svg>
