<?xml version="1.0" encoding="UTF-8" standalone="no"?>
<svg width="35px" height="51px" viewBox="0 0 35 51" version="1.1" xmlns="http://www.w3.org/2000/svg" xmlns:xlink="http://www.w3.org/1999/xlink">
    <!-- Generator: Sketch 39.1 (31720) - http://www.bohemiancoding.com/sketch -->
    <title>siren-3</title>
    <desc>Created with Sketch.</desc>
    <defs></defs>
    <g id="Page-1" stroke="none" stroke-width="1" fill="none" fill-rule="evenodd">
        <g id="siren-3" transform="translate(-29.000000, -21.000000)" fill="#010101">
            <g id="Layer_2">
                <g id="Layer_1-2">
                    <path d="M29.34,34.7 L29.34,58.7 C29.34,65.8797017 35.1602983,71.7 42.34,71.7 L50.34,71.7 C57.5197017,71.7 63.34,65.8797017 63.34,58.7 L63.34,34.7 C63.34,31.2521856 61.9703611,27.9455848 59.5323882,25.5076118 C57.0944152,23.0696389 53.7878144,21.7 50.34,21.7 L42.34,21.7 C38.8921856,21.7 35.5855848,23.0696389 33.1476118,25.5076118 C30.7096389,27.9455848 29.34,31.2521856 29.34,34.7 L29.34,34.7 Z M61.34,34.7 L61.34,58.7 C61.34,64.7751322 56.4151322,69.7 50.34,69.7 L42.34,69.7 C36.2648678,69.7 31.34,64.7751322 31.34,58.7 L31.34,34.7 C31.34,28.6248678 36.2648678,23.7 42.34,23.7 L50.34,23.7 C56.4151322,23.7 61.34,28.6248678 61.34,34.7 L61.34,34.7 Z" id="Shape"></path>
                    <path d="M45.26,40.61 C41.26,40.61 38.42,45.79 38.42,49.29 L38.42,56.29 C38.42,60.02 41.42,64.35 45.26,64.35 L47.41,64.35 C51.26,64.35 54.25,60.02 54.25,56.29 L54.25,49.29 C54.25,45.8 51.38,40.61 47.41,40.61 L45.26,40.61 Z M52.26,49.29 L52.26,56.29 C52.26,59.02 50.03,62.35 47.42,62.35 L45.26,62.35 C42.66,62.35 40.42,59.02 40.42,56.29 L40.42,49.29 C40.42,46.37 42.76,42.61 45.26,42.61 L47.41,42.61 C49.91,42.61 52.25,46.37 52.25,49.29 L52.26,49.29 Z" id="Shape"></path>
                    <circle id="Oval" cx="46.34" cy="57.36" r="3.97"></circle>
                    <circle id="Oval" cx="46.34" cy="34.94" r="1.99"></circle>
                </g>
            </g>
        </g>
    </g>
</svg>