<!-- Generated by IcoMoon.io -->
<svg version="1.1" xmlns="http://www.w3.org/2000/svg" width="45" height="45" viewBox="0 0 45 45">
<title>siren-1</title>
<path d="M7 8.998c0-4.97 4.021-8.998 9.008-8.998h12.984c4.975 0 9.008 4.033 9.008 8.998v27.003c0 4.97-4.021 8.998-9.008 8.998h-12.984c-4.975 0-9.008-4.033-9.008-8.998v-27.003zM15.441 24.433v7.015c0 3.849 3.134 6.993 7 6.993 3.858 0 7-3.131 7-6.993v-7.015c0-3.849-3.134-6.993-7-6.993-3.858 0-7 3.131-7 6.993zM22.441 14.085c1.105 0 2-0.895 2-2s-0.895-2-2-2c-1.105 0-2 0.895-2 2s0.895 2 2 2z"></path>
<path d="M25.941 32.412c0 1.933-1.567 3.5-3.5 3.5s-3.5-1.567-3.5-3.5c0-1.933 1.567-3.5 3.5-3.5s3.5 1.567 3.5 3.5z"></path>
</svg>
