<!-- Generated by IcoMoon.io -->
<svg version="1.1" xmlns="http://www.w3.org/2000/svg" width="45" height="45" viewBox="0 0 45 45">
<title>smoke-1</title>
<path d="M34.965 9.24l-0.3-0.381-0.878 0.381v0.439c0.393 4.181-0.37 5.972-1.074 6.734-0.21 0.231-0.474 0.409-0.772 0.516-1.642-8.659-10.143-15.889-11.125-16.698l-0.3-0.231-0.681 0.312v0.358c-1.028 11.169-7.681 18.457-8.836 19.116-0.71-1.201-1.242-2.601-1.513-4.092l-0.173-0.586-1.016 0.115v0.485c-0.321 2.146-1.139 4.056-2.334 5.671-1.869 2.492-3.018 5.672-3.048 9.118-0 7.503 9.725 13.613 10.834 14.283l0.416 0.208 0.647-0.601-0.15-0.381c-5.059-12.486 1.34-17.857 2.622-18.769 1.432 0.705 3.396 4.066 4.62 7.011l0.15 0.312 0.67 0.092 0.219-0.231c2.31-2.449 2.171-8.536 1.987-11.296 11.204 8.166 6.491 21.391 5.902 22.904l-0.139 0.416 0.612 0.554 0.358-0.15c2.61-1.155 9.737-7.935 10.395-16.609 0.52-7.75-5.821-17.187-7.092-19z"></path>
</svg>
