<!-- Generated by IcoMoon.io -->
<svg version="1.1" xmlns="http://www.w3.org/2000/svg" width="45" height="45" viewBox="0 0 45 45">
<title>smoke-2</title>
<path d="M31.331 45.023l-0.612-0.554 0.139-0.416c0.589-1.513 5.29-14.738-5.902-22.904 0.185 2.761 0.312 8.836-1.987 11.296l-0.219 0.231-0.67-0.092-0.15-0.312c-1.259-2.957-3.211-6.306-4.62-7.011-1.282 0.924-7.681 6.283-2.622 18.769v0l0.15 0.381-0.681 0.612-0.416-0.208c-1.109-0.728-10.834-6.838-10.834-14.334 0.007-3.44 1.129-6.617 3.022-9.191 1.141-1.537 1.959-3.448 2.271-5.524l0.009-0.555 1.016-0.115 0.162 0.508c0.311 1.569 0.869 2.963 1.637 4.213 1.123-0.725 7.788-8.002 8.781-19.183v-0.358l0.705-0.3 0.3 0.231c0.97 0.809 9.483 8.085 11.146 16.69 0.311-0.11 0.575-0.289 0.784-0.518 0.717-0.764 1.48-2.554 1.076-6.735v-0.439l0.866-0.37 0.3 0.381c1.282 1.813 7.623 11.262 7.080 19-0.612 8.674-7.739 15.489-10.395 16.609zM24.308 19.324l0.37 0.196c11.308 7.415 8.975 19.37 7.716 23.563 3.015-2.16 8.004-8.085 8.489-14.946 0.416-5.983-3.719-13.352-5.775-16.632 0 2.657-0.462 4.62-1.49 5.671-0.518 0.57-1.254 0.934-2.075 0.959l-0.466 0-0.127-0.497c-1.155-7.346-7.716-13.756-10.083-15.87-1.386 11.55-8.513 19.012-9.76 19.197-0.358 0-1.155 0.162-2.16-2.968-0.576 1.5-1.276 2.795-2.117 3.983-1.716 2.304-2.769 5.274-2.769 8.49 0 0.004 0 0.009 0 0.013 0 5.578 6.087 10.395 8.94 12.416-4.62-13.317 3.465-18.584 3.881-18.815l0.243-0.15 0.3 0.092c2.091 0.647 4.216 4.759 5.198 6.93 1.455-2.518 1.398-7.843 1.097-10.834v-0.358z"></path>
</svg>
