<!-- Generated by IcoMoon.io -->
<svg version="1.1" xmlns="http://www.w3.org/2000/svg" width="45" height="45" viewBox="0 0 45 45">
<title>softener-1</title>
<path d="M34.401-0.005h-19.976c-0.986 0.021-1.777 0.825-1.777 1.814 0 0 0 0 0 0v1.194h-2.82c-0.582 0.026-1.043 0.504-1.043 1.089 0 0 0 0.001 0 0.001v2.021c0 0.602 0.488 1.090 1.090 1.090h2.82v1.88c0.014 0.961 0.774 1.74 1.726 1.786l1.217 0c-0.063 0.173-0.101 0.373-0.103 0.582v31.737c0 1.002 0.812 1.814 1.814 1.814h14.166c1-0.005 1.809-0.814 1.814-1.814v-31.736c-0.001-0.209-0.038-0.41-0.107-0.595l1.179 0.012c1.002 0 1.814-0.812 1.814-1.814v-7.248c0-1.002-0.812-1.814-1.814-1.814zM24.333 35.219c-3.068 0-5.556-2.487-5.556-5.556 0-3.065 5.556-9.88 5.556-9.88s5.556 6.806 5.556 9.88c0 3.068-2.487 5.556-5.556 5.556z"></path>
</svg>
