<?xml version="1.0" encoding="UTF-8" standalone="no"?>
<svg width="46px" height="45px" viewBox="0 0 46 45" version="1.1" xmlns="http://www.w3.org/2000/svg" xmlns:xlink="http://www.w3.org/1999/xlink">
    <!-- Generator: Sketch 40.3 (33839) - http://www.bohemiancoding.com/sketch -->
    <title>sun-2</title>
    <desc>Created with Sketch.</desc>
    <defs></defs>
    <g id="Page-1" stroke="none" stroke-width="1" fill="none" fill-rule="evenodd">
        <g id="sun-2" fill="#000000">
            <path d="M33.8532715,22.5688477 C33.8532715,16.3366325 28.8010628,11.2844238 22.5688477,11.2844238 C16.3366325,11.2844238 11.2844238,16.3366325 11.2844238,22.5688477 C11.2844238,28.8010628 16.3366325,33.8532715 22.5688477,33.8532715 C28.8010628,33.8532715 33.8532715,28.8010628 33.8532715,22.5688477 Z M32.8549995,22.5699997 C32.8549995,16.8897512 28.2502482,12.2849998 22.5699997,12.2849998 C16.8897512,12.2849998 12.2849998,16.8897512 12.2849998,22.5699997 C12.2849998,28.2502482 16.8897512,32.8549995 22.5699997,32.8549995 C28.2502482,32.8549995 32.8549995,28.2502482 32.8549995,22.5699997 Z" id="Combined-Shape"></path>
            <rect id="Rectangle-10" x="22" y="0" width="1" height="10" rx="0.5"></rect>
            <rect id="Rectangle-10" x="22" y="35" width="1" height="10" rx="0.5"></rect>
            <rect id="Rectangle-10" transform="translate(40.048853, 22.568848) scale(1, -1) rotate(90.000000) translate(-40.048853, -22.568848) " x="39.5488528" y="17.5688477" width="1" height="10" rx="0.5"></rect>
            <rect id="Rectangle-10" transform="translate(5.000000, 22.568848) scale(1, -1) rotate(90.000000) translate(-5.000000, -22.568848) " x="4.5" y="17.5688477" width="1" height="10" rx="0.5"></rect>
            <rect id="Rectangle-10" transform="translate(35.048853, 10.000000) rotate(45.000000) translate(-35.048853, -10.000000) " x="34.5488528" y="5" width="1" height="10" rx="0.5"></rect>
            <rect id="Rectangle-10" transform="translate(9.623711, 35.000000) rotate(45.000000) translate(-9.623711, -35.000000) " x="9.1237107" y="30" width="1" height="10" rx="0.5"></rect>
            <rect id="Rectangle-10" transform="translate(35.048853, 35.000000) scale(1, -1) rotate(45.000000) translate(-35.048853, -35.000000) " x="34.5488528" y="30" width="1" height="10" rx="0.5"></rect>
            <rect id="Rectangle-10" transform="translate(10.000000, 10.000000) scale(1, -1) rotate(45.000000) translate(-10.000000, -10.000000) " x="9.5" y="5" width="1" height="10" rx="0.5"></rect>
        </g>
    </g>
</svg>