<svg data-name="Layer 1" xmlns="http://www.w3.org/2000/svg" viewBox="0 0 45 45"><path d="M22.32 35.59a3.7 3.7 0 0 1-3.7-2.24 11.52 11.52 0 0 1-4.89-2.9 7.62 7.62 0 0 0-3 5.83c0 4.81 5.18 8.72 11.57 8.72s11.57-3.91 11.57-8.72a7.65 7.65 0 0 0-3-5.83 11.62 11.62 0 0 1-4.9 2.9 3.69 3.69 0 0 1-3.65 2.24zM19.48 26a2.84 2.84 0 1 1 5.67 0 2.78 2.78 0 0 1-.64 1.77A13.07 13.07 0 0 1 30.27 30a11.54 11.54 0 0 0 3.62-8.39v-10A11.57 11.57 0 0 0 22.32 0a11.57 11.57 0 0 0-11.57 11.57v10A11.53 11.53 0 0 0 14.36 30a13.07 13.07 0 0 1 5.76-2.24 2.84 2.84 0 0 1-.64-1.76zm2.84-22a1.56 1.56 0 1 1-1.56 1.5 1.56 1.56 0 0 1 1.56-1.56zm-4.74 12.67a4.74 4.74 0 1 1 4.74 4.74 4.74 4.74 0 0 1-4.74-4.74z"/><path d="M22.32 29.92c2 0 3.58 1.14 3.75 2.59a11.66 11.66 0 0 0 4.2-2.51 13.07 13.07 0 0 0-5.76-2.24 2.8 2.8 0 0 1-4.39 0A13.07 13.07 0 0 0 14.36 30a11.66 11.66 0 0 0 4.2 2.55c.17-1.49 1.78-2.63 3.76-2.63z"/><path d="M22.32 29.92c-2 0-3.59 1.14-3.76 2.59a11.68 11.68 0 0 0 3.76.63 11.66 11.66 0 0 0 3.75-.63c-.17-1.45-1.77-2.59-3.75-2.59z"/></svg>