<svg data-name="Layer 1" xmlns="http://www.w3.org/2000/svg" viewBox="0 0 45 45"><path d="M33.5 35.49c0 4.69-5 8.51-11.19 8.51s-11.19-3.82-11.19-8.51a7.36 7.36 0 0 1 2.49-5.34c-.23-.23-.46-.48-.67-.73a8.32 8.32 0 0 0-2.82 6.07c0 5.24 5.47 9.51 12.19 9.51s12.19-4.27 12.19-9.51a8.32 8.32 0 0 0-2.82-6.07c-.21.25-.44.5-.67.73a7.32 7.32 0 0 1 2.49 5.34z"/><path d="M18.92 33.33a3.57 3.57 0 0 0 3.39 1.88 3.57 3.57 0 0 0 3.39-1.88 12 12 0 0 1-6.78 0zM34.5 12.19a12.19 12.19 0 0 0-24.38 0v9.44a12.15 12.15 0 0 0 2.82 7.79 9.32 9.32 0 0 1 .76-.65 11.15 11.15 0 0 1-2.58-7.14v-9.44a11.19 11.19 0 0 1 22.38 0v9.44a11.15 11.15 0 0 1-2.58 7.14 7.89 7.89 0 0 1 .76.65 12.15 12.15 0 0 0 2.82-7.79z"/><path d="M30.25 29.5c.27.21.52.43.76.65.23-.23.46-.48.67-.73a7.89 7.89 0 0 0-.76-.65 9.19 9.19 0 0 1-.67.73zM14.37 29.5c-.23-.23-.46-.48-.67-.73a9.32 9.32 0 0 0-.76.65c.21.25.44.5.67.73.24-.22.49-.44.76-.65z"/><path d="M18.92 33.33a2.17 2.17 0 0 1-.18-.79 2.72 2.72 0 0 1 0-.3 11.11 11.11 0 0 1-4.41-2.74c-.27.21-.52.43-.76.65a12.17 12.17 0 0 0 5.35 3.18zM25.84 32.24a1.45 1.45 0 0 1 0 .3 2 2 0 0 1-.18.79A12.17 12.17 0 0 0 31 30.15c-.24-.22-.49-.44-.76-.65a11.11 11.11 0 0 1-4.4 2.74z"/><path d="M18.92 33.33a12 12 0 0 0 6.78 0 2 2 0 0 0 .18-.79 1.45 1.45 0 0 0 0-.3 11 11 0 0 1-7.06 0 2.72 2.72 0 0 0 0 .3 2.17 2.17 0 0 0 .1.79zM22.31 7.94a1.47 1.47 0 1 0-1.47-1.47 1.47 1.47 0 0 0 1.47 1.47z"/><circle cx="22.31" cy="17.01" r="4.47" transform="rotate(-13.28 22.312 17.007)"/><path d="M24.94 26.21a2.31 2.31 0 0 0 0-.46 2.68 2.68 0 0 0-5.35 0 3.42 3.42 0 0 0 0 .46 15.15 15.15 0 0 1 5.26 0z"/><path d="M24.58 27.16a2.79 2.79 0 0 0 .36-.95 15.15 15.15 0 0 0-5.26 0 2.62 2.62 0 0 0 .37.95 14.34 14.34 0 0 1 4.53 0z"/><path d="M22.31 28.42a2.67 2.67 0 0 0 2.27-1.26 14.34 14.34 0 0 0-4.53 0 2.64 2.64 0 0 0 2.26 1.26z"/></svg>