<svg data-name="Layer 1" xmlns="http://www.w3.org/2000/svg" viewBox="0 0 45 45"><path d="M31.69 0H13.63a6.6 6.6 0 0 0-6.58 6.59v31.82A6.6 6.6 0 0 0 13.63 45h18.06a6.6 6.6 0 0 0 6.58-6.59V6.59A6.6 6.6 0 0 0 31.69 0zm-9 38.78a4.84 4.84 0 1 1 4.84-4.84 4.84 4.84 0 0 1-4.87 4.84zM34.31 19.4A5.27 5.27 0 0 1 29 24.68H16.29A5.27 5.27 0 0 1 11 19.4V8.26A5.27 5.27 0 0 1 16.29 3H29a5.27 5.27 0 0 1 5.28 5.28z"/><path d="M28.71 4h-12.1a4.53 4.53 0 0 0-4.53 4.53v10.64a4.53 4.53 0 0 0 4.53 4.53h12.1a4.53 4.53 0 0 0 4.53-4.53V8.49A4.53 4.53 0 0 0 28.71 4zm-9.34 9.35h-2V6.81h2zm5.13 6.56h-3.68v-2a1.65 1.65 0 0 1 1.65-1.65h.4a1.63 1.63 0 0 1 1.63 1.63zm3.5-7.38h-2V7.58h2zM22.66 31a3 3 0 1 0 3 3 3 3 0 0 0-3-3z"/></svg>