<svg data-name="Layer 1" xmlns="http://www.w3.org/2000/svg" viewBox="0 0 45 45"><path d="M33.89 0H11.72a5 5 0 0 0-5 5v35a5 5 0 0 0 5 5h22.17a5 5 0 0 0 5-5V5a5 5 0 0 0-5-5zm4 40a4 4 0 0 1-4 4H11.72a4 4 0 0 1-4-4V5a4 4 0 0 1 4-4h22.17a4 4 0 0 1 4 4z"/><path d="M30.45 4.21H15.16A3.75 3.75 0 0 0 11.41 8v14a3.75 3.75 0 0 0 3.75 3.75h15.29A3.75 3.75 0 0 0 34.2 22V8a3.75 3.75 0 0 0-3.75-3.79zm2.75 17.72a2.75 2.75 0 0 1-2.75 2.75H15.16a2.76 2.76 0 0 1-2.75-2.75V8a2.76 2.76 0 0 1 2.75-2.75h15.29A2.75 2.75 0 0 1 33.2 8zM22.81 29.37a4.32 4.32 0 1 0 4.31 4.32 4.32 4.32 0 0 0-4.31-4.32zm0 7.09a2.78 2.78 0 1 1 2.77-2.78 2.77 2.77 0 0 1-2.77 2.78z"/><path d="M17.86 8.4h1.88v6.06h-1.88zM25.88 9.12h1.88v4.62h-1.88zM23.53 17.15h-1.44a1 1 0 0 0-1 1v2.43h3.43v-2.44a1 1 0 0 0-.99-.99z"/></svg>