<!-- Generated by IcoMoon.io -->
<svg version="1.1" xmlns="http://www.w3.org/2000/svg" width="45" height="45" viewBox="0 0 45 45">
<title>symbolpad-1</title>
<path d="M3.575 38.54c0 3.41 2.362 6.46 4.322 6.46 10.121 0 16.222 0 28.38 0 2.323 0 5.093-2.857 5.093-7.053 0-9.541 0.26-25.15 0-26.936-0.352-2.417-2.5-3.171-4.008-3.588-7.872-2.178-4.792-6.338-11.309-7.403-3.283 0-4.141-0.047-7.115 0-5.906 0.932-4.392 5.318-9.878 7.019-1.162 0.36-4.872 0.384-5.484 3.973-0.203 1.192 0 17.654 0 27.529zM18.309 4.145c0.537-0.632 1.643-1.145 2.468-1.145h3.746c0.826 0 1.87 0.561 2.333 1.234 0 0 0.428 0.704 1.332 1.766-4.958 0-7.115 0-11.203 0 0.532-1.025 1.324-1.855 1.324-1.855zM8.484 14.009c0-1.109 0.902-2.009 2.009-2.009h7.983c1.109 0 2.009 0.902 2.009 2.009v7.983c0 1.109-0.902 2.009-2.009 2.009h-7.983c-1.109 0-2.009-0.902-2.009-2.009v-7.983zM24.484 14.009c0-1.109 0.902-2.009 2.009-2.009h7.983c1.109 0 2.009 0.902 2.009 2.009v7.983c0 1.109-0.902 2.009-2.009 2.009h-7.983c-1.109 0-2.009-0.902-2.009-2.009v-7.983zM8.484 30.009c0-1.109 0.902-2.009 2.009-2.009h7.983c1.109 0 2.009 0.902 2.009 2.009v7.983c0 1.109-0.902 2.009-2.009 2.009h-7.983c-1.109 0-2.009-0.902-2.009-2.009v-7.983zM24.484 30.009c0-1.109 0.902-2.009 2.009-2.009h7.983c1.109 0 2.009 0.902 2.009 2.009v7.983c0 1.109-0.902 2.009-2.009 2.009h-7.983c-1.109 0-2.009-0.902-2.009-2.009v-7.983z"></path>
</svg>
