<!-- Generated by IcoMoon.io -->
<svg version="1.1" xmlns="http://www.w3.org/2000/svg" width="45" height="45" viewBox="0 0 45 45">
<title>symbolpad-2</title>
<path d="M3.59 38.54c0 3.41 2.362 6.46 4.322 6.46 10.121 0 16.222 0 28.38 0 2.323 0 5.093-2.857 5.093-7.053 0-9.541 0.26-25.15 0-26.936-0.352-2.417-2.5-3.171-4.008-3.588-7.872-2.178-4.792-6.338-11.309-7.403-3.283 0-4.141-0.047-7.115 0-5.906 0.932-4.392 5.318-9.878 7.019-1.162 0.36-4.872 0.384-5.484 3.973-0.203 1.192 0 17.654 0 27.529zM4.5 37.827c0.086-9.436-0.107-25.166 0-26.305 0.665-3.429 4.258-3.347 5.36-3.691 5.198-1.625 3.685-5.921 9.279-6.811 2.817-0.045 3.631 0 6.741 0 6.174 1.017 2.886 5.001 10.343 7.082 1.428 0.399 3.834 1.111 4.277 3.42 0.137 1.706-0.109 16.639 0 25.756-0.109 4.009-2.077 6.722-4.277 6.722h-27.999c-1.856 0-3.638-2.915-3.724-6.173z"></path>
<path d="M18.324 4.145c0 0-0.792 0.83-1.324 1.855 4.088 0 6.245 0 11.203 0-0.904-1.062-1.332-1.766-1.332-1.766-0.464-0.673-1.508-1.234-2.333-1.234h-3.746c-0.824 0-1.93 0.513-2.468 1.145zM19.858 4.193c0.249-0.107 0.674-0.193 0.957-0.193h3.888c0.279 0 0.7 0.129 0.91 0.29 0 0 0.1 0 0.751 0.71-3.407 0-4.832 0-7.642 0 0.688-0.702 1.137-0.807 1.137-0.807z"></path>
<path d="M24.5 30.009v7.983c0 1.107 0.899 2.009 2.009 2.009h7.983c1.107 0 2.009-0.899 2.009-2.009v-7.983c0-1.107-0.899-2.009-2.009-2.009h-7.983c-1.107 0-2.009 0.899-2.009 2.009zM25.5 29.995c0-0.55 0.456-0.995 0.995-0.995h8.009c0.55 0 0.995 0.456 0.995 0.995v8.009c0 0.55-0.456 0.995-0.995 0.995h-8.009c-0.55 0-0.995-0.456-0.995-0.995v-8.009z"></path>
<path d="M8.5 30.009v7.983c0 1.107 0.899 2.009 2.009 2.009h7.983c1.107 0 2.009-0.899 2.009-2.009v-7.983c0-1.107-0.899-2.009-2.009-2.009h-7.983c-1.107 0-2.009 0.899-2.009 2.009zM9.5 29.995c0-0.55 0.456-0.995 0.995-0.995h8.009c0.55 0 0.995 0.456 0.995 0.995v8.009c0 0.55-0.456 0.995-0.995 0.995h-8.009c-0.55 0-0.995-0.456-0.995-0.995v-8.009z"></path>
<path d="M24.5 14.009v7.983c0 1.107 0.899 2.009 2.009 2.009h7.983c1.107 0 2.009-0.899 2.009-2.009v-7.983c0-1.107-0.899-2.009-2.009-2.009h-7.983c-1.107 0-2.009 0.899-2.009 2.009zM25.5 13.995c0-0.55 0.456-0.995 0.995-0.995h8.009c0.55 0 0.995 0.456 0.995 0.995v8.009c0 0.55-0.456 0.995-0.995 0.995h-8.009c-0.55 0-0.995-0.456-0.995-0.995v-8.009z"></path>
<path d="M8.5 14.009v7.983c0 1.107 0.899 2.009 2.009 2.009h7.983c1.107 0 2.009-0.899 2.009-2.009v-7.983c0-1.107-0.899-2.009-2.009-2.009h-7.983c-1.107 0-2.009 0.899-2.009 2.009zM9.5 13.995c0-0.55 0.456-0.995 0.995-0.995h8.009c0.55 0 0.995 0.456 0.995 0.995v8.009c0 0.55-0.456 0.995-0.995 0.995h-8.009c-0.55 0-0.995-0.456-0.995-0.995v-8.009z"></path>
</svg>
