<?xml version="1.0" encoding="UTF-8" standalone="no"?>
<svg width="45px" height="43px" viewBox="0 0 45 43" version="1.1" xmlns="http://www.w3.org/2000/svg" xmlns:xlink="http://www.w3.org/1999/xlink">
    <!-- Generator: Sketch 39.1 (31720) - http://www.bohemiancoding.com/sketch -->
    <title>temp-1</title>
    <desc>Created with Sketch.</desc>
    <defs></defs>
    <g id="Page-1" stroke="none" stroke-width="1" fill="none" fill-rule="evenodd">
        <g id="temp-1" fill="#0B0B09">
            <rect id="Rectangle-27" x="25" y="0" width="1" height="43" rx="0.5"></rect>
            <rect id="Rectangle-27" transform="translate(33.580184, 14.986564) rotate(61.400000) translate(-33.580184, -14.986564) " x="33.0801842" y="5.48656414" width="1" height="19" rx="0.5"></rect>
            <rect id="Rectangle-27" transform="translate(33.705184, 26.894279) rotate(117.400000) translate(-33.705184, -26.894279) " x="33.2051842" y="17.394279" width="1" height="19" rx="0.5"></rect>
            <rect id="Rectangle-27" transform="translate(27.827255, 4.114738) rotate(32.400000) translate(-27.827255, -4.114738) " x="27.3272545" y="-0.385262034" width="1" height="9" rx="0.5"></rect>
            <rect id="Rectangle-27" x="22" y="0" width="1" height="9" rx="0.5"></rect>
            <rect id="Rectangle-27" x="22" y="34" width="1" height="9" rx="0.5"></rect>
            <rect id="Rectangle-27" transform="translate(4.500000, 21.500000) rotate(90.000000) translate(-4.500000, -21.500000) " x="4" y="17" width="1" height="9" rx="0.5"></rect>
            <rect id="Rectangle-27" transform="translate(6.901733, 12.561401) rotate(119.000000) translate(-6.901733, -12.561401) " x="6.4017334" y="8.06140137" width="1" height="9" rx="0.5"></rect>
            <rect id="Rectangle-27" transform="translate(13.613647, 6.872681) rotate(149.000000) translate(-13.613647, -6.872681) " x="13.1136475" y="2.37268066" width="1" height="9" rx="0.5"></rect>
            <rect id="Rectangle-27" transform="translate(6.928223, 29.569336) rotate(61.000000) translate(-6.928223, -29.569336) " x="6.42822266" y="25.0693359" width="1" height="9" rx="0.5"></rect>
            <rect id="Rectangle-27" transform="translate(13.571899, 35.956055) rotate(31.000000) translate(-13.571899, -35.956055) " x="13.0718994" y="31.4560547" width="1" height="9" rx="0.5"></rect>
            <path d="M10.9970703,20.993042 C10.8302002,15.8486328 14.8973388,10.0075684 22.4849855,10.0075684 C22.8349611,10.3410645 22.6821291,10.8758545 22.4849849,11.0031738 C13.6447753,11.1363525 12.0516358,18.414917 12.0516357,20.993042 C12.0516357,23.571167 14.052124,30.4853516 22.4849853,30.4853516 C22.8579101,30.4853516 23.0209968,31.3757324 22.4849853,31.5469971 C15.020996,31.5469971 11.1639404,26.1374512 10.9970703,20.993042 Z" id="Rectangle-27"></path>
            <rect id="Rectangle-27" transform="translate(27.788858, 37.890513) rotate(147.400000) translate(-27.788858, -37.890513) " x="27.2888578" y="33.3905127" width="1" height="9" rx="0.5"></rect>
            <rect id="Rectangle-27" transform="translate(37.279155, 32.154359) rotate(157.400000) translate(-37.279155, -32.154359) " x="36.7791548" y="27.1043585" width="1" height="10.1000004" rx="0.5"></rect>
            <rect id="Rectangle-27" transform="translate(39.846522, 26.632260) rotate(77.400000) translate(-39.846522, -26.632260) " x="39.3465224" y="21.7779001" width="1" height="9.70871887" rx="0.5"></rect>
            <rect id="Rectangle-27" transform="translate(37.432448, 9.984242) rotate(200.400000) translate(-37.432448, -9.984242) " x="36.9324479" y="5.93424206" width="1" height="8.10000038" rx="0.5"></rect>
            <rect id="Rectangle-27" transform="translate(39.555654, 15.521460) rotate(100.400000) translate(-39.555654, -15.521460) " x="39.0556543" y="10.3714596" width="1" height="10.3000002" rx="0.5"></rect>
        </g>
    </g>
</svg>