<?xml version="1.0" encoding="UTF-8" standalone="no"?>
<svg width="43px" height="43px" viewBox="0 0 43 43" version="1.1" xmlns="http://www.w3.org/2000/svg" xmlns:xlink="http://www.w3.org/1999/xlink">
    <!-- Generator: Sketch 39.1 (31720) - http://www.bohemiancoding.com/sketch -->
    <title>tilt-3</title>
    <desc>Created with Sketch.</desc>
    <defs></defs>
    <g id="Page-1" stroke="none" stroke-width="1" fill="none" fill-rule="evenodd">
        <g id="tilt-3" transform="translate(-23.000000, -23.000000)" fill="#010101">
            <g id="Layer_2">
                <g id="Layer_1-2">
                    <path d="M62,23.9 L28.24,23.9 C25.8573172,23.9656039 23.9291087,25.8589128 23.82,28.24 L23.82,62 C23.82,64.4 26.11,65.89 28.24,65.89 L62,65.89 C63.036679,65.9281104 64.041517,65.5280862 64.7683651,64.7879189 C65.4952131,64.0477516 65.8769268,63.0358161 65.82,62 L65.82,28.23 C65.9108611,27.1438394 65.5545514,26.0676376 64.8334763,25.2502934 C64.1124013,24.4329492 63.0890146,23.9452542 62,23.9 L62,23.9 Z M63.82,62 C63.8815223,62.5060471 63.7127052,63.0129932 63.3600746,63.3811241 C63.007444,63.7492549 62.5082241,63.93971 62,63.9 L28.24,63.9 C27.07,63.9 25.82,63.14 25.82,62.01 L25.82,28.24 C25.936621,26.968691 26.96549,25.9738341 28.24,25.9 L62,25.9 C63.17,25.9 63.81,27.1 63.81,28.23 L63.82,62 Z" id="Shape"></path>
                    <rect id="Rectangle-path" x="27.77" y="34.95" width="2" height="17"></rect>
                </g>
            </g>
        </g>
    </g>
</svg>