<!-- Generated by IcoMoon.io -->
<svg version="1.1" xmlns="http://www.w3.org/2000/svg" width="45" height="45" viewBox="0 0 45 45">
<title>tilt-2</title>
<path d="M41.628 0h-38.115c-1.939 0-3.513 1.58-3.513 3.509v38.117c0 1.941 1.574 3.374 3.513 3.374h38.115c1.94 0 3.372-1.444 3.372-3.385v-38.106c0-1.941-1.432-3.509-3.372-3.509zM1 3.002c0-1.106 0.898-2.002 2.002-2.002h38.996c1.106 0 2.002 0.898 2.002 2.002v38.996c0 1.106-0.898 2.002-2.002 2.002h-38.996c-1.106 0-2.002-0.898-2.002-2.002v-38.996z"></path>
<path d="M5 31h1v-17h-1z"></path>
</svg>
