<!-- Generated by IcoMoon.io -->
<svg version="1.1" xmlns="http://www.w3.org/2000/svg" width="45" height="45" viewBox="0 0 45 45">
<title>unlock-1</title>
<path d="M9.897 17.36h25.206c0.884-0 1.732 0.364 2.353 1.010s0.966 1.521 0.956 2.43v20.774c0 1.878-1.481 3.4-3.309 3.4h-25.206c-1.828 0-3.309-1.522-3.309-3.4v-20.774c-0.010-0.909 0.334-1.783 0.956-2.43s1.469-1.010 2.353-1.010zM18.436 27.617c-0.57 1.767 0.062 3.699 1.565 4.788v5.141h5.016v-5.141c1.505-1.090 2.136-3.025 1.564-4.793s-2.218-2.965-4.077-2.966c-1.856 0.005-3.498 1.204-4.068 2.971z"></path>
<path d="M22.563 0.99c5.885 0 8.694 2.035 8.694 6.094v10.94h1.035v-10.456c-0.159-6.487-5.218-7.542-9.876-7.542s-9.532 1.126-9.532 7.542v1.611h1.019v-2.094c0-4.051 2.775-6.094 8.66-6.094z"></path>
</svg>
