<!-- Generated by IcoMoon.io -->
<svg version="1.1" xmlns="http://www.w3.org/2000/svg" width="45" height="45" viewBox="0 0 45 45">
<title>unlock-2</title>
<path d="M9.897 17.36h25.206c0.884-0 1.732 0.364 2.353 1.010s0.966 1.521 0.956 2.43v20.774c0 1.878-1.481 3.4-3.309 3.4h-25.206c-1.828 0-3.309-1.522-3.309-3.4v-20.774c-0.010-0.909 0.334-1.783 0.956-2.43s1.469-1.010 2.353-1.010zM7.716 20.432v21.466c0 1.139 0.913 2.049 2.040 2.049h25.597c1.119 0 2.040-0.917 2.040-2.049v-21.466c0-1.139-0.913-2.049-2.040-2.049h-25.597c-1.119 0-2.040 0.917-2.040 2.049z"></path>
<path d="M18.436 27.617c0.57-1.767 2.212-2.966 4.068-2.971 1.858 0.001 3.504 1.199 4.077 2.966s-0.059 3.703-1.564 4.793v5.141h-5.016v-5.141c-1.503-1.089-2.135-3.022-1.565-4.788zM19.22 28.623c0 1.901 0.674 2.316 1.818 3.144v5.046h3.098v-5.046c1.145-0.829 1.69-1.437 1.69-3.144s-1.37-2.954-3.321-2.954c-1.951 0-3.285 1.053-3.285 2.954z"></path>
<path d="M22.563 0.99c5.885 0 8.694 2.035 8.694 6.094v10.94h1.035v-10.456c-0.159-6.487-5.218-7.542-9.876-7.542s-9.532 1.126-9.532 7.542v1.611h1.019v-2.094c0-4.051 2.775-6.094 8.66-6.094z"></path>
</svg>
