<!-- Generated by IcoMoon.io -->
<svg version="1.1" xmlns="http://www.w3.org/2000/svg" width="45" height="45" viewBox="0 0 45 45">
<title>vent-2</title>
<path d="M0 14.007v16.986c0 1.671 1.345 3.007 3.005 3.007h38.99c1.658 0 3.005-1.346 3.005-3.007v-16.986c0-1.671-1.345-3.007-3.005-3.007h-38.99c-1.658 0-3.005 1.346-3.005 3.007zM1.023 13.995c0-1.102 0.899-1.995 2.004-1.995h39.035c1.107 0 2.004 0.902 2.004 1.995v17.011c0 1.102-0.899 1.995-2.004 1.995h-39.035c-1.107 0-2.004-0.902-2.004-1.995v-17.011z"></path>
<path d="M9.102 14h-1.099c-1.103 0-2.002 0.895-2.002 2v13c0 1.11 0.896 2 2.002 2h1.099v-0.298l-1.132-0.384c-0.518-0.176-0.938-0.767-0.938-1.325v-12.985c0-0.556 0.419-1.152 0.938-1.332l1.132-0.391v-0.284zM35.929 14h1.069c1.106 0 2.002 0.89 2.002 2v13c0 1.105-0.9 2-2.002 2h-1.069v-0.298l1.092-0.375c0.516-0.177 0.948-0.777 0.948-1.334v-12.985c0-0.559-0.425-1.156-0.948-1.34l-1.092-0.383v-0.284z"></path>
<path d="M10.188 16.501c-0.041 0.159-0.063 0.327-0.063 0.499 0 1.112 0.897 2 2.004 2h20.741c1.109 0 2.004-0.895 2.004-2 0-0.173-0.022-0.341-0.063-0.501-0.222 0.863-1.006 1.501-1.942 1.501h-20.741c-0.935 0-1.72-0.633-1.942-1.499z"></path>
<path d="M10.188 20.501c-0.041 0.159-0.063 0.327-0.063 0.499 0 1.112 0.897 2 2.004 2h20.741c1.109 0 2.004-0.895 2.004-2 0-0.173-0.022-0.341-0.063-0.501-0.222 0.863-1.006 1.501-1.942 1.501h-20.741c-0.935 0-1.72-0.633-1.942-1.499z"></path>
<path d="M10.188 24.501c-0.041 0.159-0.063 0.327-0.063 0.499 0 1.112 0.897 2 2.004 2h20.741c1.109 0 2.004-0.895 2.004-2 0-0.173-0.022-0.341-0.063-0.501-0.222 0.863-1.006 1.501-1.942 1.501h-20.741c-0.935 0-1.72-0.633-1.942-1.499z"></path>
</svg>
