<?xml version="1.0" encoding="UTF-8" standalone="no"?>
<svg width="54px" height="28px" viewBox="0 0 54 28" version="1.1" xmlns="http://www.w3.org/2000/svg" xmlns:xlink="http://www.w3.org/1999/xlink">
    <!-- Generator: Sketch 39.1 (31720) - http://www.bohemiancoding.com/sketch -->
    <title>vent-3</title>
    <desc>Created with Sketch.</desc>
    <defs></defs>
    <g id="Page-1" stroke="none" stroke-width="1" fill="none" fill-rule="evenodd">
        <g id="vent-3" transform="translate(-18.000000, -31.000000)" fill="#010101">
            <g id="Layer_2">
                <g id="Layer_1-2">
                    <path d="M67.56,31.39 L22.44,31.39 C21.2889379,31.3766625 20.17973,31.8211685 19.3564285,32.6257159 C18.5331271,33.4302633 18.0631847,34.5289361 18.05,35.68 L18.05,54.32 C18.0631847,55.4710639 18.5331271,56.5697367 19.3564285,57.3742841 C20.17973,58.1788315 21.2889379,58.6233375 22.44,58.61 L67.56,58.61 C68.7110621,58.6233375 69.82027,58.1788315 70.6435715,57.3742841 C71.4668729,56.5697367 71.9368153,55.4710639 71.95,54.32 L71.95,35.68 C71.9368153,34.5289361 71.4668729,33.4302633 70.6435715,32.6257159 C69.82027,31.8211685 68.7110621,31.3766625 67.56,31.39 L67.56,31.39 Z M69.95,54.33 C69.9368799,54.950653 69.677671,55.5406567 69.2294277,55.970145 C68.7811843,56.3996334 68.180647,56.6334034 67.56,56.62 L22.44,56.62 C21.819353,56.6334034 21.2188157,56.3996334 20.7705723,55.970145 C20.322329,55.5406567 20.0631201,54.950653 20.05,54.33 L20.05,35.68 C20.0631201,35.059347 20.322329,34.4693433 20.7705723,34.039855 C21.2188157,33.6103666 21.819353,33.3765966 22.44,33.39 L67.56,33.39 C68.180647,33.3765966 68.7811843,33.6103666 69.2294277,34.039855 C69.677671,34.4693433 69.9368799,35.059347 69.95,35.68 L69.95,54.33 Z" id="Shape"></path>
                    <path d="M59.41,47.4 C58.8577153,47.4 58.41,47.8477153 58.41,48.4 C58.41,48.56 58.41,48.81 57.28,48.81 L33.38,48.81 C32.25,48.81 32.25,48.56 32.25,48.4 C32.25,47.8477153 31.8022847,47.4 31.25,47.4 C30.6977153,47.4 30.25,47.8477153 30.25,48.4 C30.25,49.3 30.66,50.81 33.38,50.81 L57.28,50.81 C60.01,50.81 60.41,49.3 60.41,48.4 C60.41,47.8477153 59.9622847,47.4 59.41,47.4 L59.41,47.4 Z" id="Shape"></path>
                    <path d="M59.41,42.27 C58.8577153,42.27 58.41,42.7177153 58.41,43.27 C58.41,43.43 58.41,43.68 57.28,43.68 L33.38,43.68 C32.25,43.68 32.25,43.43 32.25,43.27 C32.25,42.7177153 31.8022847,42.27 31.25,42.27 C30.6977153,42.27 30.25,42.7177153 30.25,43.27 C30.25,44.17 30.66,45.68 33.38,45.68 L57.28,45.68 C60.01,45.68 60.41,44.17 60.41,43.27 C60.41,42.7177153 59.9622847,42.27 59.41,42.27 L59.41,42.27 Z" id="Shape"></path>
                    <path d="M59.41,37.14 C58.8577153,37.14 58.41,37.5877153 58.41,38.14 C58.41,38.31 58.41,38.55 57.28,38.55 L33.38,38.55 C32.25,38.55 32.25,38.31 32.25,38.14 C32.25,37.5877153 31.8022847,37.14 31.25,37.14 C30.6977153,37.14 30.25,37.5877153 30.25,38.14 C30.25,39.04 30.66,40.55 33.38,40.55 L57.28,40.55 C60.01,40.55 60.41,39.04 60.41,38.14 C60.41,37.5877153 59.9622847,37.14 59.41,37.14 L59.41,37.14 Z" id="Shape"></path>
                    <path d="M27.58,36.73 C28.1322847,36.73 28.58,36.2822847 28.58,35.73 C28.58,35.1777153 28.1322847,34.73 27.58,34.73 C26.68,34.73 25.17,35.14 25.17,37.86 L25.17,51.2 C25.17,53.93 26.68,54.33 27.58,54.33 C28.1322847,54.33 28.58,53.8822847 28.58,53.33 C28.58,52.7777153 28.1322847,52.33 27.58,52.33 C27.42,52.33 27.17,52.33 27.17,51.2 L27.17,37.86 C27.17,36.73 27.41,36.73 27.58,36.73 L27.58,36.73 Z" id="Shape"></path>
                    <path d="M62.42,34.73 C61.8677153,34.73 61.42,35.1777153 61.42,35.73 C61.42,36.2822847 61.8677153,36.73 62.42,36.73 C62.59,36.73 62.83,36.73 62.83,37.86 L62.83,51.2 C62.83,52.33 62.59,52.33 62.42,52.33 C61.8677153,52.33 61.42,52.7777153 61.42,53.33 C61.42,53.8822847 61.8677153,54.33 62.42,54.33 C63.32,54.33 64.83,53.92 64.83,51.2 L64.83,37.86 C64.83,35.14 63.32,34.73 62.42,34.73 L62.42,34.73 Z" id="Shape"></path>
                </g>
            </g>
        </g>
    </g>
</svg>