<!-- Generated by IcoMoon.io -->
<svg version="1.1" xmlns="http://www.w3.org/2000/svg" width="45" height="45" viewBox="0 0 45 45">
<title>vent-1</title>
<path d="M9.102 14h-1.099c-1.103 0-2.002 0.895-2.002 2v13c0 1.11 0.896 2 2.002 2h1.099v-0.298l-1.132-0.384c-0.518-0.176-0.938-0.767-0.938-1.325v-12.985c0-0.556 0.419-1.152 0.938-1.332l1.132-0.391v-0.284zM35.929 14v0.284l1.092 0.383c0.524 0.184 0.948 0.782 0.948 1.34v12.985c0 0.556-0.433 1.156-0.948 1.334l-1.092 0.375v0.298h1.069c1.102 0 2.002-0.895 2.002-2v-13c0-1.11-0.896-2-2.002-2h-1.069zM0 14.007c0-1.661 1.347-3.007 3.005-3.007h38.99c1.66 0 3.005 1.336 3.005 3.007v16.986c0 1.661-1.347 3.007-3.005 3.007h-38.99c-1.66 0-3.005-1.336-3.005-3.007v-16.986zM10.188 16.501c-0.041 0.159-0.063 0.327-0.063 0.499 0 1.112 0.897 2 2.004 2h20.741c1.109 0 2.004-0.895 2.004-2 0-0.173-0.022-0.341-0.063-0.501-0.222 0.863-1.006 1.501-1.942 1.501h-20.741c-0.935 0-1.72-0.633-1.942-1.499zM10.188 20.501c-0.041 0.159-0.063 0.327-0.063 0.499 0 1.112 0.897 2 2.004 2h20.741c1.109 0 2.004-0.895 2.004-2 0-0.173-0.022-0.341-0.063-0.501-0.222 0.863-1.006 1.501-1.942 1.501h-20.741c-0.935 0-1.72-0.633-1.942-1.499zM10.188 24.501c-0.041 0.159-0.063 0.327-0.063 0.499 0 1.112 0.897 2 2.004 2h20.741c1.109 0 2.004-0.895 2.004-2 0-0.173-0.022-0.341-0.063-0.501-0.222 0.863-1.006 1.501-1.942 1.501h-20.741c-0.935 0-1.72-0.633-1.942-1.499z"></path>
</svg>
