<!-- Generated by IcoMoon.io -->
<svg version="1.1" xmlns="http://www.w3.org/2000/svg" width="45" height="45" viewBox="0 0 45 45">
<title>voice-assistant</title>
<path d="M1.5 34c-0.6 0-1-0.4-1-1v-19.9c0-0.6 0.4-1 1-1s1 0.4 1 1v19.9c0 0.5-0.4 1-1 1z"></path>
<path d="M9.9 41.3c-0.6 0-1-0.4-1-1v-33.5c0-0.6 0.4-1 1-1s1 0.4 1 1v33.6c0 0.5-0.4 0.9-1 0.9z"></path>
<path d="M18.3 36.1c-0.6 0-1-0.4-1-1v-22c0-0.6 0.4-1 1-1s1 0.4 1 1v22c0 0.5-0.4 1-1 1z"></path>
<path d="M43.5 31.9c-0.6 0-1-0.4-1-1v-16.8c0-0.6 0.4-1 1-1s1 0.4 1 1v16.8c0 0.5-0.4 1-1 1z"></path>
<path d="M26.7 44.5c-0.6 0-1-0.4-1-1v-42c0-0.6 0.4-1 1-1s1 0.4 1 1v42c0 0.5-0.4 1-1 1z"></path>
<path d="M35.1 40.3c-0.6 0-1-0.4-1-1v-32.5c0-0.6 0.4-1 1-1s1 0.4 1 1v32.5c0 0.5-0.4 1-1 1z"></path>
</svg>
