<!-- Generated by IcoMoon.io -->
<svg version="1.1" xmlns="http://www.w3.org/2000/svg" width="45" height="45" viewBox="0 0 45 45">
<title>walloutlet-1</title>
<path d="M8 1.992v41.017c0 1.093 0.892 1.992 1.993 1.992h25.013c1.094 0 1.993-0.892 1.993-1.992v-41.017c0-1.093-0.892-1.992-1.993-1.992h-25.013c-1.094 0-1.993 0.892-1.993 1.992zM13 6.010c0-0.558 0.451-1.010 0.995-1.010h17.010c0.549 0 0.995 0.443 0.995 1.010v32.981c0 0.558-0.451 1.010-0.995 1.010h-17.010c-0.549 0-0.995-0.443-0.995-1.010v-32.981zM25.235 26h1.553v3.939h-1.553v-3.939zM18.235 26h1.553v3.939h-1.553v-3.939zM20.7 33.407c0.753-1.892 2.861-1.861 3.66 0 0 1.203 0 2.059 0 2.059h-3.66v-2.059zM25.235 10h1.553v3.939h-1.553v-3.939zM18.235 10h1.553v3.939h-1.553v-3.939zM20.7 17.407c0.753-1.892 2.861-1.861 3.66 0 0 1.203 0 2.059 0 2.059h-3.66v-2.059z"></path>
</svg>
