<!-- Generated by IcoMoon.io -->
<svg version="1.1" xmlns="http://www.w3.org/2000/svg" width="45" height="45" viewBox="0 0 45 45">
<title>walloutlet-2</title>
<path d="M8 1.992v41.017c0 1.093 0.892 1.992 1.993 1.992h25.013c1.094 0 1.993-0.892 1.993-1.992v-41.017c0-1.093-0.892-1.992-1.993-1.992h-25.013c-1.094 0-1.993 0.892-1.993 1.992zM9 2c0-0.552 0.446-1 0.993-1h25.014c0.548 0 0.993 0.454 0.993 1v41.001c0 0.552-0.446 1-0.993 1h-25.014c-0.548 0-0.993-0.454-0.993-1v-41.001z"></path>
<path d="M13 6.010v32.981c0 0.567 0.445 1.010 0.995 1.010h17.010c0.544 0 0.995-0.452 0.995-1.010v-32.981c0-0.567-0.445-1.010-0.995-1.010h-17.010c-0.544 0-0.995 0.452-0.995 1.010zM14 6.492c0-0.272 0.215-0.492 0.49-0.492h16.019c0.271 0 0.49 0.228 0.49 0.492v32.016c0 0.272-0.215 0.492-0.49 0.492h-16.019c-0.271 0-0.49-0.228-0.49-0.492v-32.016z"></path>
<path d="M25.235 26h1.553v3.939h-1.553v-3.939zM18.235 26h1.553v3.939h-1.553v-3.939zM20.7 33.407c0.753-1.892 2.861-1.861 3.66 0 0 1.203 0 2.059 0 2.059h-3.66v-2.059zM25.235 10h1.553v3.939h-1.553v-3.939zM18.235 10h1.553v3.939h-1.553v-3.939zM20.7 17.407c0.753-1.892 2.861-1.861 3.66 0 0 1.203 0 2.059 0 2.059h-3.66v-2.059z"></path>
</svg>
