<!-- Generated by IcoMoon.io -->
<svg version="1.1" xmlns="http://www.w3.org/2000/svg" width="45" height="45" viewBox="0 0 45 45">
<title>warning-1</title>
<path d="M44.1 39.5l-19.7-36c-1.1-1.9-2.8-1.9-3.8 0l-19.7 36c-1 1.9-0.1 3.5 2.1 3.5h39c2.2 0 3.1-1.6 2.1-3.5zM43.4 41.5c-0.2 0.3-0.7 0.5-1.4 0.5h-39c-0.7 0-1.2-0.2-1.4-0.5s-0.1-0.9 0.2-1.5l19.7-36c0.3-0.6 0.7-0.9 1-0.9s0.7 0.3 1 0.9l19.7 36c0.3 0.6 0.4 1.1 0.2 1.5z"></path>
<path d="M24.5 34c0 1.105-0.895 2-2 2s-2-0.895-2-2c0-1.105 0.895-2 2-2s2 0.895 2 2z"></path>
<path d="M22.5 28c1.2 0 1.6-2.7 1.7-5.9s0.7-6.1-1.7-6.1-1.8 2.8-1.7 6.1 0.5 5.9 1.7 5.9z"></path>
</svg>
