<!-- Generated by IcoMoon.io -->
<svg version="1.1" xmlns="http://www.w3.org/2000/svg" width="45" height="45" viewBox="0 0 45 45">
<title>waterheater-2</title>
<path d="M11.739 2.881h-0.978v40.109c4.217 2.306 15.755 1.883 19.565 0v-40.109h-0.978v39.539c-3.65 1.266-13.705 1.476-17.609 0v-39.539z"></path>
<path d="M20.543 36.631c-5.397 0-7.083-5.796-4.921-9.819s4.921-7.789 4.921-7.789c0 0 2.818 3.341 4.94 7.789s0.457 9.819-4.94 9.819zM20.51 35.639c4.493 0 5.88-4.472 4.113-8.175s-4.113-6.485-4.113-6.485c0 0-2.297 3.135-4.097 6.485s-0.396 8.175 4.097 8.175z"></path>
<path d="M20.543 5.327c-5.403 0-9.783-1.095-9.783-2.446s4.38-2.446 9.783-2.446c5.403 0 9.783 1.095 9.783 2.446s-4.38 2.446-9.783 2.446zM20.543 4.348c4.592 0 8.788-1.253 8.788-1.467s-4.196-1.467-8.788-1.467c-4.592 0-8.774 1.226-8.774 1.467s4.181 1.467 8.774 1.467z"></path>
<path d="M34.239 7.772v-0.489h-3.913v0.978h2.935v25.435h0.978v-25.924z"></path>
</svg>
