<!-- Generated by IcoMoon.io -->
<svg version="1.1" xmlns="http://www.w3.org/2000/svg" width="45" height="45" viewBox="0 0 45 45">
<title>waterheater-1</title>
<path d="M30.326 2.881v40.109c-3.811 1.883-15.348 2.306-19.565 0v-40.109c0-1.351 4.38-2.446 9.783-2.446s9.783 1.095 9.783 2.446zM20.543 4.348c4.592 0 8.788-1.253 8.788-1.467s-4.196-1.467-8.788-1.467c-4.592 0-8.774 1.226-8.774 1.467s4.181 1.467 8.774 1.467zM20.543 36.631c5.397 0 7.062-5.371 4.94-9.819s-4.94-7.789-4.94-7.789c0 0-2.759 3.766-4.921 7.789s-0.476 9.819 4.921 9.819z"></path>
<path d="M34.239 7.772v-0.489h-3.913v0.978h2.935v25.435h0.978v-25.924z"></path>
</svg>
