<!-- Generated by IcoMoon.io -->
<svg version="1.1" xmlns="http://www.w3.org/2000/svg" width="45" height="45" viewBox="0 0 45 45">
<title>water-valve-1</title>
<path d="M9 24.5v-13.004c0-1.655 1.343-2.996 3.008-2.996h19.984c1.661 0 3.008 1.35 3.008 2.996v13.004h8.008c1.1 0 1.992 0.887 1.992 2.006v2.988c0 1.108-0.9 2.006-1.992 2.006h-8.008v2.004c0 1.655-1.343 2.996-3.008 2.996h-19.984c-1.661 0-3.008-1.35-3.008-2.996v-2.004h-7c-1.104 0-2-0.887-2-2.006v-2.988c0-1.108 0.887-2.006 2-2.006h7zM16 18.5c1.105 0 2-0.895 2-2s-0.895-2-2-2c-1.105 0-2 0.895-2 2s0.895 2 2 2zM16 23.5c0.552 0 1-0.448 1-1s-0.448-1-1-1c-0.552 0-1 0.448-1 1s0.448 1 1 1z"></path>
</svg>
