<!-- Generated by IcoMoon.io -->
<svg version="1.1" xmlns="http://www.w3.org/2000/svg" width="45" height="45" viewBox="0 0 45 45">
<title>water-leak-1</title>
<path d="M35.38 10.24v-8.964h-5.965v4.261l-6.885-5.402-20.826 16.395h5.965v18.815h5.888c-0.040 0.233-0.064 0.504-0.068 0.78 0.154 4.862 4.129 8.742 9.011 8.742s8.857-3.88 9.011-8.724c-0.003-0.294-0.028-0.565-0.072-0.829l5.892 0.031v-18.815h5.965zM22.53 44.282c-4.506-0.005-8.158-3.657-8.163-8.163 0.001-0.278 0.026-0.549 0.072-0.813 0.054-0.311 0.123-0.598 0.206-0.879 1.239-4.299 6.496-11.15 7.876-12.888 1.38 1.704 6.638 8.589 7.891 12.944 0.069 0.225 0.137 0.512 0.189 0.805 0.049 0.282 0.074 0.553 0.075 0.83-0.005 4.502-3.647 8.15-8.145 8.164z"></path>
</svg>
