<!-- Generated by IcoMoon.io -->
<svg version="1.1" xmlns="http://www.w3.org/2000/svg" width="45" height="45" viewBox="0 0 45 45">
<title>waterflow-1</title>
<path d="M0.835 22.031c1.892 0.649 6.535 1.947 9.063 0.085 3.35 2.376 7.891 1.891 12.168-0.889 4.024 3.244 8.768 3.334 12.579 0.495 2.94 2.422 7.95 0.575 9.716-0.197-0.053 0.181-0.108 0.361-0.165 0.54-1.955 0.777-6.983 2.429-9.551 0.051-3.77 3.166-9.373 2.542-12.579-0.394-4.474 2.815-8.815 3.129-12.168 0.861-2.673 1.72-6.986 0.562-8.913-0.098-0.051-0.151-0.101-0.302-0.149-0.454zM6.394 31.187c1.295-0.007 2.551-0.26 3.505-0.963 3.35 2.376 7.891 1.891 12.168-0.889 4.024 3.244 8.768 3.334 12.579 0.495 1.17 0.964 2.667 1.252 4.158 1.2-0.141 0.145-0.284 0.287-0.429 0.428-1.397-0.003-2.744-0.322-3.729-1.234-3.77 3.166-9.373 2.542-12.579-0.394-4.474 2.815-8.815 3.129-12.168 0.861-0.9 0.579-1.987 0.832-3.105 0.888-0.135-0.129-0.268-0.26-0.4-0.392zM0 13.164c0 0 6.672 2.771 9.898 0.394 3.35 2.376 7.891 1.891 12.168-0.889 4.024 3.244 8.768 3.334 12.579 0.495 3.614 2.977 10.355-0.495 10.355-0.495v0.495c0 0-7.124 3.386-10.355 0.394-3.77 3.166-9.373 2.542-12.579-0.394-4.474 2.815-8.815 3.129-12.168 0.861-3.523 2.268-9.898-0.467-9.898-0.467v-0.394z"></path>
</svg>
