<!-- Generated by IcoMoon.io -->
<svg version="1.1" xmlns="http://www.w3.org/2000/svg" width="45" height="45" viewBox="0 0 45 45">
<title>water-valve-2</title>
<path d="M0 26.506v2.988c0 1.119 0.895 2.006 2 2.006h8v-7h-8c-1.112 0-2 0.898-2 2.006zM1 26.5c0-0.552 0.446-1 0.998-1h8.002v5h-8.002c-0.551 0-0.998-0.444-0.998-1v-3z"></path>
<path d="M34 24.5v7h9.008c1.092 0 1.992-0.898 1.992-2.006v-2.988c0-1.119-0.892-2.006-1.992-2.006h-9.008zM35 25.5h8.002c0.551 0 0.998 0.444 0.998 1v3c0 0.552-0.446 1-0.998 1h-8.002v-5z"></path>
<path d="M9 11.496v22.007c0 1.646 1.347 2.996 3.008 2.996h19.984c1.665 0 3.008-1.342 3.008-2.996v-22.007c0-1.646-1.347-2.996-3.008-2.996h-19.984c-1.665 0-3.008 1.342-3.008 2.996zM10 11.497c0-1.103 0.897-1.997 2.005-1.997h19.99c1.107 0 2.005 0.895 2.005 1.997v22.006c0 1.103-0.897 1.997-2.005 1.997h-19.99c-1.107 0-2.005-0.895-2.005-1.997v-22.006z"></path>
<path d="M18 16.5c0 1.105-0.895 2-2 2s-2-0.895-2-2c0-1.105 0.895-2 2-2s2 0.895 2 2z"></path>
<path d="M17 22.5c0 0.552-0.448 1-1 1s-1-0.448-1-1c0-0.552 0.448-1 1-1s1 0.448 1 1z"></path>
</svg>
