<!-- Generated by IcoMoon.io -->
<svg version="1.1" xmlns="http://www.w3.org/2000/svg" width="45" height="45" viewBox="0 0 45 45">
<title>water-leak-2</title>
<path d="M35.38 10.24v-8.964h-5.965v4.261l-6.885-5.402-20.826 16.395h5.965v18.815h5.888c-0.040 0.233-0.064 0.504-0.068 0.78 0.154 4.862 4.129 8.742 9.011 8.742s8.857-3.88 9.011-8.724c-0.003-0.294-0.028-0.565-0.072-0.829l5.892 0.031v-18.815h5.965zM30.676 36.127c-0.146 4.394-3.743 7.9-8.159 7.9s-8.013-3.506-8.159-7.886c0.001-0.291 0.026-0.562 0.072-0.826 0.054-0.311 0.123-0.598 0.206-0.879 1.239-4.299 6.496-11.15 7.876-12.888 1.38 1.704 6.638 8.589 7.891 12.944 0.069 0.225 0.137 0.512 0.189 0.805 0.052 0.28 0.079 0.551 0.083 0.827zM36.496 15.677v18.815h-5.198c-1.372-5.198-8.121-13.506-8.436-13.898l-0.332-0.4-0.332 0.4c-0.315 0.392-7.064 8.7-8.436 13.898h-5.24v-18.815h-4.354l18.372-14.486 7.669 6.059v-5.113h4.261v8.521l6.433 5.019z"></path>
</svg>
