<!-- Generated by IcoMoon.io -->
<svg version="1.1" xmlns="http://www.w3.org/2000/svg" width="45" height="45" viewBox="0 0 45 45">
<title>waterflow-2</title>
<path d="M33.3 27.904v0.495c-0.002-0.001-0.003-0.003-0.005-0.004-4.47 2.812-8.807 3.126-12.156 0.861-2.67 1.719-6.98 0.561-8.905-0.098-0.051-0.151-0.101-0.302-0.149-0.454 1.89 0.649 6.529 1.945 9.054 0.085 3.347 2.374 7.884 1.889 12.156-0.889 0.002 0.001 0.003 0.003 0.005 0.004zM33.3 36.004c-0.002-0.001-0.003-0.003-0.005-0.004-4.272 2.778-8.809 3.263-12.156 0.889-0.953 0.702-2.208 0.955-3.502 0.962 0.131 0.132 0.265 0.263 0.399 0.392 1.118-0.055 2.203-0.308 3.102-0.887 3.349 2.266 7.686 1.951 12.156-0.861 0.002 0.001 0.003 0.003 0.005 0.004v-0.495zM33.3 19.354c-0.002-0.001-0.003-0.003-0.005-0.004-4.272 2.778-8.809 3.263-12.156 0.889-3.223 2.374-9.889-0.394-9.889-0.394v0.394c0 0 6.369 2.732 9.889 0.467 3.349 2.266 7.686 1.951 12.156-0.861 0.002 0.001 0.003 0.003 0.005 0.004v-0.495zM33.3 0h0.45v45h-0.45v-45z"></path>
</svg>
