<!-- Generated by IcoMoon.io -->
<svg version="1.1" xmlns="http://www.w3.org/2000/svg" width="45" height="45" viewBox="0 0 45 45">
<title>weather-alert</title>
<path d="M45 26.975c-0.006-2.865-2.327-5.187-5.192-5.192h-0.001c-0.069-0.005-0.149-0.007-0.229-0.007s-0.161 0.003-0.24 0.008l0.011-0.001c-1.14-2.937-3.944-4.982-7.225-4.983h-0c-0.012-0-0.026-0-0.041-0-0.362 0-0.718 0.025-1.066 0.074l0.040-0.005c-1.503-4.142-5.403-7.048-9.983-7.048-3.165 0-6.005 1.388-7.947 3.588l-0.010 0.011c-4.016 1.422-6.885 5.087-7.115 9.452l-0.001 0.026c-3.331 0.078-6.001 2.797-6.001 6.139 0 3.392 2.749 6.141 6.141 6.141 0.049 0 0.098-0.001 0.147-0.002l-0.007 0h29.062c2.066-0.001 3.849-1.21 4.681-2.959l0.013-0.031c2.767-0.126 4.963-2.4 4.963-5.187 0-0.009-0-0.018-0-0.026v0.001zM35.342 33.951h-29.052c-2.752 0-4.983-2.231-4.983-4.983s2.231-4.983 4.983-4.983v0c0.317 0.005 0.623 0.037 0.92 0.095l-0.032-0.005c0-0.229 0-0.458 0-0.698-0-0.007-0-0.015-0-0.024 0-5.224 4.235-9.458 9.458-9.458 4.443 0 8.171 3.064 9.186 7.195l0.013 0.065c0.557-0.177 1.199-0.279 1.864-0.279h0c3.112 0.039 5.7 2.241 6.331 5.169l0.008 0.043c0.383-0.133 0.824-0.209 1.283-0.209 2.229 0 4.036 1.807 4.036 4.036 0 2.221-1.794 4.023-4.012 4.036h-0.001zM40.435 30.961v0c0.061-0.298 0.097-0.642 0.1-0.994l0-0.002c-0.006-2.865-2.327-5.187-5.192-5.192h-0.469c-1.117-2.96-3.924-5.028-7.215-5.033h-0.001c-0.010-0-0.022-0-0.035-0-0.367 0-0.729 0.025-1.083 0.074l0.041-0.005c-1.493-4.134-5.383-7.036-9.951-7.036-0.005 0-0.011 0-0.016 0h0.001c-0.441 0.002-0.873 0.030-1.297 0.085l0.052-0.005c1.576-1.22 3.58-1.956 5.756-1.956 4.445 0 8.172 3.069 9.18 7.204l0.013 0.065c0.557-0.177 1.199-0.279 1.864-0.279h0c3.151 0.002 5.782 2.226 6.411 5.189l0.008 0.043c0.376-0.133 0.811-0.212 1.263-0.219l0.003-0c0.085-0.006 0.184-0.010 0.284-0.010 2.232 0 4.041 1.809 4.041 4.041 0 2.132-1.651 3.879-3.744 4.031l-0.013 0.001z"></path>
<path d="M14.293 20.945l0.847 6.996h1.515l0.827-6.996v-3.807h-3.189v3.807z"></path>
<path d="M14.373 29.147h3.040v2.94h-3.040v-2.94z"></path>
</svg>
