<?xml version="1.0" encoding="UTF-8" standalone="no"?>
<svg width="53px" height="46px" viewBox="0 0 53 46" version="1.1" xmlns="http://www.w3.org/2000/svg" xmlns:xlink="http://www.w3.org/1999/xlink">
    <!-- Generator: Sketch 39.1 (31720) - http://www.bohemiancoding.com/sketch -->
    <title>work-3</title>
    <desc>Created with Sketch.</desc>
    <defs></defs>
    <g id="Page-1" stroke="none" stroke-width="1" fill="none" fill-rule="evenodd">
        <g id="work-3" transform="translate(-18.000000, -22.000000)" fill="#010101">
            <g id="Layer_2">
                <g id="Layer_1-2">
                    <path d="M67.9,32 L57.9,32 L57.9,29.38 C57.8677803,25.5761079 54.8036423,22.4942068 51,22.44 L39,22.44 C35.1768666,22.4726744 32.0871695,25.5668235 32.06,29.39 L32.06,32 L22.06,32 C20.3479173,32 18.96,33.3879173 18.96,35.1 L18.96,64.46 C18.96,65.2821711 19.2866062,66.0706682 19.867969,66.652031 C20.4493318,67.2333938 21.2378289,67.56 22.06,67.56 L67.9,67.56 C69.6120827,67.56 71,66.1720827 71,64.46 L71,35.09 C70.9944897,33.3818238 69.6081851,31.9999911 67.9,32 L67.9,32 Z M34.05,29.38 C34.0824916,26.6613971 36.281337,24.4669938 39,24.44 L51,24.44 C53.7186029,24.4724916 55.9130062,26.671337 55.94,29.39 L55.94,32 L34.05,32 L34.05,29.38 Z M22.05,65.56 C21.7582619,65.56 21.4784726,65.4441075 21.2721825,65.2378175 C21.0658925,65.0315274 20.95,64.7517381 20.95,64.46 L20.95,35.09 C20.9524077,34.791128 21.0763282,34.5061025 21.2932527,34.3004959 C21.5101771,34.0948893 21.8014276,33.9864048 22.1,34 L28.53,34 L28.53,65.56 L22.05,65.56 Z M30.49,65.56 L30.49,34 L58.48,34 L58.48,65.56 L30.49,65.56 Z M69,64.46 C69,65.0675132 68.5075132,65.56 67.9,65.56 L60.49,65.56 L60.49,34 L67.9,34 C68.1917381,34 68.4715274,34.1158925 68.6778175,34.3221825 C68.8841075,34.5284726 69,34.8082619 69,35.1 L69,64.46 Z" id="Shape"></path>
                </g>
            </g>
        </g>
    </g>
</svg>