<!-- Generated by IcoMoon.io -->
<svg version="1.1" xmlns="http://www.w3.org/2000/svg" width="45" height="45" viewBox="0 0 45 45">
<title>air</title>
<path d="M1.488 14.701c2.598-1.852 6.735-4.705 14.099-4.705s8.089 6.226 15.53 6.226c7.441 0 11.542-4.106 12.486-4.657s2.606 1.113 0 3.135c-2.606 2.022-5.007 4.705-12.486 4.705s-10.413-6.303-15.53-6.303c-7.477 0-12.84 4.067-14.099 4.535s-2.598-1.085 0-2.937zM1.488 22.5c2.598-1.852 6.735-4.705 14.099-4.705s8.089 6.226 15.53 6.226c7.441 0 11.542-4.106 12.486-4.657s2.606 1.113 0 3.135c-2.606 2.022-5.007 4.705-12.486 4.705s-10.413-6.303-15.53-6.303c-7.477 0-12.84 4.067-14.099 4.535s-2.598-1.085 0-2.937zM1.488 30.299c2.598-1.852 6.735-4.705 14.099-4.705s8.089 6.226 15.53 6.226c7.441 0 11.542-4.106 12.486-4.657s2.606 1.113 0 3.135c-2.606 2.022-5.007 4.705-12.486 4.705s-10.413-6.303-15.53-6.303c-7.477 0-12.84 4.067-14.099 4.535s-2.598-1.085 0-2.937z"></path>
</svg>
