<!-- Generated by IcoMoon.io -->
<svg version="1.1" xmlns="http://www.w3.org/2000/svg" width="45" height="45" viewBox="0 0 45 45">
<title>alarm-2</title>
<path d="M36.475 25.134v0c0.648 2.889 1.788 5.646 3.37 8.148l3.62 6.049h-15.139c-0.233 3.040-2.767 5.388-5.816 5.388s-5.583-2.348-5.816-5.388h-15.161l3.62-6.003c1.599-2.518 2.751-5.294 3.404-8.205l1.328-14.889c0.449-2.595 2.331-4.711 4.857-5.459l4.074-0.999c0.109-1.961 1.73-3.495 3.694-3.495s3.585 1.534 3.694 3.495l4.085 0.976c2.526 0.747 4.408 2.863 4.857 5.459l1.328 14.923zM35.437 25.233l-1.257-14.497c-0.427-2.472-1.851-4.327-4.256-5.039l-4.607-1.159c-0.104-1.867-0.936-3.258-2.806-3.258s-2.666 1.391-2.77 3.258l-4.707 1.159c-2.405 0.712-3.823 2.567-4.251 5.039l-1.2 14.497c-0.623 2.772-1.551 5.482-3.073 7.881l-3.099 5.198h14.138c0.222 2.895 2.024 5.396 4.927 5.396s4.858-2.501 5.080-5.396h13.986l-3.030-5.198c-1.507-2.383-3.074-7.881-3.074-7.881z"></path>
</svg>
