<!-- Generated by IcoMoon.io -->
<svg version="1.1" xmlns="http://www.w3.org/2000/svg" width="45" height="45" viewBox="0 0 45 45">
<title>alarm-3</title>
<path d="M35.778 10.739v0l6.764-7.061-2.065-1.973-5.703 5.909c-0.887-1.489-2.284-2.596-3.944-3.090l-4.144-1.016c-0.112-1.963-1.732-3.513-3.713-3.513s-3.601 1.55-3.712 3.503l-4.096 1.014c-2.502 0.776-4.373 2.86-4.83 5.433l-1.352 15.042c-0.717 3.123-1.898 5.88-3.485 8.351l-3.542 5.919h2.589l-3.616 3.776 2.065 1.973 5.498-5.703z"></path>
<path d="M40.432 33.222c-1.527-2.367-2.709-5.124-3.388-8.073l-0.969-10.646-23.635 24.753h4.722c0.24 3.040 2.765 5.416 5.846 5.416s5.606-2.376 5.845-5.395l15.218-0.020z"></path>
</svg>
