<!-- Generated by IcoMoon.io -->
<svg version="1.1" xmlns="http://www.w3.org/2000/svg" width="45" height="45" viewBox="0 0 45 45">
<title>alarm-1</title>
<path d="M36.016 25.047l-1.284-14.433c-0.434-2.51-2.255-4.556-4.698-5.279l-3.951-0.944c-0.105-1.896-1.673-3.38-3.573-3.38s-3.467 1.484-3.573 3.38l-3.94 0.966c-2.443 0.723-4.264 2.769-4.698 5.279l-1.284 14.4c-0.632 2.815-1.746 5.5-3.293 7.935l-3.501 5.806h14.663c0.225 2.94 2.676 5.211 5.625 5.211s5.4-2.271 5.625-5.211h14.641l-3.501-5.85c-1.531-2.42-2.634-5.086-3.26-7.88v0z"></path>
</svg>
