<!-- Generated by IcoMoon.io -->
<svg version="1.1" xmlns="http://www.w3.org/2000/svg" width="45" height="45" viewBox="0 0 45 45">
<title>barometer</title>
<path d="M22.5 44.251c-11.976 0-21.684-9.738-21.684-21.751s9.708-21.751 21.684-21.751c11.976 0 21.684 9.738 21.684 21.751s-9.708 21.751-21.684 21.751zM22.5 43.179c11.385 0 20.615-9.258 20.615-20.679s-9.23-20.679-20.615-20.679c-11.385 0-20.615 9.258-20.615 20.679s9.23 20.679 20.615 20.679z"></path>
<path d="M22.5 27.161c-2.566 0-4.647-2.087-4.647-4.661s2.080-4.661 4.647-4.661c2.566 0 4.647 2.087 4.647 4.661s-2.080 4.661-4.647 4.661zM22.5 26.089c1.976 0 3.578-1.607 3.578-3.589s-1.602-3.589-3.578-3.589c-1.976 0-3.578 1.607-3.578 3.589s1.602 3.589 3.578 3.589z"></path>
<path d="M31.163 12.333l0.758 0.758-6.592 6.592-0.758-0.758 6.592-6.592z"></path>
<path d="M18.726 24.915l0.758 0.758-6.061 6.061-0.758-0.758 6.061-6.061z"></path>
</svg>
