<!-- Generated by IcoMoon.io -->
<svg version="1.1" xmlns="http://www.w3.org/2000/svg" width="45" height="45" viewBox="0 0 45 45">
<title>battery</title>
<path d="M11.671 5.584c0-1.081 0.871-1.958 1.947-1.958h3.337c0.54 0 0.979-0.436 0.979-0.975v-0.94c0-0.675 0.545-1.222 1.216-1.222h6.724c0.671 0 1.216 0.546 1.216 1.222v0.94c0 0.539 0.429 0.975 0.975 0.975h3.307c1.081 0 1.957 0.873 1.957 1.958v35.986c0 1.624-1.322 2.94-2.943 2.94h-15.77c-1.626 0-2.943-1.314-2.943-2.94v-35.986zM12.696 5.625v35.92c0 1.069 0.874 1.953 1.951 1.953h15.698c1.084 0 1.951-0.875 1.951-1.953v-35.92c0-0.544-0.436-0.98-0.975-0.98h-4.118c-0.538 0-0.975-0.44-0.975-0.984v-1.686c0-0.267-0.215-0.494-0.48-0.494h-6.36c-0.269 0-0.48 0.221-0.48 0.494v1.686c0 0.544-0.435 0.984-0.971 0.984h-4.27c-0.524 0-0.971 0.439-0.971 0.98z"></path>
<path d="M13.588 16.114c0-0.271 0.224-0.49 0.492-0.49h16.733c0.272 0 0.492 0.217 0.492 0.49v25.458c0 0.538-0.438 0.974-0.978 0.974h-15.762c-0.54 0-0.978-0.445-0.978-0.974v-25.458z"></path>
</svg>
