<!-- Generated by IcoMoon.io -->
<svg version="1.1" xmlns="http://www.w3.org/2000/svg" width="45" height="45" viewBox="0 0 45 45">
<title>calendar-2</title>
<path d="M0.489 0.464h44.022v9.268h-44.022v-9.268zM1.467 1.442v7.339h42.090v-7.339h-42.090z"></path>
<path d="M0.489 11.779h9.268v9.268h-9.268v-9.268zM1.467 12.757v7.25h7.37v-7.25h-7.37z"></path>
<path d="M12.074 11.779h9.268v9.268h-9.268v-9.268zM13.052 12.757v7.25h7.37v-7.25h-7.37z"></path>
<path d="M23.658 11.779h9.268v9.268h-9.268v-9.268zM24.637 12.757v7.25h7.37v-7.25h-7.37z"></path>
<path d="M35.243 11.779h9.268v9.268h-9.268v-9.268zM36.221 12.757v7.25h7.37v-7.25h-7.37z"></path>
<path d="M0.489 23.544h9.268v9.268h-9.268v-9.268zM1.467 24.522v7.25h7.37v-7.25h-7.37z"></path>
<path d="M12.074 23.544h9.268v9.268h-9.268v-9.268zM13.052 24.522v7.25h7.37v-7.25h-7.37z"></path>
<path d="M23.658 23.544h9.268v9.268h-9.268v-9.268zM24.637 24.522v7.25h7.37v-7.25h-7.37z"></path>
<path d="M35.243 23.544h9.268v9.268h-9.268v-9.268zM36.221 24.522v7.25h7.37v-7.25h-7.37z"></path>
<path d="M0.489 35.268h9.268v9.268h-9.268v-9.268zM1.467 36.247v7.25h7.37v-7.25h-7.37z"></path>
<path d="M12.074 35.268h9.268v9.268h-9.268v-9.268zM13.052 36.247v7.25h7.37v-7.25h-7.37z"></path>
<path d="M23.658 35.268h9.268v9.268h-9.268v-9.268zM24.637 36.247v7.25h7.37v-7.25h-7.37z"></path>
<path d="M35.243 35.268h9.268v9.268h-9.268v-9.268zM36.221 36.247v7.25h7.37v-7.25h-7.37z"></path>
</svg>
