<!-- Generated by IcoMoon.io -->
<svg version="1.1" xmlns="http://www.w3.org/2000/svg" width="45" height="45" viewBox="0 0 45 45">
<title>calendar-3</title>
<path d="M35.502 4.231l-8.044 8.044h-24.062v-8.044h32.105zM41.604 8.936v3.339h-3.339l3.339-3.339zM21.495 18.238l-3.857 3.857h-4.187v-8.044h8.044v4.187zM25.681 14.051l-2.176 2.176v-2.176h2.176zM31.549 18.99v3.105h-3.105l3.105-3.105zM36.488 14.051h5.116v8.044h-8.044v-5.116l2.928-2.928zM11.44 28.293l-4.014 4.014h-4.030v-8.044h8.044v4.030zM15.47 24.263l-2.019 2.019v-2.019h2.019zM21.495 29.045v3.261h-3.261l3.261-3.261zM26.277 24.263h5.272v8.044h-8.044v-5.272l2.771-2.771zM5.294 34.439l-1.898 1.898v-1.898h1.898zM11.44 39.1v3.383h-3.383l3.383-3.383zM16.101 34.439h5.394v8.044h-8.044v-5.394l2.65-2.65zM3.396 14.051h8.044v8.044h-8.044v-8.044zM33.56 24.263h8.044v8.044h-8.044v-8.044zM23.505 34.439h8.044v8.044h-8.044v-8.044zM33.56 34.439h8.044v8.044h-8.044v-8.044zM42.012-0.014l3.002 3.002-42.026 42.026-3.002-3.002 42.026-42.026z"></path>
</svg>
