<!-- Generated by IcoMoon.io -->
<svg version="1.1" xmlns="http://www.w3.org/2000/svg" width="45" height="45" viewBox="0 0 45 45">
<title>care-heart-2</title>
<path d="M21.872 43.18c-3.364-3.207-21.872-16.626-21.872-28.236 0-13.075 15.452-17.909 22.5-8.65 7.447-9.259 22.5-3.765 22.5 8.65 0 12.358-17.543 24.79-21.236 28.236-0.587 0.368-1.085 0.481-1.891 0zM22.027 41.765c0.771 0.446 1.111 0.342 1.672 0 3.85-2.967 20.26-15.694 20.26-26.183 0-13.287-15.013-17.188-21.536-7.876-6.733-9.724-21.53-5.237-21.53 7.876 0 8.567 17.193 23.494 21.135 26.183z"></path>
<path d="M31.959 15.598h3c0.27 0 0.5-0.224 0.5-0.5 0-0.268-0.224-0.5-0.5-0.5h-3v-3c0-0.27-0.224-0.5-0.5-0.5-0.268 0-0.5 0.224-0.5 0.5v3h-3c-0.27 0-0.5 0.224-0.5 0.5 0 0.268 0.224 0.5 0.5 0.5h3v3c0 0.27 0.224 0.5 0.5 0.5 0.268 0 0.5-0.224 0.5-0.5v-3z"></path>
</svg>
