<!-- Generated by IcoMoon.io -->
<svg version="1.1" xmlns="http://www.w3.org/2000/svg" width="45" height="45" viewBox="0 0 45 45">
<title>care-heart-1</title>
<path d="M31.959 14.598h3c0.276 0 0.5 0.232 0.5 0.5 0 0.276-0.231 0.5-0.5 0.5h-3v3c0 0.276-0.232 0.5-0.5 0.5-0.276 0-0.5-0.231-0.5-0.5v-3h-3c-0.276 0-0.5-0.232-0.5-0.5 0-0.276 0.231-0.5 0.5-0.5h3v-3c0-0.276 0.232-0.5 0.5-0.5 0.276 0 0.5 0.231 0.5 0.5v3zM21.872 43.18c0.806 0.481 1.305 0.368 1.891 0 3.693-3.446 21.236-15.878 21.236-28.236 0-12.414-15.053-17.909-22.5-8.65-7.048-9.259-22.5-4.425-22.5 8.65 0 11.61 18.509 25.029 21.872 28.236z"></path>
</svg>
