<!-- Generated by IcoMoon.io -->
<svg version="1.1" xmlns="http://www.w3.org/2000/svg" width="45" height="45" viewBox="0 0 45 45">
<title>cart-2</title>
<path d="M7.861 35.466h-1.356c-0.561 0-1.016-0.449-1.016-1.012 0-0.559 0.457-1.012 1.016-1.012h23.798l7.766-28.984c0.083-0.308 0.299-0.545 0.571-0.663 0.182-0.17 0.426-0.274 0.693-0.274h4.652c0.56 0 1.015 0.449 1.015 1.012 0 0.559-0.459 1.012-1.015 1.012h-4.11l-7.741 28.891c-0.081 0.301-0.288 0.533-0.551 0.655-0.187 0.229-0.471 0.376-0.789 0.376h-21.761c1.353 0.279 2.371 1.506 2.371 2.977 0 1.677-1.324 3.037-2.957 3.037s-2.957-1.36-2.957-3.037c0-1.471 1.019-2.698 2.371-2.977zM8.402 39.962c0.839 0 1.518-0.68 1.518-1.518s-0.68-1.518-1.518-1.518c-0.839 0-1.518 0.68-1.518 1.518s0.68 1.518 1.518 1.518z"></path>
<path d="M0.067 10.531c-0.287-1.077 0.379-1.95 1.507-1.95h35.46c1.12 0 1.774 0.876 1.464 1.95l-4.435 15.333c-0.311 1.077-1.474 1.95-2.591 1.95h-24.768c-1.119 0-2.26-0.876-2.547-1.95l-4.091-15.333zM2.070 11.579l3.653 13.238c0.148 0.535 0.722 0.973 1.282 0.973h24.234c0.558 0 1.131-0.436 1.276-0.973l3.577-13.238c0.145-0.535-0.192-0.973-0.753-0.973h-32.523c-0.553 0-0.895 0.436-0.747 0.973z"></path>
<path d="M29.479 41.48c-1.633 0-2.957-1.36-2.957-3.037s1.324-3.037 2.957-3.037c1.633 0 2.957 1.36 2.957 3.037s-1.324 3.037-2.957 3.037zM29.434 39.962c0.839 0 1.518-0.68 1.518-1.518s-0.68-1.518-1.518-1.518c-0.839 0-1.518 0.68-1.518 1.518s0.68 1.518 1.518 1.518z"></path>
</svg>
