<!-- Generated by IcoMoon.io -->
<svg version="1.1" xmlns="http://www.w3.org/2000/svg" width="45" height="45" viewBox="0 0 45 45">
<title>cart-1</title>
<path d="M30.304 33.442h-23.798c-0.559 0-1.016 0.453-1.016 1.012 0 0.563 0.455 1.012 1.016 1.012h1.356c-1.353 0.279-2.371 1.506-2.371 2.977 0 1.677 1.324 3.037 2.957 3.037s2.957-1.36 2.957-3.037c0-1.471-1.019-2.698-2.371-2.977h19.871c-1.353 0.279-2.371 1.506-2.371 2.977 0 1.677 1.324 3.037 2.957 3.037s2.957-1.36 2.957-3.037c0-1.471-1.019-2.698-2.371-2.977h0.719c0.318 0 0.603-0.147 0.789-0.376 0.262-0.121 0.47-0.354 0.551-0.655l7.741-28.891h4.11c0.555 0 1.015-0.453 1.015-1.012 0-0.563-0.454-1.012-1.015-1.012h-4.652c-0.266 0-0.511 0.104-0.693 0.274-0.272 0.119-0.488 0.355-0.571 0.663l-1.105 4.123h-35.391c-1.128 0-1.795 0.873-1.507 1.95l4.091 15.333c0.286 1.074 1.428 1.95 2.547 1.95h24.768c0.115 0 0.231-0.009 0.347-0.027l-1.515 5.654z"></path>
</svg>
