<!-- Generated by IcoMoon.io -->
<svg version="1.1" xmlns="http://www.w3.org/2000/svg" width="45" height="45" viewBox="0 0 45 45">
<title>cloud-2</title>
<path d="M18.491 11.67c0.002 0 0.005 0 0.008 0 4.207 0 7.823 2.53 9.409 6.151l0.288 0.681 0.637-0.195c0.625-0.196 1.343-0.308 2.087-0.308 3.186 0 5.89 2.065 6.845 4.93l0.217 0.681 0.652-0.127c0.267-0.058 0.574-0.094 0.89-0.097l0.048-0c3.465 0.045 4.68 2.73 4.665 5.25 0 2.25-1.147 4.71-2.827 4.71h-35.354c-3.465-0.352-5.445-2.362-5.31-5.392 0.172-3.63 2.925-6.067 5.377-6.067v0c0.416 0 0.819 0.055 1.202 0.157l0.852 0.225 0.068-0.915c0.318-5.411 4.783-9.679 10.244-9.682zM18.491 10.92c-5.861 0.002-10.652 4.581-10.993 10.357-0.408-0.082-0.875-0.148-1.358-0.15-6.399 0-9.751 12-0.121 12.952h35.421c4.372 0 5.73-11.34-1.845-11.437h-0.053c-0.37 0.001-0.73 0.039-1.077 0.111-1.035-3.227-4.021-5.508-7.54-5.508-0.824 0-1.619 0.125-2.367 0.357-1.676-3.969-5.555-6.681-10.068-6.682z"></path>
</svg>
