<!-- Generated by IcoMoon.io -->
<svg version="1.1" xmlns="http://www.w3.org/2000/svg" width="45" height="45" viewBox="0 0 45 45">
<title>connect_spinner</title>
<path d="M21.5 16.25l-2.2-15.6c-1 0.1-2.1 0.4-3.1 0.7l4.4 15.1c0.3-0.1 0.6-0.2 0.9-0.2v0z"></path>
<path d="M18.3 17.65l-10.3-11.8c-0.8 0.7-1.5 1.4-2.2 2.2l11.9 10.3c0.1-0.2 0.4-0.5 0.6-0.7v0z"></path>
<path d="M16.4 20.65l-15.1-4.4c-0.3 1-0.5 2-0.7 3.1l15.5 2.2 0.3-0.9z"></path>
<path d="M25 16.75l6.5-14.3c-0.9-0.4-1.9-0.8-2.9-1.1l-4.4 15.1c0.2 0 0.5 0.2 0.8 0.3v0z"></path>
<path d="M28.7 22.45h15.7c0-1.1-0.1-2.1-0.2-3.1l-15.5 2.2v0.9z"></path>
<path d="M27.7 19.050l13.2-8.5c-0.6-0.9-1.2-1.7-1.9-2.5l-11.8 10.3c0.2 0.2 0.3 0.5 0.5 0.7v0z"></path>
<path d="M25 28.15l6.6 14.3c1-0.4 1.9-0.9 2.8-1.5l-8.5-13.2c-0.4 0.2-0.6 0.3-0.9 0.4v0z"></path>
<path d="M27.7 25.85l13.2 8.5c0.6-0.9 1.1-1.8 1.5-2.8l-14.3-6.5c-0.1 0.3-0.2 0.5-0.4 0.8v0z"></path>
<path d="M21.5 28.65l-2.2 15.5c1 0.1 2.1 0.2 3.1 0.2v-15.6c-0.3 0-0.6 0-0.9-0.1v0z"></path>
<path d="M16.4 24.25l-15.1 4.4c0.3 1 0.7 2 1.1 2.9l14.3-6.5c-0.1-0.3-0.3-0.5-0.3-0.8v0z"></path>
<path d="M18.3 27.25l-10.3 11.8c0.8 0.7 1.6 1.3 2.5 1.9l8.5-13.2c-0.2-0.2-0.5-0.3-0.7-0.5v0z"></path>
</svg>
