<!-- Generated by IcoMoon.io -->
<svg version="1.1" xmlns="http://www.w3.org/2000/svg" width="45" height="45" viewBox="0 0 45 45">
<title>controls-1</title>
<path d="M6.579 23.512v-23.512h-1.579v23.512c-2.678 0.365-4.737 2.558-4.737 5.21s2.059 4.845 4.737 5.21v11.068h1.579v-11.068c2.678-0.365 4.737-2.558 4.737-5.21s-2.059-4.845-4.737-5.21z"></path>
<path d="M23.289 23.509v-23.509h-1.579v23.509c-2.678 0.383-4.737 2.686-4.737 5.47s2.059 5.087 4.737 5.47v10.551h1.579v-10.551c2.678-0.383 4.737-2.686 4.737-5.47s-2.059-5.087-4.737-5.47z"></path>
<path d="M40 9.214v-9.214h-1.579v9.214c-2.678 0.383-4.737 2.686-4.737 5.47s2.059 5.087 4.737 5.47v24.845h1.579v-24.845c2.678-0.383 4.737-2.686 4.737-5.47s-2.059-5.087-4.737-5.47z"></path>
</svg>
