<!-- Generated by IcoMoon.io -->
<svg version="1.1" xmlns="http://www.w3.org/2000/svg" width="45" height="45" viewBox="0 0 45 45">
<title>controls-2</title>
<path d="M6.579 23.512c2.678 0.365 4.737 2.558 4.737 5.21s-2.059 4.845-4.737 5.21v11.068h-1.579v-11.068c-2.678-0.365-4.737-2.558-4.737-5.21s2.059-4.845 4.737-5.21v-23.512h1.579v23.512zM5.789 32.669c2.289 0 4.145-1.767 4.145-3.947s-1.856-3.947-4.145-3.947c-2.289 0-4.145 1.767-4.145 3.947s1.856 3.947 4.145 3.947z"></path>
<path d="M23.289 23.509c2.678 0.383 4.737 2.686 4.737 5.47s-2.059 5.087-4.737 5.47v10.551h-1.579v-10.551c-2.678-0.383-4.737-2.686-4.737-5.47s2.059-5.087 4.737-5.47v-23.509h1.579v23.509zM22.508 33.068c2.289 0 4.145-1.856 4.145-4.145s-1.856-4.145-4.145-4.145c-2.289 0-4.145 1.856-4.145 4.145s1.856 4.145 4.145 4.145z"></path>
<path d="M40 9.214c2.678 0.383 4.737 2.686 4.737 5.47s-2.059 5.087-4.737 5.47v24.845h-1.579v-24.845c-2.678-0.383-4.737-2.686-4.737-5.47s2.059-5.087 4.737-5.47v-9.214h1.579v9.214zM39.211 18.829c2.289 0 4.145-1.856 4.145-4.145s-1.856-4.145-4.145-4.145c-2.289 0-4.145 1.856-4.145 4.145s1.856 4.145 4.145 4.145z"></path>
</svg>
