<!-- Generated by IcoMoon.io -->
<svg version="1.1" xmlns="http://www.w3.org/2000/svg" width="45" height="45" viewBox="0 0 45 45">
<title>devices</title>
<path d="M15.206 10.099c-0.006 1.655-1.352 2.993-3.007 2.989s-2.995-1.348-2.992-3.004c0.002-1.655 1.345-2.996 3-2.996 1.657 0 3 1.343 3 3z"></path>
<path d="M14.026 19.925c0 1.105-0.895 2-2 2s-2-0.895-2-2c0-1.105 0.895-2 2-2s2 0.895 2 2z"></path>
<path d="M36.788 0v0c3.431 0 6.212 2.798 6.212 6.25v32.5c0 3.452-2.781 6.25-6.212 6.25h-28.576c-3.431 0-6.212-2.798-6.212-6.25v-32.5c0-3.452 2.781-6.25 6.212-6.25h28.576zM3 5.996v33.009c0 2.759 2.238 4.996 4.999 4.996h29.002c2.762 0 4.999-2.237 4.999-4.996v-33.009c0-2.759-2.238-4.996-4.999-4.996h-29.002c-2.762 0-4.999 2.237-4.999 4.996z"></path>
</svg>
