<!-- Generated by IcoMoon.io -->
<svg version="1.1" xmlns="http://www.w3.org/2000/svg" width="45" height="45" viewBox="0 0 45 45">
<title>device-found</title>
<path d="M37.15 33.25c-2.7 0-4.9 1.8-5.5 4.3h-7.9v-15.3h15.9v-10.5c2.7-0.4 4.9-2.8 4.9-5.7 0-3.2-2.6-5.7-5.7-5.7s-5.9 2.6-5.9 5.8c0 3.1 2.5 5.7 5.6 5.7v9.4h-14.9v-7.2h-11.8c-0.4-2.7-2.8-4.8-5.7-4.8-3.2 0-5.7 2.6-5.7 5.7 0 3.2 2.6 5.7 5.7 5.7s5.7-2.5 5.7-5.7h10.7v23.5h8.8v0.5c0 3.2 2.6 5.7 5.7 5.7s5.7-2.6 5.7-5.7-2.5-5.7-5.6-5.7zM33.95 6.15c0-2.6 2.1-4.7 4.7-4.7s4.7 2.1 4.7 4.7-2.1 4.7-4.7 4.7-4.7-2.1-4.7-4.7zM6.15 19.65c-2.6 0-4.7-2.1-4.7-4.7s2.1-4.7 4.7-4.7 4.7 2.1 4.7 4.7c0.1 2.6-2.1 4.7-4.7 4.7zM37.15 43.75c-2.6 0-4.7-2.1-4.7-4.7s2.1-4.7 4.7-4.7 4.7 2.1 4.7 4.7c0 2.5-2.1 4.7-4.7 4.7z"></path>
</svg>
