<!-- Generated by IcoMoon.io -->
<svg version="1.1" xmlns="http://www.w3.org/2000/svg" width="45" height="45" viewBox="0 0 45 45">
<title>download-2</title>
<path d="M17 33h12v1h-12v-1z"></path>
<path d="M22.5 10c0.828 0 1.5 0.672 1.5 1.5v19c0 0.828-0.672 1.5-1.5 1.5s-1.5-0.672-1.5-1.5v-19c0-0.828 0.672-1.5 1.5-1.5z"></path>
<path d="M28.726 24.042c0.596 0.575 0.613 1.525 0.037 2.121l-4.863 5.035c-0.575 0.596-1.525 0.613-2.121 0.037s-0.613-1.525-0.037-2.121l4.863-5.035c0.575-0.596 1.525-0.613 2.121-0.037z"></path>
<path d="M16.079 24.042c0.596-0.575 1.546-0.559 2.121 0.037l4.863 5.035c0.575 0.596 0.559 1.546-0.037 2.121s-1.546 0.559-2.121-0.037l-4.863-5.035c-0.575-0.596-0.559-1.546 0.037-2.121z"></path>
<path d="M22.5 45c-12.426 0-22.5-10.074-22.5-22.5s10.074-22.5 22.5-22.5c12.426 0 22.5 10.074 22.5 22.5s-10.074 22.5-22.5 22.5zM22.5 44c11.874 0 21.5-9.626 21.5-21.5s-9.626-21.5-21.5-21.5c-11.874 0-21.5 9.626-21.5 21.5s9.626 21.5 21.5 21.5z"></path>
</svg>
