<!-- Generated by IcoMoon.io -->
<svg version="1.1" xmlns="http://www.w3.org/2000/svg" width="45" height="45" viewBox="0 0 45 45">
<title>download-1</title>
<path d="M21 26.978l-2.802-2.902c-0.573-0.594-1.523-0.61-2.119-0.035-0.6 0.58-0.613 1.524-0.039 2.119l4.867 5.040c0.152 0.157 0.331 0.274 0.522 0.35 0.272 0.277 0.652 0.449 1.072 0.449 0.524 0 0.981-0.264 1.249-0.664 0.052-0.041 0.102-0.086 0.149-0.135l4.867-5.040c0.573-0.594 0.557-1.543-0.039-2.119-0.6-0.58-1.545-0.56-2.119 0.035l-2.607 2.699v-15.281c0-0.824-0.672-1.495-1.5-1.495-0.834 0-1.5 0.669-1.5 1.495v15.484zM22.5 45c-12.426 0-22.5-10.074-22.5-22.5s10.074-22.5 22.5-22.5c12.426 0 22.5 10.074 22.5 22.5s-10.074 22.5-22.5 22.5zM17 33v1h12v-1h-12z"></path>
</svg>
