<!-- Generated by IcoMoon.io -->
<svg version="1.1" xmlns="http://www.w3.org/2000/svg" width="45" height="45" viewBox="0 0 45 45">
<title>family-1</title>
<path d="M12.911 16.629c0 2.85-1.848 5.16-4.128 5.16s-4.128-2.31-4.128-5.16c0-2.85 1.848-5.16 4.128-5.16s4.128 2.31 4.128 5.16z"></path>
<path d="M17.28 23.057c1.555 1.238 5.541 3.553 10.731 0 4.196 1.152 8.253 8.146 7.992 9.993-9.472 13.467-25.925 2.757-26.666 0.543 0-4.162 6.057-10.251 7.942-10.535z"></path>
<path d="M40.777 16.629c0 2.85-1.848 5.16-4.128 5.16s-4.128-2.31-4.128-5.16c0-2.85 1.848-5.16 4.128-5.16s4.128 2.31 4.128 5.16z"></path>
<path d="M29.424 13.533c0 4.56-3.003 8.256-6.708 8.256s-6.708-3.697-6.708-8.256c0-4.56 3.003-8.256 6.708-8.256s6.708 3.697 6.708 8.256z"></path>
<path d="M5.133 23.038c0 1.739 5.493-0.261 7.347 0.334-1.013 1.207-5.249 4.446-6.459 9.226-1.804 0.411-6.021-2.511-6.021-4.222 0.92-2.645 3.431-5.338 5.133-5.338z"></path>
<path d="M39.867 22.822c0 1.739-5.493-0.261-7.347 0.334 1.013 1.207 5.249 4.446 6.459 9.226 1.804 0.411 6.021-2.511 6.021-4.222-0.92-2.645-3.431-5.338-5.133-5.338z"></path>
</svg>
