<!-- Generated by IcoMoon.io -->
<svg version="1.1" xmlns="http://www.w3.org/2000/svg" width="45" height="45" viewBox="0 0 45 45">
<title>family-2</title>
<path d="M8.783 21.79c-2.28 0-4.128-2.31-4.128-5.16s1.848-5.16 4.128-5.16c2.28 0 4.128 2.31 4.128 5.16s-1.848 5.16-4.128 5.16zM8.783 20.758c1.71 0 3.096-1.848 3.096-4.128s-1.386-4.128-3.096-4.128c-1.71 0-3.096 1.848-3.096 4.128s1.386 4.128 3.096 4.128z"></path>
<path d="M17.28 23.057c-1.885 0.284-7.942 6.373-7.942 10.535 0.741 2.215 17.194 12.924 26.666-0.543 0.26-1.847-3.797-8.841-7.992-9.993-5.19 3.553-9.176 1.238-10.731 0zM17.045 24.184c1.435 1.085 6.387 3.113 11.175 0 3.711 1.284 7.058 7.144 6.818 8.762-8.739 11.8-23.744 2.523-24.699 0.259 0.683-4.152 5-8.234 6.706-9.021z"></path>
<path d="M36.648 21.79c-2.28 0-4.128-2.31-4.128-5.16s1.848-5.16 4.128-5.16c2.28 0 4.128 2.31 4.128 5.16s-1.848 5.16-4.128 5.16zM36.648 20.758c1.71 0 3.096-1.848 3.096-4.128s-1.386-4.128-3.096-4.128c-1.71 0-3.096 1.848-3.096 4.128s1.386 4.128 3.096 4.128z"></path>
<path d="M22.715 21.79c-3.705 0-6.708-3.697-6.708-8.256s3.003-8.256 6.708-8.256c3.705 0 6.708 3.697 6.708 8.256s-3.003 8.256-6.708 8.256zM22.715 20.758c3.135 0 5.676-3.235 5.676-7.224s-2.541-7.224-5.676-7.224c-3.135 0-5.676 3.235-5.676 7.224s2.541 7.224 5.676 7.224z"></path>
<path d="M5.133 23.038c-1.701 0-4.213 2.693-5.133 5.338 0 1.711 4.217 4.633 6.021 4.222 1.209-4.78 5.446-8.019 6.459-9.226-1.854-0.595-7.347 1.405-7.347-0.334zM4.516 23.976c0.522 1.129 4.077 0.327 5.999 0.147-0.845 0.947-4.194 3.697-5.203 7.449-1.496 0-4.030-1.906-4.414-3.211 0.951-2.129 2.207-3.813 3.618-4.385z"></path>
<path d="M39.867 22.822c1.701 0 4.213 2.693 5.133 5.338 0 1.711-4.217 4.633-6.021 4.222-1.209-4.78-5.446-8.019-6.459-9.226 1.854-0.595 7.347 1.405 7.347-0.334zM40.583 23.854c-0.522 1.129-4.077 0.327-5.999 0.147 0.845 0.947 4.194 3.697 5.203 7.449 1.496 0 4.030-1.906 4.414-3.211-0.951-2.129-2.207-3.813-3.618-4.385z"></path>
</svg>
