<!-- Generated by IcoMoon.io -->
<svg version="1.1" xmlns="http://www.w3.org/2000/svg" width="45" height="45" viewBox="0 0 45 45">
<title>flame</title>
<path d="M22.413 43.736c0.029 0 0.058 0 0.087 0 0.018 0 0.036-0 0.053-0-0.047-0-0.093-0-0.14-0zM16.568 42.597c-5.923-2.212-11.676-7.68-10.75-16.718 0.603-5.886 7.699-11.605 10.114-14.943s3.157-5.005 4.994-8.254c1.039-1.837 2.081-1.922 2.953-0.062 1.214 2.588 3.219 6.371 4.435 8.316 1.98 3.166 10.163 9.6 10.833 14.943 1.121 8.955-5.050 14.648-11.184 16.838-0.367-0.205-0.667-0.444-0.805-0.763 6.035-2.010 12.333-7.645 11.087-16.051-0.708-4.776-7.388-9.517-10.453-14.178s-4.873-8.973-4.873-8.973c-0.212-0.48-0.59-0.483-0.838-0.020 0 0-3.047 5.806-5.353 8.993s-9.268 8.382-9.844 14.001c-0.9 8.784 4.631 14.035 10.305 16.071-0.094 0.237-0.282 0.491-0.622 0.801z"></path>
<path d="M17.162 42.826c-3.636-1.33-5.26-4.395-4.624-9.583 0.744-6.069 7.1-6.7 8.964-13.859 0.496-0.946 1.649-0.78 1.93 0 0.437 5.106 8.588 8.872 9.063 13.859 0.507 5.321-1.274 8.506-5.296 9.757-0.145-0.268-0.172-0.595-0.017-1.012 3.175-1.272 4.671-4.152 4.243-8.785-0.424-4.582-8.491-8.573-8.88-13.265-1.661 6.578-8.189 7.689-8.852 13.265-0.523 4.402 0.753 7.148 3.486 8.51 0.091 0.413 0.159 0.737-0.016 1.113z"></path>
</svg>
