<!-- Generated by IcoMoon.io -->
<svg version="1.1" xmlns="http://www.w3.org/2000/svg" width="45" height="45" viewBox="0 0 45 45">
<title>gear</title>
<path d="M45 26.601v-8.201c-4.028-1.436-5.111-1.504-5.676-2.867-0.568-1.367 0.156-2.192 1.986-6.043l-5.799-5.799c-3.799 1.806-4.665 2.557-6.045 1.986-1.363-0.566-1.44-1.667-2.863-5.676h-8.203c-1.432 4.020-1.5 5.109-2.867 5.676-1.41 0.587-2.256-0.188-6.043-1.986l-5.799 5.799c1.832 3.853 2.554 4.674 1.986 6.045-0.566 1.363-1.652 1.432-5.676 2.865v8.203c4.011 1.425 5.109 1.5 5.676 2.865 0.57 1.376-0.152 2.188-1.986 6.043l5.799 5.799c3.748-1.781 4.631-2.574 6.043-1.986 1.365 0.566 1.432 1.65 2.867 5.676h8.201c1.421-3.996 1.498-5.106 2.882-5.683 1.397-0.577 2.224 0.186 6.028 1.991l5.799-5.799c-1.828-3.844-2.554-4.672-1.986-6.043 0.562-1.361 1.65-1.431 5.676-2.865v0 0zM35.165 39.549c-2.337-1.178-4.29-2.554-6.503-1.62s-2.221 2.91-3.073 5.479h-6.326c-0.851-2.571-0.763-4.543-2.803-5.479s-4.352 0.463-6.644 1.62l-4.243-4.369c1.191-2.426 2.364-3.942 1.532-6.306s-2.963-2.647-5.498-3.511v-5.771c2.534-0.864 4.526-1.205 5.495-3.517s-0.341-3.979-1.53-6.409l3.965-4.134c2.314 1.167 4.756 2.485 6.922 1.484s1.952-2.839 2.803-5.41h6.326c0.851 2.571 0.954 4.54 3.064 5.41s4.394-0.328 6.689-1.484l4.155 4.134c-1.189 2.432-2.735 4.581-1.916 6.411s3.292 2.37 5.828 3.236v6.307c-2.541 0.864-5.101 1.206-5.832 3.259s0.731 3.872 1.92 6.302l-4.333 4.369zM22.5 34.554v0c-6.657 0-12.054-5.397-12.054-12.054s5.397-12.054 12.054-12.054c6.657 0 12.054 5.397 12.054 12.054s-5.397 12.054-12.054 12.054zM22.5 32.946c5.769 0 10.446-4.677 10.446-10.446s-4.677-10.446-10.446-10.446c-5.769 0-10.446 4.677-10.446 10.446s4.677 10.446 10.446 10.446v0z"></path>
</svg>
