<!-- Generated by IcoMoon.io -->
<svg version="1.1" xmlns="http://www.w3.org/2000/svg" width="45" height="45" viewBox="0 0 45 45">
<title>get-support-1</title>
<path fill="#4a4a4a" d="M4.067 35.405c-2.563-3.654-4.067-8.104-4.067-12.905 0-4.821 1.516-9.288 4.098-12.95l6.191 6.125c-1.131 2.019-1.775 4.347-1.775 6.825 0 2.458 0.634 4.769 1.748 6.776l-6.195 6.129zM9.354 40.762l6.191-6.125c2.049 1.176 4.423 1.849 6.955 1.849s4.907-0.673 6.955-1.849l6.191 6.125c-3.698 2.667-8.238 4.238-13.146 4.238s-9.448-1.571-13.146-4.238zM35.601 4.206l-6.195 6.129c-2.037-1.159-4.395-1.821-6.906-1.821s-4.869 0.662-6.906 1.821l-6.195-6.129c3.69-2.647 8.214-4.206 13.101-4.206s9.412 1.559 13.101 4.206zM40.902 9.55c2.582 3.662 4.098 8.129 4.098 12.95 0 4.802-1.504 9.252-4.067 12.905l-6.195-6.129c1.114-2.007 1.748-4.318 1.748-6.776 0-2.478-0.645-4.806-1.775-6.825l6.191-6.125z"></path>
</svg>
