<!-- Generated by IcoMoon.io -->
<svg version="1.1" xmlns="http://www.w3.org/2000/svg" width="45" height="45" viewBox="0 0 45 45">
<title>headset-1</title>
<path d="M42.517 21.912h-1.058c0.107-3.125-0.178-10.956-5.062-16.41-3.268-3.648-7.95-5.49-13.903-5.49s-10.623 1.842-13.891 5.49c-4.896 5.454-5.169 13.285-5.062 16.41h-1.058c-0.525 0-0.951 0.426-0.951 0.951v7.985c0 0.525 0.426 0.951 0.951 0.951h4.646c0.525 0 0.951-0.426 0.951-0.951v-7.985c0-0.525-0.426-0.951-0.951-0.951h-1.188c-0.107-2.745 0.107-10.017 4.432-14.83 2.804-3.113 6.88-4.694 12.12-4.694s9.328 1.58 12.12 4.694c4.325 4.812 4.539 12.085 4.456 14.83h-1.188c-0.525 0-0.951 0.426-0.951 0.951v7.985c0 0.525 0.426 0.951 0.951 0.951h1.188v3.945c-0.005 1.356-0.484 2.6-1.28 3.575-0.603 0.575-1.434 0.935-2.348 0.935-0.074 0-0.147-0.002-0.22-0.007l-7.239 0.001v-0.606c0-0.984-0.798-1.782-1.782-1.782h-4.040c-0.984 0-1.782 0.798-1.782 1.782v3.565c0 0.984 0.798 1.782 1.782 1.782h4.064c0.984 0 1.782-0.798 1.782-1.782v-0.606h7.248c0.086 0.005 0.188 0.007 0.29 0.007 1.562 0 2.978-0.624 4.013-1.636 1.189-1.393 1.913-3.216 1.913-5.208 0-0.036-0-0.072-0.001-0.109l0-3.916h1.046c0.525 0 0.951-0.426 0.951-0.951v-7.926c0-0.525-0.426-0.951-0.951-0.951z"></path>
</svg>
