<!-- Generated by IcoMoon.io -->
<svg version="1.1" xmlns="http://www.w3.org/2000/svg" width="45" height="45" viewBox="0 0 45 45">
<title>history</title>
<path d="M28.079 42.227c9.573-1.409 16.921-9.656 16.921-19.621 0-10.953-8.88-19.833-19.833-19.833s-19.833 8.88-19.833 19.833c0 0.134 0.001 0.268 0.004 0.402 0.737 0.023 1.27 0.017 1.27-0.066 0-10.223 8.335-18.847 18.558-18.847s18.511 8.288 18.511 18.511c0 9.243-6.774 16.903-15.629 18.288 0 0.404 0.014 0.868 0.030 1.333z"></path>
<path d="M6.337 30.539l-6.072-6.747c-0.487-0.541-0.284-0.978 0.453-0.978h11.239c0.736 0 0.939 0.438 0.453 0.978l-6.072 6.747zM6.337 28.678l4.167-4.63h-8.333l4.167 4.63z"></path>
<path d="M23.184 11.368h2.644v13.222h-2.644v-13.222z"></path>
<path d="M31.974 28.325l-1.7 2.026-7.090-5.949 1.7-2.026 7.090 5.949z"></path>
</svg>
