<!-- Generated by IcoMoon.io -->
<svg version="1.1" xmlns="http://www.w3.org/2000/svg" width="45" height="45" viewBox="0 0 45 45">
<title>hot-water</title>
<path d="M22.488 44.73c-5.481 0-14.705-3.578-15.189-14.268s8.889-21.901 12.814-29.057c0.582-1.529 2.676-1.494 3.22 0 4.405 7.025 14.387 19.056 14.387 29.057s-9.75 14.268-15.231 14.268zM22.512 43.714c5.118 0 14.247-3.817 14.247-13.155s-9.336-21.038-13.449-27.597c-1.301-2.655-2.148-2.269-3.149 0-3.664 6.682-12.345 17.616-11.893 27.597s9.126 13.155 14.244 13.155z"></path>
<path d="M16.63 20.537h0.959c0 0-0.949 0.852-0.949 3.218s1.935 4.162 1.935 6.525c0 2.362-0.987 4.748-0.987 4.748h-0.959c0 0 0.959-2.639 0.959-4.748s-1.925-3.851-1.925-6.525c0-2.673 0.966-3.218 0.966-3.218z"></path>
<path d="M21.967 20.537h0.959c0 0-0.949 0.852-0.949 3.218s1.935 4.162 1.935 6.525c0 2.362-0.987 4.748-0.987 4.748h-0.959c0 0 0.959-2.639 0.959-4.748s-1.925-3.851-1.925-6.525c0-2.673 0.966-3.218 0.966-3.218z"></path>
<path d="M27.303 20.537h0.959c0 0-0.949 0.852-0.949 3.218s1.935 4.162 1.935 6.525c0 2.362-0.987 4.748-0.987 4.748h-0.959c0 0 0.959-2.639 0.959-4.748s-1.925-3.851-1.925-6.525c0-2.673 0.966-3.218 0.966-3.218z"></path>
</svg>
