<!-- Generated by IcoMoon.io -->
<svg version="1.1" xmlns="http://www.w3.org/2000/svg" width="45" height="45" viewBox="0 0 45 45">
<title>info</title>
<path d="M26.696 15.434h2.647l-4.606 18.821c-0.219 0.781-0.379 1.577-0.476 2.382-0.012 0.277 0.094 0.547 0.291 0.741 0.206 0.196 0.483 0.301 0.768 0.291 1.301-0.22 2.478-0.907 3.309-1.932l2.885 3.6c-2.283 2.646-5.561 4.227-9.053 4.368-1.233 0.034-2.456-0.22-3.574-0.741-0.973-0.489-1.789-1.241-2.356-2.171-0.522-0.788-0.824-1.703-0.874-2.647 0.026-0.559 0.088-1.116 0.185-1.668 0.127-0.953 0.303-1.898 0.529-2.832l2.647-10.456h-5.532l1.297-5.294c4.043-0.421 8.033-1.246 11.912-2.462zM25.849 1.298c1.22-0.065 2.406 0.421 3.229 1.324 0.773 0.875 1.188 2.009 1.165 3.176-0.002 0.93-0.248 1.843-0.715 2.647-0.478 0.855-1.183 1.56-2.038 2.038-0.795 0.495-1.711 0.76-2.647 0.768-0.807-0.006-1.599-0.215-2.303-0.609-0.728-0.381-1.333-0.959-1.747-1.668-0.404-0.69-0.614-1.477-0.609-2.276 0.018-0.935 0.283-1.848 0.768-2.647 0.474-0.842 1.17-1.537 2.012-2.012 0.877-0.504 1.874-0.76 2.885-0.741v0z"></path>
</svg>
