<!-- Generated by IcoMoon.io -->
<svg version="1.1" xmlns="http://www.w3.org/2000/svg" width="45" height="45" viewBox="0 0 45 45">
<title>invoice-1</title>
<path d="M4.821 3.459v38.082c0 1.843 1.492 3.335 3.337 3.335h28.683c1.842 0 3.337-1.496 3.337-3.334v-25.363l-14.049-16.056h-17.973c-1.842 0-3.336 1.495-3.336 3.335v0zM26.332 1.482l12.658 14.466h-10.058c-1.437 0-2.599-1.162-2.599-2.596v-11.87zM39.437 16.69v24.853c0 1.429-1.164 2.592-2.595 2.592h-28.683c-1.435 0-2.595-1.16-2.595-2.594v-38.082c0-1.431 1.162-2.594 2.594-2.594h17.434v12.486c0 1.844 1.494 3.338 3.341 3.338h10.505zM22.158 28.627c-0.388-0.113-0.779-0.257-1.173-0.432s-0.748-0.392-1.062-0.652c-0.314-0.26-0.571-0.576-0.771-0.948s-0.3-0.819-0.3-1.338c0-0.485 0.094-0.926 0.283-1.321s0.437-0.734 0.745-1.016c0.308-0.282 0.659-0.505 1.053-0.669s0.802-0.262 1.224-0.296v-1.185h0.822v1.152c0.411 0 0.776 0.040 1.096 0.119s0.605 0.186 0.856 0.322c0.251 0.135 0.477 0.291 0.676 0.466s0.38 0.353 0.539 0.533l-0.959 0.813c-0.24-0.395-0.565-0.686-0.976-0.872s-0.822-0.274-1.233-0.262v4.522c0.422 0.147 0.839 0.313 1.25 0.5s0.782 0.418 1.113 0.694c0.331 0.277 0.599 0.61 0.805 0.999s0.308 0.861 0.308 1.414c0 0.474-0.088 0.906-0.265 1.296s-0.422 0.725-0.736 1.008c-0.314 0.282-0.682 0.508-1.105 0.677s-0.879 0.271-1.37 0.305v1.152h-0.822v-1.118c-0.799-0.045-1.516-0.246-2.149-0.601s-1.122-0.776-1.464-1.262l1.028-0.728c0.183 0.237 0.388 0.446 0.617 0.627s0.457 0.333 0.685 0.457c0.228 0.124 0.454 0.217 0.676 0.279s0.425 0.093 0.608 0.093v-4.725zM22.158 23.055c-0.308 0.023-0.588 0.093-0.839 0.212s-0.468 0.274-0.651 0.466c-0.183 0.192-0.325 0.415-0.428 0.669s-0.154 0.528-0.154 0.821c0 0.294 0.054 0.548 0.163 0.762s0.257 0.404 0.445 0.567c0.188 0.164 0.408 0.308 0.659 0.432s0.519 0.237 0.805 0.339v-4.268zM22.98 33.335c0.217 0 0.457-0.034 0.719-0.102s0.505-0.186 0.728-0.356c0.223-0.169 0.411-0.392 0.565-0.669s0.231-0.624 0.231-1.042c0.011-0.576-0.197-1.053-0.625-1.431s-0.968-0.669-1.618-0.872v4.471z"></path>
</svg>
