<!-- Generated by IcoMoon.io -->
<svg version="1.1" xmlns="http://www.w3.org/2000/svg" width="45" height="45" viewBox="0 0 45 45">
<title>kit-2</title>
<path d="M32 22.5v0.5h-1.035l7.362 3.697-15.327 7.294-16.066-7.294 7.717-3.697h-0.651v-0.75l-9 4.25 18 8.5 17-8.5-8-4zM5 26.5l18 8.5v10l-18-7.5v-11zM6 27.4v9.536l16.5 6.795v-8.635l-16.5-7.697zM40 26.5v11l-17 7.5v-10l17-8.5zM39 27.511l-15.5 7.574v8.574l15.5-6.838v-9.31z"></path>
<path d="M23 0l17 8.5-17 8.5-18-8.5 18-8.5zM23 1l-16.066 7.697 16.066 7.294 15.327-7.294-15.327-7.697zM5 8.5l18 8.5v10l-18-7.5v-11zM6 9.4v9.536l16.5 6.795v-8.635l-16.5-7.697zM40 8.5v11l-17 7.5v-10l17-8.5zM39 9.511l-15.5 7.574v8.574l15.5-6.838v-9.31z"></path>
</svg>
