<!-- Generated by IcoMoon.io -->
<svg version="1.1" xmlns="http://www.w3.org/2000/svg" width="45" height="45" viewBox="0 0 45 45">
<title>lawn-1</title>
<path d="M19.539 2.102c-0.585-2.075-0.177-2.251 0.875-0.352 0 0 6.684 10.659 6.684 19.302 0 12.581-3.798 19.437-3.798 19.437-0.854 1.98-1.302 1.85-1.019-0.292 0 0 1.701-11.263 1.325-17.732-0.498-8.573-4.067-20.362-4.067-20.362z"></path>
<path d="M32.825 25.167c1.545-1.048 1.895-0.664 0.833 0.868 0 0-2.37 2.942-3.379 6.177-0.706 2.261-1.612 7.482-1.612 7.482-0.339 1.84-0.779 1.824-0.934-0.043 0 0-0.709-4.487 0.321-8.712 0.934-3.831 4.772-5.771 4.772-5.771z"></path>
<path d="M34.682 33.072c1.145-0.663 1.395-0.376 0.568 0.664 0 0-1.378 1.565-2.196 3.159-0.568 1.107-1.313 4.040-1.313 4.040-0.348 1.273-0.706 1.233-0.745-0.089 0 0-0.332-1.902 0.53-4.81 0.518-1.75 3.156-2.964 3.156-2.964z"></path>
<path d="M10.848 19.761c-2.306-2.365-2.053-2.643 0.473-0.494 0 0 6.914 4.507 9.021 11.934 1.702 5.999 0.625 10.889 0.625 10.889-0.345 3.306-0.915 3.303-1.335 0.010 0 0-0.044-2.174-1.632-9.409-2.020-9.204-7.153-12.931-7.153-12.931z"></path>
</svg>
