<!-- Generated by IcoMoon.io -->
<svg version="1.1" xmlns="http://www.w3.org/2000/svg" width="45" height="45" viewBox="0 0 45 45">
<title>location-1</title>
<path d="M22.494 0c-7.75 0.197-13.968 6.482-14.058 14.239-0 7.881 6.103 17.272 14.058 30.761 7.967-13.476 14.070-22.88 14.070-30.752-0.090-7.77-6.315-14.057-14.052-14.248zM22.494 6.661c4.354 0.15 7.827 3.716 7.827 8.093 0 0.077-0.001 0.153-0.003 0.229 0.002 0.054 0.003 0.13 0.003 0.207 0 4.377-3.473 7.943-7.814 8.093-4.368-0.15-7.841-3.716-7.841-8.093 0-0.077 0.001-0.153 0.003-0.229-0.002-0.054-0.003-0.13-0.003-0.207 0-4.377 3.473-7.943 7.814-8.093z"></path>
</svg>
