<!-- Generated by IcoMoon.io -->
<svg version="1.1" xmlns="http://www.w3.org/2000/svg" width="45" height="45" viewBox="0 0 45 45">
<title>manual-1</title>
<path d="M36.116 17.571c-0.776-0-1.527 0.278-2.117 0.783-0.349-1.135-1.288-1.989-2.451-2.229s-2.364 0.174-3.132 1.079c-0.591-1.12-1.779-1.795-3.044-1.729s-2.376 0.861-2.847 2.037l-0.233-13.883c0.061-1.628-1.206-2.999-2.833-3.067-1.561 0.064-2.835 1.27-2.983 2.825l-0.325 20c-1.783-2.15-4.050-3.867-6.842-4.167-3.767-0.4-4.392 2.925-3.008 3.617 3.725 1.85 7.2 7.367 8.917 10.833 2.2 5.425 2.633 10.767 11.767 10.767 5 0 8.267-1.667 10.175-5.833 1.558-3.408 2.217-8.475 2.217-15.667v-2.117c0-0.863-0.344-1.691-0.955-2.301s-1.44-0.951-2.303-0.949v0z"></path>
</svg>
