<!-- Generated by IcoMoon.io -->
<svg version="1.1" xmlns="http://www.w3.org/2000/svg" width="45" height="45" viewBox="0 0 45 45">
<title>more-1</title>
<path d="M6.429 28.929c3.55 0 6.429-2.878 6.429-6.429s-2.878-6.429-6.429-6.429c-3.55 0-6.429 2.878-6.429 6.429s2.878 6.429 6.429 6.429z"></path>
<path d="M22.5 28.929c3.55 0 6.429-2.878 6.429-6.429s-2.878-6.429-6.429-6.429c-3.55 0-6.429 2.878-6.429 6.429s2.878 6.429 6.429 6.429z"></path>
<path d="M38.571 28.929c3.55 0 6.429-2.878 6.429-6.429s-2.878-6.429-6.429-6.429c-3.55 0-6.429 2.878-6.429 6.429s2.878 6.429 6.429 6.429z"></path>
</svg>
