<!-- Generated by IcoMoon.io -->
<svg version="1.1" xmlns="http://www.w3.org/2000/svg" width="45" height="45" viewBox="0 0 45 45">
<title>more-2</title>
<path d="M6.429 28.929c-3.55 0-6.429-2.878-6.429-6.429s2.878-6.429 6.429-6.429c3.55 0 6.429 2.878 6.429 6.429s-2.878 6.429-6.429 6.429zM6.429 27.93c2.999 0 5.43-2.431 5.43-5.43s-2.431-5.43-5.43-5.43c-2.999 0-5.43 2.431-5.43 5.43s2.431 5.43 5.43 5.43z"></path>
<path d="M22.5 28.929c-3.55 0-6.429-2.878-6.429-6.429s2.878-6.429 6.429-6.429c3.55 0 6.429 2.878 6.429 6.429s-2.878 6.429-6.429 6.429zM22.5 27.93c2.999 0 5.43-2.431 5.43-5.43s-2.431-5.43-5.43-5.43c-2.999 0-5.43 2.431-5.43 5.43s2.431 5.43 5.43 5.43z"></path>
<path d="M38.571 28.929c-3.55 0-6.429-2.878-6.429-6.429s2.878-6.429 6.429-6.429c3.55 0 6.429 2.878 6.429 6.429s-2.878 6.429-6.429 6.429zM38.571 27.93c2.999 0 5.43-2.431 5.43-5.43s-2.431-5.43-5.43-5.43c-2.999 0-5.43 2.431-5.43 5.43s2.431 5.43 5.43 5.43z"></path>
</svg>
