<!-- Generated by IcoMoon.io -->
<svg version="1.1" xmlns="http://www.w3.org/2000/svg" width="45" height="45" viewBox="0 0 45 45">
<title>night-2</title>
<path d="M18.943 23.812c4.124 7.72 13.24 11.308 21.519 8.468-4.952 9.643-16.33 14.064-26.494 10.294s-15.906-14.542-13.371-25.082c2.535-10.54 12.547-17.523 23.314-16.259-6.966 5.292-9.069 14.852-4.968 22.579zM21.995 1.909c-10.211-0.559-18.433 6.938-20.752 16.053-1.817 9.967 3.040 19.226 12.351 23.526 10.326 3.702 20.082-0.385 25.259-7.941-7.866 2.698-16.912-2.109-20.827-9.421-3.28-6.127-3.099-16.348 3.969-22.217z"></path>
<path d="M44.809 20.215l-0.171-0.064-4.614-1.285c-0.271-0.095-0.457-0.345-0.471-0.632v-4.796c0-0.214 0-0.353-0.128-0.396h-0.139c-0.075 0-0.128 0.128-0.182 0.332l-1.285 4.614c-0.089 0.277-0.341 0.469-0.632 0.482h-4.786c-0.15 0-0.375 0-0.407 0.171s0 0.161 0.171 0.236l0.171 0.054 4.614 1.285c0.271 0.095 0.457 0.345 0.471 0.632v4.786c0 0.214 0 0.353 0.139 0.407h0.139c0.075 0 0.128-0.128 0.182-0.332l1.285-4.614c0.089-0.277 0.341-0.469 0.632-0.482h4.786c0.15 0 0.375 0 0.407-0.171s-0.021-0.161-0.182-0.225v0 0z"></path>
<path d="M28.311 10.954c0.205 0.074 0.344 0.264 0.353 0.482 0 0 0.030 4.010 0.186 4.010s1.109-3.818 1.109-3.818c0.084-0.204 0.283-0.335 0.503-0.332 0 0 3.961 0.066 3.961-0.128s-3.768-1.156-3.768-1.156c-0.207-0.073-0.351-0.263-0.364-0.482 0 0 0-3.951-0.107-3.951s-1.178 3.768-1.178 3.768c-0.066 0.207-0.254 0.352-0.471 0.364 0 0-3.961-0.043-3.961 0.128s3.736 1.113 3.736 1.113z"></path>
</svg>
