<!-- Generated by IcoMoon.io -->
<svg version="1.1" xmlns="http://www.w3.org/2000/svg" width="45" height="45" viewBox="0 0 45 45">
<title>notification-2</title>
<path d="M34.73 33h-1.817l-8.866 9.001v-9.001h-19.040c-2.213 0-4.007-1.789-4.007-4.004v-23.992c0-2.212 1.793-4.004 4.007-4.004h34.987c2.213 0 4.007 1.789 4.007 4.004v23.992c0 2.212-1.793 4.004-4.007 4.004h-5.263zM33.468 34h6.522c2.778 0 5.009-2.238 5.009-4.999v-24.003c0-2.768-2.243-4.999-5.009-4.999h-34.981c-2.778 0-5.009 2.238-5.009 4.999v24.003c0 2.768 2.243 4.999 5.009 4.999h18.038v10.5l10.421-10.5z"></path>
<path d="M8 22h15.047v1h-15.047v-1z"></path>
<path d="M8 15.5h30v1h-30v-1z"></path>
<path d="M8 9h30v1h-30v-1z"></path>
</svg>
