<!-- Generated by IcoMoon.io -->
<svg version="1.1" xmlns="http://www.w3.org/2000/svg" width="45" height="45" viewBox="0 0 45 45">
<title>page-2</title>
<path d="M26 1h-18.010c-1.093 0-1.991 0.896-1.991 2.002v38.996c0 1.104 0.891 2.002 1.99 2.002h29.021c1.090 0 1.99-0.892 1.99-1.991v-25.009h-10.995c-1.108 0-2.006-0.89-2.006-2v-14zM5 3.005c0-1.66 1.345-3.005 3.001-3.005h18.499l13.5 15.5v26.509c0 1.652-1.351 2.991-2.999 2.991h-29.002c-1.656 0-2.999-1.347-2.999-3.005v-38.99zM27 1.995v12.998c0 0.557 0.449 1.007 1.002 1.007h10.998l-12-14.005z"></path>
<path d="M11 11h15v1h-15v-1z"></path>
<path d="M11 22.5h22v1h-22v-1z"></path>
<path d="M11 33.5h22v1h-22v-1z"></path>
</svg>
