<!-- Generated by IcoMoon.io -->
<svg version="1.1" xmlns="http://www.w3.org/2000/svg" width="45" height="45" viewBox="0 0 45 45">
<title>pdf-1</title>
<path d="M15.469 26.309c-0.196-0.121-0.425-0.21-0.67-0.252-0.264-0.049-0.555-0.076-0.851-0.076-0.009 0-0.018 0-0.027 0h-1.421v3.058h1.392c0.013 0 0.028 0 0.044 0 0.298 0 0.588-0.031 0.869-0.090 0.235-0.049 0.468-0.142 0.678-0.269 0.183-0.117 0.338-0.285 0.439-0.485 0.104-0.203 0.163-0.434 0.163-0.679 0-0.017-0-0.034-0.001-0.052 0.001-0.014 0.001-0.033 0.001-0.052 0-0.242-0.061-0.47-0.169-0.669-0.111-0.175-0.263-0.324-0.443-0.432z"></path>
<path d="M24.867 26.925c-0.351-0.296-0.767-0.529-1.223-0.674-0.482-0.155-1.007-0.241-1.552-0.241-0.016 0-0.032 0-0.047 0h-1.643v7.14h1.646c0.010 0 0.022 0 0.034 0 0.55 0 1.079-0.089 1.573-0.254 0.446-0.147 0.862-0.385 1.218-0.69 0.341-0.299 0.618-0.672 0.803-1.095 0.193-0.448 0.301-0.946 0.301-1.469 0-0.015-0-0.030-0-0.045 0-0.020 0.001-0.046 0.001-0.073 0-0.531-0.108-1.037-0.304-1.497-0.18-0.422-0.457-0.8-0.802-1.101z"></path>
<path d="M40.182 16.041l-14.032-16.041h-18.070c-1.854 0-3.356 1.503-3.356 3.356v38.287c0 0.001 0 0.003 0 0.005 0 1.851 1.5 3.351 3.351 3.351 0.002 0 0.004 0 0.005 0h28.84c0 0 0 0 0 0 1.852 0 3.354-1.5 3.356-3.351v-25.504zM17.155 28.705c-0.172 0.336-0.414 0.613-0.709 0.821-0.317 0.227-0.681 0.398-1.074 0.497-0.419 0.103-0.875 0.159-1.344 0.159-0.014 0-0.028-0-0.042-0h-1.49v4.127h-1.308v-9.447h2.869c0.016-0 0.036-0 0.055-0 0.471 0 0.929 0.056 1.367 0.163 0.367 0.093 0.723 0.265 1.033 0.495 0.267 0.202 0.488 0.467 0.638 0.772 0.157 0.34 0.245 0.723 0.245 1.126 0 0.026-0 0.053-0.001 0.079 0.002 0.029 0.002 0.068 0.002 0.107 0 0.4-0.089 0.779-0.248 1.118zM26.93 31.689c-0.291 0.592-0.69 1.090-1.175 1.485-0.472 0.367-1.014 0.654-1.603 0.837-0.575 0.19-1.195 0.295-1.84 0.298h-3.228v-9.447h3.227c0.644 0.002 1.265 0.1 1.85 0.28 0.58 0.175 1.124 0.462 1.596 0.836 0.485 0.392 0.885 0.89 1.162 1.459 0.298 0.617 0.465 1.311 0.465 2.045 0 0.045-0.001 0.090-0.002 0.135 0.001 0.020 0.001 0.052 0.001 0.084 0 0.723-0.167 1.407-0.465 2.015zM35.055 26.020h-4.555v2.934h4.261v1.134h-4.261v4.222h-1.313v-9.447h5.867zM39.903 16.657h-10.939c-1.854 0-3.356-1.503-3.356-3.356v-12.928h0.746v12.928c0 0 0 0 0 0 0 1.442 1.169 2.61 2.61 2.61 0.002 0 0.004 0 0.005 0h10.939z"></path>
</svg>
