<!-- Generated by IcoMoon.io -->
<svg version="1.1" xmlns="http://www.w3.org/2000/svg" width="45" height="45" viewBox="0 0 45 45">
<title>pdf-2</title>
<path d="M16.498 25.488c-0.302-0.225-0.658-0.396-1.044-0.493-0.389-0.088-0.812-0.136-1.246-0.136-0.053 0-0.107 0.001-0.16 0.002l-2.861-0v9.447h1.313v-4.152h1.492c0.012 0 0.026 0 0.040 0 0.469 0 0.925-0.056 1.362-0.162 0.376-0.095 0.739-0.267 1.059-0.496 0.288-0.2 0.528-0.469 0.696-0.782 0.17-0.346 0.265-0.739 0.265-1.154 0-0.025-0-0.050-0.001-0.075 0-0.006 0-0.018 0-0.030 0-0.419-0.095-0.817-0.266-1.171-0.147-0.312-0.37-0.586-0.644-0.795zM15.927 28.208c-0.105 0.206-0.259 0.375-0.447 0.494-0.205 0.125-0.439 0.218-0.687 0.269-0.267 0.056-0.558 0.087-0.855 0.087-0.015 0-0.031-0-0.046-0h-1.39v-3.078h1.422c0.007-0 0.016-0 0.025-0 0.297 0 0.587 0.027 0.869 0.079 0.227 0.039 0.456 0.128 0.66 0.254 0.179 0.113 0.332 0.27 0.441 0.456 0.107 0.198 0.169 0.426 0.169 0.668 0 0.019-0 0.038-0.001 0.057 0.001 0.012 0.001 0.029 0.001 0.046 0 0.245-0.059 0.476-0.164 0.68z"></path>
<path d="M29.188 34.309h1.313v-4.217h4.261v-1.134h-4.261v-2.934h4.555v-1.164h-5.867v9.447z"></path>
<path d="M40.182 16.041l-14.032-16.041h-18.070c-1.854 0-3.356 1.503-3.356 3.356v38.287c0 0.001 0 0.003 0 0.005 0 1.851 1.5 3.351 3.351 3.351 0.002 0 0.004 0 0.005 0h28.84c0 0 0 0 0 0 1.852 0 3.354-1.5 3.356-3.351v-25.504zM26.354 1.367l12.729 14.544h-10.114c-0.001 0-0.003 0-0.005 0-1.442 0-2.61-1.169-2.61-2.61 0 0 0 0 0 0zM36.92 44.254h-28.84c-0.001 0-0.003 0-0.005 0-1.439 0-2.606-1.167-2.606-2.606 0-0.002 0-0.004 0-0.005v-38.287c0-1.442 1.169-2.61 2.61-2.61h17.528v12.555c0 0 0 0 0 0 0 1.854 1.503 3.356 3.356 3.356 0.002 0 0.003 0 0.005 0h10.561v24.991c-0.003 1.44-1.17 2.606-2.61 2.606 0 0 0 0 0 0z"></path>
<path d="M25.752 25.971c-0.463-0.367-1.009-0.654-1.602-0.832-0.574-0.177-1.195-0.275-1.838-0.277h-3.228v9.447h3.227c0.646-0.003 1.266-0.108 1.847-0.3 0.584-0.188 1.126-0.483 1.599-0.861 0.483-0.394 0.882-0.892 1.162-1.458 0.298-0.607 0.465-1.291 0.465-2.015 0-0.040-0.001-0.080-0.002-0.12 0.001-0.032 0.002-0.077 0.002-0.122 0-0.734-0.168-1.429-0.466-2.048-0.281-0.546-0.677-1.026-1.157-1.407zM25.687 31.097c-0.193 0.443-0.469 0.816-0.812 1.116-0.356 0.303-0.774 0.539-1.231 0.687-0.481 0.159-1.004 0.246-1.548 0.246-0.017 0-0.034-0-0.051-0h-1.643v-7.135h1.646c0.013-0 0.029-0 0.045-0 0.545 0 1.070 0.086 1.562 0.244 0.445 0.142 0.861 0.375 1.217 0.676 0.342 0.296 0.619 0.668 0.802 1.090 0.194 0.454 0.302 0.96 0.302 1.491 0 0.026-0 0.053-0.001 0.079 0 0.013 0 0.033 0 0.053 0 0.524-0.108 1.022-0.303 1.474z"></path>
</svg>
