<!-- Generated by IcoMoon.io -->
<svg version="1.1" xmlns="http://www.w3.org/2000/svg" width="45" height="45" viewBox="0 0 45 45">
<title>pencil-2</title>
<path d="M31.894 6.638l-25.326 26.226 6.244 6.030 25.326-26.226-6.244-6.030zM31.724 9.337l3.747 3.618-22.465 23.263-3.747-3.618 22.465-23.263z"></path>
<path d="M5.602 33.476l-4.443 9.272c-0.829 1.731-0.123 2.41 1.576 1.522l9.111-4.764-6.244-6.030zM5.869 36.683l2.657 2.566-4.875 2.41 2.218-4.976z"></path>
<path d="M37.456 0.874l-4.906 5.081 6.244 6.030 4.906-5.081c0.665-0.689 0.649-1.791-0.041-2.457l-3.747-3.619c-0.695-0.671-1.789-0.646-2.456 0.045zM38.664 2.121l3.747 3.618-3.618 3.747-3.747-3.618 3.618-3.747z"></path>
</svg>
