<!-- Generated by IcoMoon.io -->
<svg version="1.1" xmlns="http://www.w3.org/2000/svg" width="45" height="45" viewBox="0 0 45 45">
<title>pet-1</title>
<path d="M14.96 22.047c3.742 0 6.289-3.144 6.289-7.806s-1.132-10.51-4.449-10.51c-3.703 0-8.443 4.984-8.443 9.772s2.901 8.545 6.603 8.545v0z"></path>
<path d="M6.643 19.226c-0.815-0.668-1.847-1.015-2.901-0.975-2.681 0.26-3.184 3.844-3.239 4.3-0.181 3.986 0.857 7.185 2.854 8.765 0.908 0.733 2.070 1.075 3.231 0.951 1.347-0.177 2.585-0.836 3.483-1.855 3.137-3.286 1.894-7.374-3.427-11.187v0z"></path>
<path d="M29.716 22.047c3.703 0 6.603-3.75 6.603-8.545s-4.732-9.772-8.451-9.772c-3.317 0-4.418 5.943-4.418 10.503s2.524 7.814 6.265 7.814v0z"></path>
<path d="M41.232 18.243c-1.054-0.040-2.085 0.307-2.901 0.975-5.283 3.821-6.533 7.908-3.388 11.21 0.902 1.015 2.143 1.669 3.49 1.84 1.156 0.111 2.309-0.24 3.207-0.975 2.004-1.572 3.042-4.78 2.854-8.765-0.047-0.44-0.55-4.017-3.262-4.284v0z"></path>
<path d="M28.387 26.638c-0.377-0.503-2.602-3.278-6.061-3.278h-0.063c-3.451 0-5.676 2.775-6.061 3.278-8.207 7.515-7.885 11.131-6.926 13.246 0.459 0.917 1.431 1.462 2.453 1.376 1.47 0 3.38-0.786 5.801-1.91 1.45-0.719 3.043-1.106 4.662-1.132h0.204c1.626 0.020 3.227 0.404 4.685 1.124 2.421 1.148 4.332 1.91 5.801 1.91 1.022 0.086 1.993-0.459 2.453-1.376 0.951-2.107 1.273-5.723-6.949-13.238v0z"></path>
</svg>
