<!-- Generated by IcoMoon.io -->
<svg version="1.1" xmlns="http://www.w3.org/2000/svg" width="45" height="45" viewBox="0 0 45 45">
<title>pet-2</title>
<path d="M21.572 14.273c0 4.526-2.589 7.579-6.392 7.579-3.764 0-6.712-3.648-6.712-8.296s4.818-9.487 8.582-9.487c3.372 0 4.522 5.678 4.522 10.204zM20.524 14.224c0-4.010-0.779-8.844-3.639-8.844-3.193 0-7.325 4.021-7.325 8.139s2.474 7.213 5.667 7.213c3.227 0 5.297-2.498 5.297-6.508z"></path>
<path d="M3.479 18.678c1.071-0.039 2.12 0.297 2.949 0.946 5.409 3.702 6.672 7.671 3.484 10.861-0.913 0.99-2.171 1.63-3.54 1.801-1.18 0.12-2.361-0.212-3.284-0.923-2.030-1.534-3.084-4.64-2.9-8.51 0.056-0.443 0.567-3.923 3.292-4.175zM3.688 19.74c-1.798 0.243-2.466 2.735-2.512 3.112-0.152 3.293 0.613 6.14 2.291 7.446 0.764 0.605 1.943 0.952 2.919 0.85 1.133-0.146 2.077-0.567 2.832-1.409 2.637-2.715 1.198-5.876-3.277-9.026-0.686-0.552-1.368-1.005-2.254-0.972z"></path>
<path d="M36.964 13.556c0 4.656-2.948 8.296-6.712 8.296-3.803 0-6.368-3.159-6.368-7.586s1.119-10.197 4.491-10.197c3.779 0 8.59 4.831 8.59 9.487zM35.839 13.573c0-4.125-4.401-8.407-7.229-8.407-2.861 0-3.629 5.031-3.629 8.953s2.176 6.721 5.403 6.721c2.92 0 5.455-3.143 5.455-7.267z"></path>
<path d="M38.547 19.624c0.829-0.649 1.878-0.985 2.948-0.946 2.757 0.26 3.268 3.732 3.316 4.16 0.192 3.87-0.863 6.984-2.9 8.51-0.914 0.714-2.086 1.054-3.26 0.946-1.37-0.166-2.63-0.8-3.548-1.786-3.196-3.206-1.926-7.174 3.444-10.883zM39.134 20.481c-4.44 3.156-6.12 6.389-3.477 9.116 0.759 0.839 2.483 1.728 3.295 1.728 1.247 0.176 2.279-0.704 2.947-1.433 1.487-1.62 2.144-3.731 1.999-6.587-0.040-0.364-0.53-3.302-2.519-3.482-0.886-0.033-1.561 0.105-2.246 0.657z"></path>
<path d="M22.222 23.543c3.516 0 5.777 2.694 6.161 3.183 8.358 7.296 8.030 10.807 7.064 12.852-0.467 0.89-1.455 1.419-2.493 1.336-1.494 0-3.436-0.74-5.897-1.854-1.482-0.7-3.109-1.072-4.762-1.091h-0.208c-1.645 0.025-3.264 0.401-4.738 1.099-2.461 1.091-4.403 1.854-5.897 1.854-1.039 0.083-2.026-0.445-2.493-1.336-0.975-2.053-1.302-5.564 7.040-12.86 0.391-0.488 2.653-3.183 6.225-3.183zM22.221 24.578c-3.314 0-5.284 2.719-5.647 3.143-7.739 6.343-7.292 9.958-6.703 11.186 0.433 0.774 1.012 0.898 1.723 0.898 1.386 0 3.644-1.128 5.927-2.076 1.368-0.607 3.174-0.958 4.701-0.98 0 0 3.264 0.372 4.639 0.98 2.283 0.969 4.342 2.076 5.728 2.076 0.964 0.073 1.528-0.124 1.961-0.898 0.718-1.391 0.893-4.843-6.861-11.186-0.356-0.425-2.205-3.143-5.467-3.143z"></path>
</svg>
