<!-- Generated by IcoMoon.io -->
<svg version="1.1" xmlns="http://www.w3.org/2000/svg" width="45" height="45" viewBox="0 0 45 45">
<title>phone-1</title>
<path d="M10.996 1.992v41.017c0 1.093 0.896 1.992 2.001 1.992h18.998c1.099 0 2.001-0.892 2.001-1.992v-41.017c0-1.093-0.896-1.992-2.001-1.992h-18.998c-1.099 0-2.001 0.892-2.001 1.992zM11.996 2c0-0.552 0.439-1 0.999-1h19.003c0.552 0 0.999 0.454 0.999 1v41.001c0 0.552-0.439 1-0.999 1h-19.003c-0.552 0-0.999-0.454-0.999-1v-41.001z"></path>
<path d="M10.996 7h23.008v-0.93h-23.008z"></path>
<path d="M10.996 38.73h23.008v-1h-23.008z"></path>
<path d="M19.996 4h5.379v-1h-5.379z"></path>
<path d="M23.686 41.34c0 0.74-0.604 1.34-1.346 1.34s-1.344-0.6-1.344-1.34c0-0.74 0.602-1.34 1.344-1.34s1.346 0.6 1.346 1.34z"></path>
</svg>
