<!-- Generated by IcoMoon.io -->
<svg version="1.1" xmlns="http://www.w3.org/2000/svg" width="45" height="45" viewBox="0 0 45 45">
<title>photo-camera</title>
<path d="M42.35 11.95h-5.6c-0.3 0-0.6-0.2-0.8-0.4l-2.4-3.3c-0.4-0.5-1-0.9-1.7-0.9h-18.4c-0.6 0-1.2 0.3-1.6 0.8l-2.8 3.4c-0.2 0.3-0.5 0.4-0.8 0.4h-5.7c-1.1 0-2.1 0.9-2.1 2.1v21.5c0 1.1 0.9 2.1 2.1 2.1h39.9c1.1 0 2.1-0.9 2.1-2.1v-21.5c-0.1-1.2-1-2.1-2.2-2.1zM43.45 35.45c0 0.6-0.5 1-1 1h-39.9c-0.6 0-1-0.5-1-1v-21.4c0-0.6 0.5-1 1-1h5.8c0.6 0 1.2-0.3 1.6-0.8l2.8-3.4c0.2-0.2 0.5-0.4 0.8-0.4h18.4c0.3 0 0.6 0.2 0.8 0.4l2.4 3.3c0.4 0.5 1 0.9 1.7 0.9h5.6c0.6 0 1 0.5 1 1v21.4z"></path>
<path d="M22.45 15.050c-4.5 0-8.2 3.7-8.2 8.2s3.7 8.2 8.2 8.2c4.5 0 8.2-3.7 8.2-8.2 0-4.6-3.7-8.2-8.2-8.2zM22.45 30.35c-3.9 0-7.1-3.2-7.1-7.1s3.2-7.1 7.1-7.1c3.9 0 7.1 3.2 7.1 7.1s-3.2 7.1-7.1 7.1z"></path>
</svg>
