<!-- Generated by IcoMoon.io -->
<svg version="1.1" xmlns="http://www.w3.org/2000/svg" width="45" height="45" viewBox="0 0 45 45">
<title>pin-2</title>
<path d="M33.059 20.345c-2.217-2.183-2.638-9.013-2.718-11.529h2.625c0.586 0 1.045-0.469 1.045-1.047v-5.214c0-0.579-0.468-1.047-1.045-1.047h-19.886c-0.586 0-1.045 0.469-1.045 1.047v5.214c0 0.579 0.468 1.047 1.045 1.047h2.433c-0.28 2.526-1.239 9.399-3.544 11.529h-2.024c-0.578 0-1.050 0.47-1.050 1.050v5.226c0 0.591 0.47 1.050 1.050 1.050h8.616l3.458 14.603c0.265 1.12 0.696 1.115 0.96 0l3.458-14.603h8.616c0.578 0 1.050-0.47 1.050-1.050v-5.226c0-0.591-0.47-1.050-1.050-1.050h-1.995zM33.434 19.299h1.633c1.151 0 2.084 0.938 2.084 2.090v5.238c0 1.154-0.942 2.090-2.084 2.090h-7.611l-3.623 13.731c-0.734 2.781-1.931 2.793-2.668 0l-3.623-13.731h-7.611c-1.151 0-2.084-0.938-2.084-2.090v-5.238c0-1.154 0.942-2.090 2.084-2.090h1.658c1.589-2.311 2.462-6.603 2.886-9.419h-1.394c-1.156 0-2.094-0.938-2.094-2.090v-5.238c0-1.154 0.944-2.090 2.094-2.090h19.882c1.156 0 2.094 0.938 2.094 2.090v5.238c0 1.154-0.944 2.090-2.094 2.090h-1.705c0.193 2.809 0.722 7.088 2.175 9.419z"></path>
</svg>
