<!-- Generated by IcoMoon.io -->
<svg version="1.1" xmlns="http://www.w3.org/2000/svg" width="45" height="45" viewBox="0 0 45 45">
<title>pin-1</title>
<path d="M33.434 19.299c-1.453-2.33-1.982-6.61-2.175-9.419h1.705c1.15 0 2.094-0.936 2.094-2.090v-5.238c0-1.153-0.937-2.090-2.094-2.090h-19.882c-1.15 0-2.094 0.936-2.094 2.090v5.238c0 1.153 0.937 2.090 2.094 2.090h1.394c-0.424 2.816-1.297 7.107-2.886 9.419h-1.658c-1.142 0-2.084 0.936-2.084 2.090v5.238c0 1.153 0.933 2.090 2.084 2.090h7.611l3.623 13.731c0.737 2.793 1.934 2.781 2.668 0l3.623-13.731h7.611c1.142 0 2.084-0.936 2.084-2.090v-5.238c0-1.153-0.933-2.090-2.084-2.090h-1.633z"></path>
</svg>
