<!-- Generated by IcoMoon.io -->
<svg version="1.1" xmlns="http://www.w3.org/2000/svg" width="45" height="45" viewBox="0 0 45 45">
<title>refresh</title>
<path d="M38.406 22.49c-0.104-9.464-7.794-17.097-17.269-17.111-0.354 0-0.639 0.286-0.639 0.638s0.286 0.638 0.638 0.638c8.774 0.010 15.894 7.075 15.995 15.826l-6.556 0.010 7.105 7.328 7.321-7.328zM33.591 23.766h8.329l-4.228 4.235z"></path>
<path d="M23.865 38.345c-8.774-0.010-15.894-7.075-15.995-15.826l6.556-0.010-7.105-7.321-7.321 7.321h6.594c0.104 9.464 7.794 17.097 17.269 17.111 0.354 0 0.639-0.286 0.639-0.638s-0.286-0.638-0.638-0.638zM3.080 21.234l4.228-4.228 4.101 4.228z"></path>
</svg>
