<!-- Generated by IcoMoon.io -->
<svg version="1.1" xmlns="http://www.w3.org/2000/svg" width="45" height="45" viewBox="0 0 45 45">
<title>scene-1</title>
<path d="M31 6v-4.002c0-1.104-0.895-1.998-1.998-1.998h-27.004c-1.104 0-1.998 0.895-1.998 1.998v27.004c0 1.104 0.895 1.998 1.998 1.998h4.002v-23.002c0-1.104 0.894-1.998 1.998-1.998h23.002z"></path>
<path d="M38 13v-4.002c0-1.104-0.895-1.998-1.998-1.998h-27.004c-1.104 0-1.998 0.895-1.998 1.998v27.004c0 1.104 0.895 1.998 1.998 1.998h4.002v-23.002c0-1.104 0.894-1.998 1.998-1.998h23.002z"></path>
<path d="M16 14h27c1.105 0 2 0.895 2 2v27c0 1.105-0.895 2-2 2h-27c-1.105 0-2-0.895-2-2v-27c0-1.105 0.895-2 2-2z"></path>
</svg>
