<!-- Generated by IcoMoon.io -->
<svg version="1.1" xmlns="http://www.w3.org/2000/svg" width="45" height="45" viewBox="0 0 45 45">
<title>scene-2</title>
<path d="M7 30v1h-5.002c-1.104 0-1.998-0.894-1.998-1.998v-27.004c0-1.104 0.894-1.998 1.998-1.998h27.004c1.104 0 1.998 0.894 1.998 1.998v5.002h-1v-5.138c0-0.553-0.456-1.001-0.998-1.001h-27.004c-0.551 0-0.998 0.458-0.998 1.003v27.133c0 0.554 0.45 1.003 0.995 1.003h5.005z"></path>
<path d="M14 37v1h-5.002c-1.104 0-1.998-0.894-1.998-1.998v-27.004c0-1.104 0.894-1.998 1.998-1.998h27.004c1.104 0 1.998 0.894 1.998 1.998v5.002h-1v-5.005c0-0.549-0.456-0.995-0.998-0.995h-27.004c-0.551 0-0.998 0.456-0.998 0.998v27.004c0 0.551 0.45 0.998 0.995 0.998h5.005z"></path>
<path d="M14 15.998v27.004c0 1.104 0.895 1.998 1.998 1.998h27.004c1.104 0 1.998-0.895 1.998-1.998v-27.004c0-1.104-0.895-1.998-1.998-1.998h-27.004c-1.104 0-1.998 0.895-1.998 1.998zM15 15.998c0-0.551 0.456-0.998 0.998-0.998h27.004c0.551 0 0.998 0.456 0.998 0.998v27.004c0 0.551-0.456 0.998-0.998 0.998h-27.004c-0.551 0-0.998-0.456-0.998-0.998v-27.004z"></path>
</svg>
