<!-- Generated by IcoMoon.io -->
<svg version="1.1" xmlns="http://www.w3.org/2000/svg" width="45" height="45" viewBox="0 0 45 45">
<title>shield-2</title>
<path d="M23.215 44.983h-1.36c-0.010 0-0.022 0-0.034 0-2.012 0-3.881-0.613-5.43-1.663-14.018-9.376-13.962-30.6-13.838-34.748 0-0.621 0.503-1.124 1.124-1.124h0.169c11.68 0.011 16.548-5.329 17.818-6.97 0.199-0.27 0.51-0.447 0.863-0.461l0.002-0c0.004-0 0.009-0 0.014-0 0.371 0 0.701 0.18 0.906 0.458 1.576 2.116 6.41 7.040 17.865 6.984v0c0.621 0 1.124 0.503 1.124 1.124 0.157 4.159 0.202 25.372-13.838 34.849-1.485 0.973-3.305 1.552-5.26 1.552-0.044 0-0.087-0-0.131-0.001zM3.745 8.583c-0.191 4.081-0.247 24.731 13.31 33.848 1.333 0.895 2.974 1.428 4.739 1.428 0.022 0 0.043-0 0.065-0h1.357c0.008 0 0.018 0 0.028 0 1.779 0 3.432-0.542 4.802-1.469 13.527-9.075 13.46-29.76 13.314-33.807v-0.023h-0.18c-11.826 0.023-16.964-5.171-18.627-7.419-1.697 2.248-6.835 7.442-18.639 7.442z"></path>
</svg>
