<!-- Generated by IcoMoon.io -->
<svg version="1.1" xmlns="http://www.w3.org/2000/svg" width="45" height="45" viewBox="0 0 45 45">
<title>shield-3</title>
<path d="M39.443 7.579v0l3.966-3.77-1.983-2.098-5.765 5.442c-7.852-1.372-11.53-5.281-12.683-6.918-0.111-0.145-0.284-0.238-0.478-0.238s-0.368 0.093-0.477 0.237c-1.488 2.008-6.596 7.461-18.794 7.403-0 0-0.001 0-0.001 0-0.325 0-0.591 0.254-0.61 0.575-0.104 2.815-0.208 15.14 5.257 25.332l-6.284 5.961 1.983 2.087 5.765-5.511z"></path>
<path d="M11.53 38.928c1.398 1.629 2.965 3.050 4.692 4.259 1.672 1.158 3.644 1.818 5.77 1.818 0.027 0 0.053-0 0.080-0l0.976 0c0.011 0 0.024 0 0.036 0 2.109 0 4.066-0.651 5.682-1.763 12.234-8.464 13.594-26.196 13.64-32.93-0.003-0.374-0.306-0.675-0.68-0.675-0.184 0-0.351 0.073-0.473 0.191l-29.665 28.167c-0.133 0.124-0.216 0.301-0.216 0.497 0 0.167 0.060 0.319 0.159 0.438z"></path>
</svg>
