<!-- Generated by IcoMoon.io -->
<svg version="1.1" xmlns="http://www.w3.org/2000/svg" width="45" height="45" viewBox="0 0 45 45">
<title>sunset</title>
<path d="M22.275 17.8c0.401 0 0.726-0.325 0.726-0.726v-7.577c0-0.401-0.325-0.726-0.726-0.726s-0.726 0.325-0.726 0.726v7.577c0 0.401 0.325 0.726 0.726 0.726z"></path>
<path d="M12.658 19.608c0.134 0.153 0.33 0.249 0.548 0.249 0.402 0 0.728-0.326 0.728-0.728 0-0.184-0.068-0.352-0.181-0.48l-4.993-5.704c-0.134-0.153-0.33-0.249-0.548-0.249-0.402 0-0.728 0.326-0.728 0.728 0 0.184 0.068 0.352 0.181 0.48z"></path>
<path d="M1.205 24.442l7.302 2.032c0.029 0.004 0.063 0.007 0.098 0.007s0.069-0.002 0.102-0.007c0.026 0.005 0.060 0.007 0.094 0.007 0.404 0 0.732-0.328 0.732-0.732 0-0.37-0.274-0.676-0.631-0.725l-7.305-1.982c-0.059-0.017-0.126-0.027-0.196-0.027-0.402 0-0.727 0.326-0.727 0.727 0 0.332 0.222 0.612 0.526 0.699z"></path>
<path d="M44.274 34.777h-43.548c-0.401 0-0.726 0.325-0.726 0.726s0.325 0.726 0.726 0.726h43.548c0.401 0 0.726-0.325 0.726-0.726s-0.325-0.726-0.726-0.726z"></path>
<path d="M11.105 31.163c0.045 0.365 0.353 0.644 0.726 0.644 0.404 0 0.731-0.327 0.731-0.731 0-0.031-0.002-0.061-0.006-0.091 0.025-5.391 4.402-9.754 9.798-9.759h0c5.394 0.008 9.764 4.376 9.777 9.768-0.001 0.015-0.002 0.032-0.002 0.048 0 0.376 0.286 0.685 0.652 0.722l0.076 0c0.001 0 0.002 0 0.004 0 0.375 0 0.684-0.285 0.722-0.65l0-0.097c0-6.209-5.034-11.243-11.243-11.243v0c-6.209 0.004-11.242 5.034-11.25 11.242 0.001 0.053 0.006 0.103 0.015 0.152z"></path>
<path d="M22.195 24.071c-0.401 0-0.726 0.325-0.726 0.726v5.647l-2.504-2.497c-0.126-0.108-0.291-0.175-0.472-0.175-0.401 0-0.726 0.325-0.726 0.726 0 0.181 0.066 0.346 0.175 0.473l3.628 3.628c0.131 0.13 0.312 0.21 0.511 0.21 0.001 0 0.003 0 0.004 0 0.016 0.001 0.035 0.002 0.054 0.002s0.038-0.001 0.057-0.002c0.014 0.001 0.033 0.002 0.052 0.002s0.038-0.001 0.057-0.002c-0.001 0 0 0 0.002 0 0.199 0 0.38-0.080 0.511-0.211l3.629-3.629c0.129-0.132 0.209-0.312 0.209-0.512 0-0.404-0.327-0.731-0.731-0.731-0.205 0-0.39 0.084-0.522 0.22l-2.519 2.519v-5.669c0-0 0-0.001 0-0.001 0-0.388-0.305-0.705-0.688-0.725z"></path>
<path d="M31.362 19.862c0.217-0 0.411-0.095 0.544-0.246l4.987-5.706c0.112-0.127 0.18-0.295 0.18-0.479 0-0.402-0.326-0.728-0.728-0.728-0.218 0-0.414 0.096-0.547 0.248l-4.987 5.706c-0.112 0.127-0.181 0.295-0.181 0.479 0 0.401 0.324 0.725 0.725 0.726z"></path>
<path d="M35.165 25.973c0.088 0.308 0.368 0.53 0.699 0.53 0.009 0 0.019-0 0.028-0.001 0.028 0.004 0.062 0.007 0.097 0.007s0.069-0.002 0.102-0.007l7.298-2.032c0.309-0.089 0.531-0.368 0.531-0.7 0-0.402-0.326-0.727-0.727-0.727-0.070 0-0.137 0.010-0.201 0.028l-7.296 2.031c-0.318 0.082-0.549 0.366-0.549 0.704 0 0.059 0.007 0.117 0.020 0.172z"></path>
</svg>
