<!-- Generated by IcoMoon.io -->
<svg version="1.1" xmlns="http://www.w3.org/2000/svg" width="45" height="45" viewBox="0 0 45 45">
<title>temp-1</title>
<path d="M25.709 0.842c0.278 0 0.504 0.226 0.504 0.504v42.309c0 0.278-0.226 0.504-0.504 0.504s-0.504-0.226-0.504-0.504v-42.309c0-0.278 0.226-0.504 0.504-0.504z"></path>
<path d="M42.251 11.358c0.133 0.244 0.043 0.55-0.201 0.683l-15.92 8.68c-0.244 0.133-0.55 0.043-0.683-0.201s-0.043-0.55 0.201-0.683l15.92-8.68c0.244-0.133 0.55-0.043 0.683 0.201z"></path>
<path d="M42.471 32.338c-0.128 0.247-0.432 0.343-0.679 0.215l-16.098-8.345c-0.247-0.128-0.343-0.432-0.215-0.679s0.432-0.343 0.679-0.215l16.098 8.345c0.247 0.128 0.343 0.432 0.215 0.679z"></path>
<path d="M30.482 1.159c0.235 0.149 0.304 0.46 0.155 0.695l-4.318 6.804c-0.149 0.235-0.46 0.304-0.695 0.155s-0.304-0.46-0.155-0.695l4.318-6.804c0.149-0.235 0.46-0.304 0.695-0.155z"></path>
<path d="M22.687 0.842c0.278 0 0.504 0.226 0.504 0.504v8.059c0 0.278-0.226 0.504-0.504 0.504s-0.504-0.226-0.504-0.504v-8.059c0-0.278 0.226-0.504 0.504-0.504z"></path>
<path d="M22.687 35.092c0.278 0 0.504 0.226 0.504 0.504v8.059c0 0.278-0.226 0.504-0.504 0.504s-0.504-0.226-0.504-0.504v-8.059c0-0.278 0.226-0.504 0.504-0.504z"></path>
<path d="M9.087 22.5c0 0.278-0.226 0.504-0.504 0.504h-8.059c-0.278 0-0.504-0.226-0.504-0.504s0.226-0.504 0.504-0.504h8.059c0.278 0 0.504 0.226 0.504 0.504z"></path>
<path d="M10.938 15.693c-0.135 0.243-0.441 0.331-0.685 0.196l-7.048-3.907c-0.243-0.135-0.331-0.441-0.196-0.685s0.441-0.331 0.685-0.196l7.048 3.907c0.243 0.135 0.331 0.441 0.196 0.685z"></path>
<path d="M16.070 11.651c-0.238 0.143-0.548 0.066-0.691-0.172l-4.151-6.908c-0.143-0.238-0.066-0.548 0.172-0.691s0.548-0.066 0.691 0.172l4.151 6.908c0.143 0.238 0.066 0.548-0.172 0.691z"></path>
<path d="M10.965 28.431c0.135 0.243 0.047 0.55-0.196 0.685l-7.048 3.907c-0.243 0.135-0.55 0.047-0.685-0.196s-0.047-0.55 0.196-0.685l7.048-3.907c0.243-0.135 0.55-0.047 0.685 0.196z"></path>
<path d="M16.028 33.177c0.238 0.143 0.316 0.453 0.172 0.691l-4.151 6.908c-0.143 0.238-0.453 0.316-0.691 0.172s-0.316-0.453-0.172-0.691l4.151-6.908c0.143-0.238 0.453-0.316 0.691-0.172z"></path>
<path d="M11.099 21.989c-0.168-5.182 3.929-11.066 11.573-11.066 0.353 0.336 0.199 0.875 0 1.003-8.905 0.134-10.51 7.466-10.51 10.063s2.015 9.562 10.51 9.562c0.376 0 0.54 0.897 0 1.069-7.519 0-11.404-5.449-11.573-10.632z"></path>
<path d="M30.457 42.83c-0.234 0.15-0.546 0.081-0.696-0.153l-4.342-6.789c-0.15-0.234-0.081-0.546 0.153-0.696s0.546-0.081 0.696 0.153l4.342 6.789c0.15 0.234 0.081 0.546-0.153 0.696z"></path>
<path d="M39.53 37.929c-0.257 0.107-0.552-0.015-0.659-0.271l-3.523-8.463c-0.107-0.257 0.015-0.552 0.271-0.659s0.552 0.015 0.659 0.271l3.523 8.463c0.107 0.257-0.015 0.552-0.271 0.659z"></path>
<path d="M44.933 26.603c0.061 0.271-0.11 0.541-0.382 0.601l-8.562 1.914c-0.271 0.061-0.541-0.11-0.601-0.382s0.11-0.541 0.382-0.601l8.562-1.914c0.271-0.061 0.541 0.11 0.601 0.382z"></path>
<path d="M36.307 14.723c-0.261-0.097-0.393-0.387-0.297-0.648l2.493-6.704c0.097-0.261 0.387-0.393 0.648-0.297s0.393 0.387 0.297 0.648l-2.493 6.704c-0.097 0.261-0.387 0.393-0.648 0.297z"></path>
<path d="M44.971 17.414c-0.050 0.274-0.313 0.455-0.586 0.404l-9.215-1.691c-0.274-0.050-0.455-0.313-0.404-0.586s0.313-0.455 0.586-0.404l9.215 1.691c0.274 0.050 0.455 0.313 0.404 0.586z"></path>
</svg>
