<!-- Generated by IcoMoon.io -->
<svg version="1.1" xmlns="http://www.w3.org/2000/svg" width="45" height="45" viewBox="0 0 45 45">
<title>thermometer</title>
<path d="M15.432 32.080c-2.165 0.974-3.672 3.154-3.672 5.688 0 3.441 2.781 6.23 6.211 6.23s6.211-2.789 6.211-6.23c0-2.465-1.427-4.596-3.499-5.606v-28.449c0-1.455-1.175-2.628-2.625-2.628-1.447 0-2.625 1.177-2.625 2.628v28.367zM14.409 31.478v-27.862c0-1.997 1.625-3.616 3.62-3.616 1.999 0 3.62 1.623 3.62 3.616v27.93c2.114 1.261 3.531 3.575 3.531 6.221 0 3.994-3.228 7.232-7.21 7.232s-7.21-3.238-7.21-7.232c0-2.695 1.47-5.046 3.649-6.29z"></path>
<path d="M16.769 33.305v-14.396c0-0.679 0.542-1.23 1.221-1.23 0.674 0 1.221 0.545 1.221 1.23v14.407c1.941 0.544 3.366 2.331 3.366 4.452 0 2.552-2.063 4.621-4.607 4.621s-4.607-2.069-4.607-4.621c0-2.135 1.444-3.933 3.406-4.463z"></path>
<path d="M24.078 9.643h5.397c0.276 0 0.5 0.224 0.5 0.5s-0.224 0.5-0.5 0.5h-5.397c-0.276 0-0.5-0.224-0.5-0.5s0.224-0.5 0.5-0.5z"></path>
<path d="M24.078 12.857h9.662c0.276 0 0.5 0.224 0.5 0.5s-0.224 0.5-0.5 0.5h-9.662c-0.276 0-0.5-0.224-0.5-0.5s0.224-0.5 0.5-0.5z"></path>
<path d="M24.078 16.071h5.397c0.276 0 0.5 0.224 0.5 0.5s-0.224 0.5-0.5 0.5h-5.397c-0.276 0-0.5-0.224-0.5-0.5s0.224-0.5 0.5-0.5z"></path>
<path d="M24.078 19.286h9.662c0.276 0 0.5 0.224 0.5 0.5s-0.224 0.5-0.5 0.5h-9.662c-0.276 0-0.5-0.224-0.5-0.5s0.224-0.5 0.5-0.5z"></path>
<path d="M24.078 22.5h5.397c0.276 0 0.5 0.224 0.5 0.5s-0.224 0.5-0.5 0.5h-5.397c-0.276 0-0.5-0.224-0.5-0.5s0.224-0.5 0.5-0.5z"></path>
</svg>
