<!-- Generated by IcoMoon.io -->
<svg version="1.1" xmlns="http://www.w3.org/2000/svg" width="45" height="45" viewBox="0 0 45 45">
<title>trashcan-2</title>
<path d="M5.233 5.233h34.535v1.047h-34.535v-1.047z"></path>
<path d="M7.737 5.233h29.467l-2.868 36.647c-0.135 1.723-1.649 3.12-3.387 3.12h-17.015c-1.735 0-3.249-1.392-3.382-3.12l-2.815-36.647zM8.801 6.279l2.678 35.595c0.086 1.148 1.093 2.079 2.249 2.079h17.431c1.163 0 2.164-0.931 2.252-2.079l2.728-35.595h-27.337z"></path>
<path d="M15.944 11.519h1.047v28.256h-1.047v-28.256z"></path>
<path d="M29.302 6.279h1.047v-3.14c0-1.73-1.405-3.14-3.139-3.14h-9.42c-1.732 0-3.139 1.406-3.139 3.14v3.14h1.047v-3.136c0-1.158 0.935-2.096 2.096-2.096h9.413c1.158 0 2.096 0.937 2.096 2.096v3.136z"></path>
<path d="M28.502 11.519h1.047v28.256h-1.047v-28.256z"></path>
<path d="M21.977 11.512h1.047v28.256h-1.047v-28.256z"></path>
</svg>
