<!-- Generated by IcoMoon.io -->
<svg version="1.1" xmlns="http://www.w3.org/2000/svg" width="45" height="45" viewBox="0 0 45 45">
<title>trashcan-1</title>
<path d="M5.233 5.233h34.535v1.047h-34.535v-1.047z"></path>
<path d="M7.818 6.276c-0.044-0.576 0.383-1.043 0.969-1.043h28.418l-2.868 36.647c-0.135 1.723-1.649 3.12-3.387 3.12h-17.015c-1.735 0-3.249-1.392-3.382-3.12l-2.735-35.604zM21.977 11.512v28.256h1.047v-28.256h-1.047zM28.502 11.505l-0.493 28.252 1.046 0.018 0.493-28.252-1.046-0.018zM15.451 11.523l0.493 28.252 1.046-0.018-0.493-28.252-1.046 0.018z"></path>
<path d="M29.302 6.279h1.047v-3.14c0-1.73-1.405-3.14-3.139-3.14h-9.42c-1.732 0-3.139 1.406-3.139 3.14v3.14h1.047v-3.136c0-1.158 0.935-2.096 2.096-2.096h9.413c1.158 0 2.096 0.937 2.096 2.096v3.136z"></path>
</svg>
