<!-- Generated by IcoMoon.io -->
<svg version="1.1" xmlns="http://www.w3.org/2000/svg" width="45" height="45" viewBox="0 0 45 45">
<title>twitter-1</title>
<path d="M45 8.544c-1.656 0.735-3.435 1.23-5.302 1.453 1.907-1.142 3.371-2.951 4.059-5.107-1.783 1.058-3.759 1.826-5.863 2.241-1.682-1.794-4.084-2.916-6.739-2.916-5.961 0-10.341 5.561-8.994 11.334-7.671-0.384-14.473-4.059-19.027-9.645-2.419 4.149-1.254 9.577 2.856 12.326-1.511-0.049-2.936-0.463-4.179-1.155-0.101 4.277 2.964 8.278 7.404 9.169-1.299 0.352-2.723 0.435-4.17 0.157 1.174 3.668 4.582 6.336 8.625 6.411-3.881 3.043-8.771 4.402-13.669 3.825 4.086 2.619 8.94 4.148 14.152 4.148 17.141 0 26.826-14.477 26.241-27.461 1.804-1.303 3.369-2.929 4.607-4.779z"></path>
</svg>
