<!-- Generated by IcoMoon.io -->
<svg version="1.1" xmlns="http://www.w3.org/2000/svg" width="45" height="45" viewBox="0 0 45 45">
<title>user-3</title>
<path d="M29.834 22.433c0.077 0.042 0.168 0.067 0.265 0.069 0.316-0.005 0.57-0.262 0.57-0.578 0-0.219-0.122-0.409-0.301-0.508q-0.547-0.279-1.102-0.522l-0.764-0.324c0.458-0.501 0.878-1.053 1.245-1.641 0.083-0.135 0.115-0.241 0.115-0.354 0-0.32-0.259-0.579-0.579-0.579-0.206 0-0.388 0.108-0.49 0.27-0.5 0.805-1.074 1.497-1.73 2.102l-0.747 0.677 0.96 0.301 0.683 0.243h0.116l0.752 0.301q0.509 0.289 1.006 0.544z"></path>
<path d="M13.708 7.915h0.185c0.251-0.002 0.465-0.164 0.542-0.389 0.57-1.691 1.491-3.131 2.683-4.294 0.094-0.104 0.15-0.24 0.15-0.389 0-0.319-0.259-0.578-0.578-0.578-0.14 0-0.269 0.050-0.369 0.133-1.325 1.3-2.346 2.906-2.948 4.705-0.043 0.138-0.054 0.201-0.054 0.266 0 0.251 0.16 0.465 0.384 0.545z"></path>
<path d="M19.423 1.668c0.033 0.007 0.071 0.011 0.11 0.011s0.077-0.004 0.114-0.011c0.742-0.308 1.608-0.487 2.516-0.487 0.84 0 1.644 0.153 2.386 0.433 0.016 0.010 0.089 0.025 0.166 0.025 0.319 0 0.578-0.259 0.578-0.578 0-0.255-0.165-0.471-0.393-0.548-0.829-0.319-1.784-0.504-2.781-0.504-1.032 0-2.018 0.197-2.922 0.556-0.221 0.035-0.425 0.273-0.425 0.56 0 0.325 0.264 0.589 0.589 0.589 0.039 0 0.077-0.004 0.114-0.011z"></path>
<path d="M30.494 10.391c0.044 0.408 0.069 0.881 0.069 1.36 0 0.014-0 0.028-0 0.042 0 0.007 0 0.018 0 0.029 0 1.312-0.194 2.58-0.556 3.774 0.009-0.044 0.001 0.012 0.001 0.070 0 0.262 0.174 0.483 0.412 0.554l0.166 0.001c0.262 0 0.483-0.174 0.554-0.412 0.368-1.203 0.58-2.582 0.58-4.010 0-0.011 0-0.022-0-0.033-0-0.533-0.030-1.060-0.087-1.578-0.027-0.228-0.274-0.454-0.573-0.454-0.321 0-0.582 0.261-0.582 0.582 0 0.022 0.001 0.045 0.004 0.066z"></path>
<path d="M13.789 16.429h0.174c0.239-0.075 0.409-0.294 0.409-0.553 0-0.063-0.010-0.123-0.028-0.18-0.373-1.153-0.589-2.485-0.589-3.867 0-0.018 0-0.036 0-0.054 0-0.402 0-0.795 0-1.154 0.001-0.016 0.002-0.034 0.002-0.052 0-0.321-0.26-0.581-0.581-0.581-0.302 0-0.551 0.231-0.578 0.526-0 0.43-0 0.858-0 1.286-0 0.012-0 0.027-0 0.042 0 1.509 0.237 2.963 0.676 4.327 0.061 0.112 0.267 0.259 0.507 0.259 0.003 0 0.006-0 0.009-0z"></path>
<path d="M29.811 7.36c0.089 0.214 0.296 0.361 0.538 0.361 0.321 0 0.581-0.26 0.581-0.581 0-0.079-0.016-0.155-0.045-0.224-0.672-1.825-1.724-3.376-3.068-4.616-0.113-0.114-0.259-0.181-0.421-0.181-0.319 0-0.578 0.259-0.578 0.578 0 0.182 0.084 0.344 0.215 0.45 1.224 1.136 2.175 2.548 2.754 4.138z"></path>
<path d="M15.663 18.488c-0.105-0.159-0.283-0.263-0.486-0.263-0.321 0-0.581 0.26-0.581 0.581 0 0.118 0.035 0.228 0.096 0.32 0.399 0.628 0.826 1.177 1.3 1.681l-0.549 0.249-0.22 0.104q-0.544 0.254-1.076 0.555c-0.193 0.097-0.323 0.293-0.323 0.519 0 0.319 0.259 0.578 0.578 0.578 0.115 0 0.223-0.034 0.313-0.092q0.495-0.276 1.004-0.519l0.231-0.104 0.509-0.231 0.567-0.208 1.157-0.405-0.764-0.648c-0.675-0.612-1.257-1.308-1.735-2.076z"></path>
<path d="M11.557 24.967c0.132-0.107 0.216-0.269 0.216-0.451 0-0.319-0.259-0.578-0.578-0.578-0.162 0-0.308 0.066-0.413 0.173-1.693 1.527-3.112 3.316-4.205 5.309-0.093 0.182-0.117 0.274-0.117 0.371 0 0.323 0.262 0.585 0.585 0.585 0.226 0 0.422-0.128 0.519-0.315 1.076-1.975 2.406-3.657 3.976-5.079z"></path>
<path d="M5.449 36.165c0.178-0.976 0.386-1.805 0.642-2.612-0.024 0.096-0.015 0.037-0.015-0.025 0-0.334-0.27-0.604-0.604-0.604-0.272 0-0.501 0.179-0.577 0.426-0.261 0.793-0.502 1.767-0.676 2.764l-0.019 0.399 0.185 0.208c0.675 0.749 1.373 1.437 2.111 2.081 0.127 0.104 0.253 0.152 0.391 0.152 0.319 0 0.578-0.259 0.578-0.578 0-0.158-0.063-0.301-0.166-0.405-0.661-0.578-1.265-1.167-1.836-1.788z"></path>
<path d="M15.779 42.782c-2.133-0.667-3.988-1.551-5.687-2.656 0.006 0.006-0.093-0.022-0.199-0.022-0.319 0-0.578 0.259-0.578 0.578 0 0.192 0.094 0.363 0.239 0.468 1.696 1.125 3.646 2.071 5.721 2.742l0.343 0.047c0.024 0.004 0.052 0.006 0.081 0.006 0.323 0 0.584-0.261 0.584-0.584 0-0.294-0.217-0.537-0.5-0.578z"></path>
<path d="M34.808 40.225c-1.611 1.034-3.467 1.904-5.437 2.513-0.445 0.087-0.66 0.329-0.66 0.622 0 0.323 0.262 0.585 0.585 0.585 0.031 0 0.061-0.002 0.090-0.007l0.17 0c2.243-0.702 4.194-1.634 5.98-2.798 0.084-0.045 0.2-0.232 0.2-0.446 0-0.319-0.259-0.578-0.578-0.578-0.127 0-0.244 0.041-0.34 0.11z"></path>
<path d="M25.589 43.614c-0.928 0.131-2 0.205-3.089 0.205s-2.161-0.075-3.21-0.219c0.099 0.011 0.073 0.009 0.046 0.009-0.322 0-0.583 0.261-0.583 0.583 0 0.296 0.22 0.54 0.505 0.578 0.979 0.139 2.106 0.219 3.253 0.22 1.14-0.001 2.26-0.081 3.356-0.234 0.158-0.024 0.375-0.266 0.375-0.559 0-0.026-0.002-0.052-0.005-0.077-0.027-0.287-0.269-0.512-0.564-0.512-0.029 0-0.058 0.002-0.086 0.007z"></path>
<path d="M40.766 36.234c-0.194-1.13-0.435-2.104-0.738-3.050-0.033-0.093-0.263-0.273-0.535-0.273-0.334 0-0.604 0.27-0.604 0.604 0 0.062 0.009 0.122 0.027 0.178 0.217 0.653 0.429 1.481 0.591 2.327-0.547 0.781-1.125 1.374-1.733 1.934-0.148 0.121-0.232 0.284-0.232 0.466 0 0.319 0.259 0.578 0.578 0.578 0.162 0 0.308-0.066 0.413-0.173 0.74-0.668 1.42-1.359 2.058-2.088l0.21-0.237z"></path>
<path d="M37.886 30.253c0.002 0 0.004 0 0.006 0 0.1 0 0.193-0.026 0.275-0.071 0.179-0.098 0.3-0.289 0.3-0.507 0-0.102-0.026-0.198-0.073-0.281-1.189-2.162-2.679-4.003-4.44-5.541-0.124-0.107-0.256-0.159-0.4-0.159-0.319 0-0.578 0.259-0.578 0.578 0 0.176 0.078 0.333 0.202 0.439 1.683 1.468 3.088 3.202 4.162 5.144 0.148 0.275 0.333 0.394 0.546 0.398z"></path>
</svg>
