<!-- Generated by IcoMoon.io -->
<svg version="1.1" xmlns="http://www.w3.org/2000/svg" width="45" height="45" viewBox="0 0 45 45">
<title>user-2</title>
<path d="M29.55 21.9c-7 4.6-12.3 1.6-14.4 0-3.2 0.3-10.3 8.9-10.5 14.2 0 0 6.8 8.4 17.8 8.4s17.9-8.4 17.9-8.4c-0.3-3.6-4.8-11.8-10.8-14.2zM22.35 43c-8.7 0-14.7-5.8-16.2-7.4 0.6-4.5 6.2-11 8.7-12 1.5 1 4 2.3 7.3 2.3 2.5 0 5-0.8 7.5-2.3 4.8 2.3 8.5 8.7 9 12-1.6 1.6-7.6 7.4-16.3 7.4z"></path>
<path d="M22.050 22.7c5 0 9.1-5 9.1-11.1s-4.1-11.1-9.1-11.1-9.1 5-9.1 11.1c-0.1 6.2 4 11.1 9.1 11.1zM22.050 2.1c4.2 0 7.6 4.3 7.6 9.6s-3.4 9.6-7.6 9.6c-4.2 0-7.6-4.3-7.6-9.6s3.4-9.6 7.6-9.6z"></path>
</svg>
