<svg id="Layer_2" data-name="Layer 2" xmlns="http://www.w3.org/2000/svg" viewBox="0 0 45 45"><title>Artboard 1</title><path d="M0,14.91l2.48,2.84a28.55,28.55,0,0,1,40.06,0L45,14.86A32.38,32.38,0,0,0,0,14.91Zm42.47,1.37a29.56,29.56,0,0,0-39.92,0L1.39,15a31.37,31.37,0,0,1,42.23,0Z"/><path d="M5.45,21.26l2.47,2.88a21.75,21.75,0,0,1,29.16-.05l2.47-2.88A25.6,25.6,0,0,0,5.45,21.26Zm32.69.06L37,22.68A22.78,22.78,0,0,0,8,22.72L6.85,21.36a24.62,24.62,0,0,1,31.29,0Z"/><path d="M10.77,27.46l2.45,2.86a14.32,14.32,0,0,1,18.55-.05l2.46-2.85A18.16,18.16,0,0,0,10.77,27.46Zm22,.09-1.15,1.34a15.36,15.36,0,0,0-18.29,0L12.2,27.6a17.15,17.15,0,0,1,20.59-.05Z"/><path d="M16.26,33.86l6.25,7.21,6.23-7.26A9.72,9.72,0,0,0,16.26,33.86Zm11,.11L22.5,39.54,17.72,34a8.7,8.7,0,0,1,9.56,0Z"/></svg>