<!-- Generated by IcoMoon.io -->
<svg version="1.1" xmlns="http://www.w3.org/2000/svg" width="45" height="45" viewBox="0 0 45 45">
<title>work-2</title>
<path d="M0 14.493v25.013c0 1.094 0.892 1.993 1.992 1.993h41.017c1.093 0 1.992-0.892 1.992-1.993v-25.013c0-1.094-0.892-1.993-1.992-1.993h-41.017c-1.093 0-1.992 0.892-1.992 1.993zM1.047 14.493c0-0.548 0.453-0.993 0.997-0.993h40.912c0.551 0 0.997 0.446 0.997 0.993v25.014c0 0.548-0.453 0.993-0.997 0.993h-40.912c-0.551 0-0.997-0.446-0.997-0.993v-25.014z"></path>
<path d="M10 13.5h1v27h-1v-27z"></path>
<path d="M12 13.5h1v27h-1v-27z"></path>
<path d="M31 13.5h1v27h-1v-27z"></path>
<path d="M11 8v4.5h22v-4.5c0-2.48-2.017-4.5-4.505-4.5h-12.99c-2.494 0-4.505 2.015-4.505 4.5zM12 8.45c0-2.237 1.81-4.050 4.047-4.050h11.905c2.235 0 4.047 1.818 4.047 4.050v4.050h-20v-4.050z"></path>
<path d="M33 13.5h1v27h-1v-27z"></path>
</svg>
