<!-- Generated by IcoMoon.io -->
<svg version="1.1" xmlns="http://www.w3.org/2000/svg" width="45" height="45" viewBox="0 0 45 45">
<title>work-1</title>
<path d="M12.273 12.273h20.455v29.659h-20.455v-29.659zM34.773 12.273h8.182c1.129 0 2.045 0.92 2.045 2.039v25.582c0 1.126-0.908 2.039-2.045 2.039h-8.182v-29.659zM0 14.311c0-1.126 0.908-2.039 2.045-2.039h8.182v29.659h-8.182c-1.129 0-2.045-0.92-2.045-2.039v-25.582z"></path>
<path d="M11.25 7.67v4.602h22.5v-4.602c0-2.537-2.063-4.602-4.607-4.602h-13.285c-2.551 0-4.607 2.061-4.607 4.602zM12.273 8.182c0-2.259 1.833-4.091 4.090-4.091h12.274c2.259 0 4.090 1.836 4.090 4.091v4.091h-20.455v-4.091z"></path>
</svg>
