<!-- Generated by IcoMoon.io -->
<svg version="1.1" xmlns="http://www.w3.org/2000/svg" width="45" height="45" viewBox="0 0 45 45">
<title>youtube-1</title>
<path d="M8.722 0h2.7l1.853 6.941 1.718-6.941h2.726l-3.122 10.322v7.044h-2.683v-7.044l-3.191-10.322zM21.086 4.45c-2.098 0-3.489 1.387-3.489 3.441v6.279c0 2.258 1.179 3.433 3.489 3.433 1.916 0 3.424-1.281 3.424-3.433v-6.279c0-2.004-1.494-3.441-3.424-3.441zM22.082 14.063c0 0.697-0.356 1.211-0.998 1.211-0.658 0-1.039-0.538-1.039-1.211v-5.961c0-0.701 0.323-1.221 0.992-1.221 0.731 0 1.044 0.504 1.044 1.221v5.961zM30.949 4.556v9.724c-0.291 0.364-0.937 0.96-1.401 0.96-0.508 0-0.634-0.349-0.634-0.863v-9.821h-2.381v10.706c0 1.266 0.386 2.287 1.663 2.287 0.72 0 1.721-0.375 2.753-1.599v1.414h2.381v-12.808h-2.381zM35.079 30.54c-0.84 0-1.014 0.591-1.014 1.431v1.236h2.004v-1.237c0.002-0.825-0.172-1.429-0.99-1.429zM26.261 30.615c-0.157 0.081-0.313 0.204-0.469 0.371v7.603c0.186 0.199 0.364 0.341 0.538 0.429 0.369 0.188 0.909 0.201 1.161-0.126 0.131-0.172 0.197-0.452 0.197-0.842v-6.298c0-0.413-0.081-0.724-0.242-0.937-0.276-0.362-0.788-0.401-1.185-0.201zM35.312 20.875c-4.883-0.332-20.749-0.332-25.624 0-5.276 0.36-5.899 3.547-5.938 11.938 0.039 8.376 0.656 11.578 5.938 11.938 4.875 0.332 20.741 0.332 25.624 0 5.276-0.36 5.899-3.549 5.938-11.938-0.039-8.376-0.656-11.578-5.938-11.938zM12.204 40.911h-2.556v-14.138h-2.644v-2.4h7.841v2.4h-2.644v14.138zM21.291 40.911h-2.269v-1.346c-0.418 0.497-0.853 0.876-1.305 1.134-1.223 0.701-2.901 0.684-2.901-1.791v-10.196h2.267v9.352c0 0.491 0.118 0.821 0.604 0.821 0.442 0 1.058-0.568 1.333-0.913v-9.261h2.269v12.199zM30.023 38.383c0 1.509-0.564 2.683-2.074 2.683-0.831 0-1.522-0.304-2.154-1.093v0.937h-2.289v-16.537h2.289v5.325c0.512-0.624 1.207-1.14 2.017-1.14 1.661 0 2.213 1.404 2.213 3.058v6.767zM38.406 35.098h-4.339v2.303c0 0.915 0.079 1.706 0.99 1.706 0.958 0 1.014-0.645 1.014-1.706v-0.847h2.334v0.917c0 2.349-1.009 3.774-3.399 3.774-2.166 0-3.274-1.579-3.274-3.774v-5.477c0-2.117 1.399-3.589 3.444-3.589 2.177 0 3.227 1.384 3.227 3.589v3.105z"></path>
</svg>
